# Blender 4.0.2
# www.blender.org
mtllib Fern_1.mtl
o Fern_1
v -2.624722 2.087159 1.343616
v -0.121119 0.724113 -0.162311
v -0.289240 0.534608 -0.277589
v -1.770909 1.918703 1.329790
v -1.831206 2.166266 0.799883
v -2.249161 1.871246 0.604456
v -0.046539 0.532425 -0.187407
v -0.080642 0.676809 -0.065738
v -0.853900 1.777142 0.190396
v -1.379995 1.451191 -0.240310
v -0.728686 1.422849 0.963711
v -0.966996 1.587768 1.087599
v -1.336875 1.782217 1.223954
v -1.445919 2.073137 0.551181
v -1.093325 1.916922 0.331255
v -1.919832 1.773636 0.226232
v -1.619660 1.610612 -0.059809
v -1.038441 1.185572 -0.359429
v -0.556779 1.476672 0.036982
v -0.449022 1.161689 0.718236
v -0.385814 1.240208 -0.045189
v -0.207057 0.905143 -0.126745
v -0.793127 0.992393 -0.378838
v -0.455559 0.730900 -0.311612
v -0.169979 0.796700 0.071158
v -0.312573 1.006050 0.431973
v 0.025570 0.741755 -4.091316
v -0.004404 0.344317 -0.374985
v 0.849223 -0.019675 -0.526370
v -0.615196 0.783107 -3.214851
v 0.018935 1.202129 -3.040579
v 0.617447 0.818706 -3.200045
v -0.007542 -0.005213 -0.114054
v -0.744712 -0.153433 -0.582000
v 0.007565 1.178425 -1.577986
v 0.971899 0.818155 -1.723200
v -0.946908 0.592183 -1.825120
v -0.928965 0.697535 -2.181997
v -0.819049 0.776464 -2.688934
v 0.014908 1.273628 -2.489251
v 0.010701 1.255089 -1.952228
v 0.809607 0.908838 -2.619911
v 0.925494 0.895441 -2.104830
v 0.960789 0.640811 -1.336607
v 0.003852 0.997444 -1.184995
v -0.908488 0.421299 -1.427701
v 0.001764 0.861911 -0.963924
v -0.001445 0.612789 -0.646600
v 0.954614 0.508918 -1.121733
v 0.916123 0.262150 -0.808499
v -0.826837 0.071862 -0.875681
v -0.886796 0.290963 -1.203309
v 4.626213 1.062779 -0.346789
v 0.472689 0.369275 0.027543
v 0.716749 -0.247470 0.834200
v 3.560246 1.156036 -0.906090
v 3.434287 1.439796 -0.097057
v 3.735699 0.903882 0.429506
v 0.158752 -0.000571 -0.026980
v 0.573336 0.010986 -0.919559
v 1.847632 1.279893 0.083607
v 2.145751 0.659280 1.011006
v 1.989700 0.888297 -1.121044
v 2.385391 1.016755 -1.124153
v 2.951771 1.135685 -1.055355
v 2.822976 1.454067 -0.008746
v 2.245654 1.376025 0.055117
v 3.122221 0.888960 0.737198
v 2.570540 0.781532 0.928423
v 1.690710 0.471963 1.007658
v 1.415492 1.100385 0.088178
v 1.539932 0.703263 -1.068089
v 1.162254 0.963688 0.082392
v 0.792349 0.675164 0.060337
v 1.431808 0.335433 0.997540
v 1.056801 0.058739 0.937593
v 0.903704 0.292041 -0.991906
v 1.278209 0.564453 -1.046578
v 0.089391 0.791815 4.396108
v 0.015997 0.357069 0.266014
v -0.685061 -0.054225 0.389945
v 0.756969 0.788287 3.415608
v 0.065806 1.249629 3.230573
v -0.587796 0.849070 3.442390
v 0.022030 0.002165 -0.056564
v 0.624167 -0.206331 0.435428
v 0.029529 1.192464 1.655315
v -1.023648 0.803434 1.820045
v 1.070552 0.536585 1.888241
v 1.059699 0.645046 2.282164
v 0.959940 0.755167 2.835122
v 0.051152 1.304336 2.626249
v 0.035258 1.264149 2.052100
v -0.817235 0.926481 2.812936
v -0.963530 0.886690 2.249728
v -1.013509 0.639323 1.365407
v 0.031430 1.036852 1.222710
v 1.027140 0.387433 1.433410
v 0.032229 0.913643 0.968190
v 0.022107 0.645733 0.592568
v -0.985826 0.515467 1.105790
v -0.821825 0.250301 0.729559
v 0.774139 0.034064 0.781205
v 0.975723 0.268779 1.167835
v -4.419975 0.949866 0.232206
v -0.238270 0.371292 0.005416
v -0.417687 -0.070312 -0.923794
v -3.394382 0.933943 0.869157
v -3.221944 1.376748 0.144513
v -3.478247 0.957102 -0.498546
v 0.078606 -0.000063 0.005028
v -0.392928 -0.172365 0.851597
v -1.624128 1.266207 0.042303
v -1.849605 0.845005 -1.009292
v -1.836107 0.637416 1.130606
v -2.233590 0.760233 1.133017
v -2.796542 0.887309 1.051775
v -2.606597 1.412253 0.102196
v -2.024949 1.352206 0.062822
v -2.845998 1.008563 -0.760965
v -2.281135 0.945441 -0.932440
v -1.392183 0.663596 -1.013304
v -1.189194 1.093916 0.030594
v -1.380352 0.469640 1.071691
v -0.934254 0.960386 0.025635
v -0.561018 0.675579 0.013723
v -1.131874 0.529383 -1.013616
v -0.756226 0.248498 -0.985771
v -0.732672 0.086201 0.956891
v -1.115142 0.339632 1.040204
v 2.295206 2.441308 -2.310080
v 0.105886 0.404297 0.063100
v 0.629687 0.199774 0.444103
v 1.270145 2.108409 -2.139494
v 1.539734 2.349985 -1.445027
v 2.191327 2.044180 -1.314072
v 0.079988 0.110802 0.095714
v -0.089288 0.218269 -0.393342
v 0.647868 1.636116 -0.502500
v 1.527859 1.296102 -0.105582
v 0.236355 1.308886 -1.453399
v 0.433550 1.563817 -1.703968
v 0.800903 1.867909 -1.932354
v 1.187180 2.152031 -1.059957
v 0.870819 1.884188 -0.724153
v 1.966140 1.834908 -0.775189
v 1.746314 1.562989 -0.367652
v 1.243004 0.951066 0.089155
v 0.419969 1.294865 -0.293087
v 0.088707 1.003757 -1.074674
v 0.303265 1.080912 -0.179345
v 0.182184 0.724883 -0.038047
v 1.083187 0.786611 0.217845
v 0.865902 0.483145 0.378828
v -0.051437 0.506631 -0.590370
v 0.032391 0.812843 -0.861000
v 1.916676 1.942754 3.167139
v -0.203464 0.726269 0.045877
v -0.506098 0.355760 0.433257
v 1.874063 1.941689 2.038193
v 1.132239 2.148064 2.292266
v 0.896915 1.656090 2.817939
v -0.173757 0.408249 -0.092579
v 0.050601 0.633769 -0.053401
v 0.227303 1.679925 0.992087
v -0.266935 1.158470 1.647314
v 1.206962 1.436983 0.626234
v 1.473114 1.658212 0.966057
v 1.719348 1.863784 1.477819
v 0.780174 2.089338 1.837524
v 0.445799 1.893414 1.351163
v 0.368971 1.558383 2.465348
v -0.031814 1.363326 2.054549
v -0.407331 0.912967 1.186836
v 0.037049 1.388837 0.626713
v 0.868497 1.160567 0.303485
v -0.051113 1.214022 0.440102
v -0.145831 0.942990 0.211020
v -0.462237 0.772060 0.951882
v -0.495642 0.554417 0.651678
v 0.324721 0.781969 0.023938
v 0.698872 0.998325 0.143942
v 2.571378 2.079819 0.620529
v 0.378129 1.002400 0.021391
v 0.394150 0.931901 0.129481
v 2.095653 1.920112 0.122628
v 1.810952 2.136898 0.438863
v 1.921918 1.914288 0.807603
v 0.344384 0.925032 0.006310
v 0.449969 0.930690 -0.048424
v 0.825362 1.656686 0.171942
v 0.848236 1.470250 0.613623
v 1.138049 1.414157 -0.208652
v 1.465398 1.611977 -0.201642
v 1.794440 1.800336 -0.074526
v 1.450725 2.057486 0.347349
v 1.094733 1.884871 0.252206
v 1.514563 1.836268 0.820597
v 1.152189 1.679446 0.773903
v 0.621215 1.258485 0.426228
v 0.605275 1.392754 0.099433
v 0.801148 1.237577 -0.138665
v 0.514686 1.269842 0.068746
v 0.421543 1.096184 0.037289
v 0.528761 1.155426 0.344594
v 0.437206 1.014231 0.199682
v 0.521725 1.002465 -0.069669
v 0.675814 1.135661 -0.124941
v -2.589062 1.805055 -2.706939
v -0.116560 0.463491 -0.215337
v -0.279640 0.269120 -0.137033
v -1.527046 1.647663 -2.511951
v -1.826117 1.955335 -1.856806
v -2.428097 1.586798 -1.664352
v -0.056513 0.255744 -0.122961
v -0.097067 0.217534 -0.407264
v -0.801246 1.455390 -0.806127
v -1.530941 1.101486 -0.407144
v -0.403281 1.052060 -1.627684
v -0.630802 1.279045 -1.964134
v -1.028221 1.509629 -2.281614
v -1.448352 1.870635 -1.454465
v -1.076890 1.675141 -1.071769
v -2.174476 1.497506 -1.105243
v -1.888107 1.309167 -0.659781
v -1.006570 0.820875 -0.286153
v -0.471644 1.110506 -0.567123
v -0.265931 0.730107 -1.062789
v -0.327763 0.911135 -0.448828
v -0.188503 0.652888 -0.318077
v -0.699809 0.653472 -0.260056
v -0.446500 0.453436 -0.213738
v -0.147371 0.373425 -0.553718
v -0.221963 0.569813 -0.788884
vn 0.0121 0.9968 -0.0791
vn -0.3101 0.8216 -0.4783
vn -0.1001 0.9950 -0.0013
vn 0.7303 0.4119 -0.5450
vn 0.3773 0.2629 -0.8880
vn 0.4068 0.3315 -0.8512
vn 0.7532 0.4681 -0.4622
vn 0.4831 0.8235 -0.2975
vn 0.1362 0.7012 -0.6998
vn -0.0102 0.7856 -0.6186
vn 0.3313 0.9173 -0.2209
vn 0.2921 0.8839 0.3652
vn 0.4571 0.8378 0.2986
vn 0.1908 0.9686 -0.1596
vn 0.8935 0.4434 -0.0711
vn 0.5718 0.3213 -0.7549
vn -0.1534 0.8148 -0.5590
vn 0.8811 0.4687 0.0634
vn 0.2790 0.5764 -0.7681
vn 0.6298 0.6857 -0.3649
vn 0.7204 0.5587 -0.4109
vn 0.3680 0.4611 -0.8074
vn 0.5686 0.7833 0.2512
vn 0.6781 0.7047 0.2089
vn 0.7817 0.6036 0.1566
vn 0.8533 0.5094 0.1112
vn -0.0241 0.9610 -0.2756
vn 0.4341 0.8583 -0.2735
vn -0.0211 0.9157 -0.4013
vn -0.0954 0.6513 0.7528
vn 0.3741 0.6158 0.6935
vn 0.3737 0.6772 0.6339
vn -0.1030 0.7362 0.6689
vn -0.0966 0.9437 0.3165
vn 0.3775 0.8820 0.2821
vn 0.3832 0.9203 0.0785
vn -0.0818 0.9905 0.1105
vn -0.4758 0.8454 -0.2426
vn -0.5082 0.8593 -0.0570
vn -0.0550 0.9951 -0.0818
vn -0.5494 0.5697 0.6112
vn -0.1063 0.5954 0.7963
vn 0.4109 0.9060 -0.1016
vn -0.5579 0.6176 0.5543
vn 0.3738 0.8150 0.4428
vn -0.1048 0.8731 0.4761
vn -0.1061 0.8107 0.5757
vn 0.3722 0.7540 0.5412
vn -0.5307 0.8407 0.1074
vn -0.5528 0.7878 0.2715
vn -0.5619 0.7245 0.3992
vn -0.5625 0.6730 0.4803
vn 0.1964 0.9678 0.1572
vn 0.2672 0.7712 0.5778
vn 0.3244 0.9363 0.1346
vn -0.7334 0.6641 0.1453
vn -0.6281 0.5229 0.5763
vn -0.5748 0.5750 0.5822
vn -0.6634 0.7340 0.1455
vn -0.3101 0.9378 0.1563
vn -0.2207 0.7739 0.5937
vn -0.0696 0.8077 0.5855
vn -0.1644 0.9738 0.1568
vn 0.1084 0.9473 -0.3013
vn -0.0802 0.9482 -0.3073
vn -0.0020 0.9872 0.1594
vn -0.6581 0.6801 -0.3232
vn -0.7654 0.6309 0.1275
vn 0.0901 0.8033 0.5887
vn -0.6117 0.7204 -0.3269
vn -0.3494 0.7220 0.5972
vn -0.4327 0.8888 0.1514
vn -0.5490 0.8228 0.1470
vn -0.4640 0.6588 0.5922
vn -0.2161 0.9251 -0.3122
vn -0.3230 0.8888 -0.3251
vn -0.4150 0.8464 -0.3337
vn -0.5166 0.7889 -0.3328
vn 0.0483 0.9704 0.2368
vn -0.4113 0.8754 0.2539
vn 0.0488 0.9300 0.3643
vn 0.0999 0.6821 -0.7244
vn -0.4439 0.6182 -0.6487
vn -0.4117 0.6744 -0.6129
vn 0.1023 0.7255 -0.6806
vn 0.0980 0.9584 -0.2680
vn -0.3724 0.8986 -0.2322
vn -0.3734 0.9243 -0.0793
vn 0.0898 0.9886 -0.1212
vn 0.4967 0.8460 0.1935
vn 0.5234 0.8520 0.0069
vn 0.0725 0.9965 0.0407
vn 0.6241 0.5366 -0.5679
vn 0.1352 0.6677 -0.7321
vn -0.3951 0.9153 0.0788
vn 0.5944 0.5744 -0.5628
vn -0.3751 0.8508 -0.3680
vn 0.1058 0.9092 -0.4027
vn 0.1084 0.8263 -0.5528
vn -0.3840 0.7784 -0.4967
vn 0.5379 0.8331 -0.1290
vn 0.5538 0.7985 -0.2361
vn 0.5642 0.7523 -0.3403
vn 0.5727 0.6724 -0.4690
vn -0.2046 0.9784 0.0288
vn -0.2442 0.8708 -0.4266
vn -0.3331 0.9422 0.0359
vn 0.7282 0.6841 0.0416
vn 0.6537 0.6327 -0.4152
vn 0.6000 0.6846 -0.4139
vn 0.6570 0.7521 0.0508
vn 0.3013 0.9518 0.0577
vn 0.2436 0.8795 -0.4088
vn 0.0916 0.9101 -0.4041
vn 0.1553 0.9863 0.0547
vn -0.1460 0.8658 0.4786
vn 0.0417 0.8666 0.4973
vn -0.0068 0.9990 0.0440
vn 0.6225 0.6042 0.4974
vn 0.7596 0.6481 0.0544
vn -0.0674 0.9055 -0.4189
vn 0.5752 0.6426 0.5061
vn 0.3732 0.8302 -0.4140
vn 0.4242 0.9035 0.0608
vn 0.5413 0.8387 0.0596
vn 0.4884 0.7680 -0.4143
vn 0.1775 0.8437 0.5066
vn 0.2840 0.8062 0.5190
vn 0.3761 0.7635 0.5250
vn 0.4786 0.7080 0.5194
vn -0.1027 0.9762 0.1910
vn 0.2704 0.8522 0.4479
vn -0.0135 0.9955 0.0933
vn -0.7359 0.2890 0.6123
vn -0.4213 0.3697 0.8281
vn -0.3219 0.4728 0.8203
vn -0.6737 0.4584 0.5796
vn -0.4807 0.7227 0.4967
vn -0.0874 0.6444 0.7596
vn 0.0110 0.7455 0.6664
vn -0.3767 0.8293 0.4127
vn -0.4352 0.8914 -0.1264
vn -0.5751 0.8178 -0.0212
vn -0.2515 0.9162 0.3119
vn -0.9219 0.2585 0.2886
vn -0.7654 0.1374 0.6287
vn 0.1378 0.8131 0.5656
vn -0.9033 0.3601 0.2330
vn -0.1386 0.5900 0.7954
vn -0.5500 0.6429 0.5331
vn -0.6081 0.5718 0.5506
vn -0.2015 0.5621 0.8022
vn -0.6756 0.7352 0.0557
vn -0.7555 0.6464 0.1066
vn -0.8213 0.5518 0.1447
vn -0.8702 0.4588 0.1798
vn -0.1444 0.9737 0.1761
vn -0.4531 0.7632 0.4607
vn -0.0591 0.9588 0.2780
vn -0.5721 0.4609 -0.6785
vn -0.8656 0.3493 -0.3588
vn -0.8493 0.4536 -0.2700
vn -0.5361 0.6095 -0.5840
vn -0.4327 0.8352 -0.3395
vn -0.7436 0.6683 -0.0217
vn -0.6697 0.7339 0.1137
vn -0.3651 0.9082 -0.2048
vn 0.2121 0.9691 -0.1261
vn 0.1138 0.9425 -0.3142
vn -0.2646 0.9641 -0.0223
vn -0.1421 0.5291 -0.8366
vn -0.6313 0.2592 -0.7309
vn -0.5712 0.7677 0.2903
vn -0.1007 0.6322 -0.7683
vn -0.7915 0.5993 -0.1197
vn -0.4735 0.7670 -0.4330
vn -0.5076 0.6920 -0.5133
vn -0.8224 0.5340 -0.1960
vn 0.0343 0.8851 -0.4641
vn -0.0120 0.8214 -0.5703
vn -0.0433 0.7635 -0.6444
vn -0.0740 0.7035 -0.7068
vn -0.0648 0.9979 -0.0028
vn -0.1430 0.8471 0.5119
vn 0.0683 0.9973 0.0277
vn -0.8615 0.4042 -0.3075
vn -0.9024 0.3121 0.2970
vn -0.8987 0.3575 0.2541
vn -0.8516 0.4252 -0.3065
vn -0.6533 0.7221 -0.2274
vn -0.7069 0.6360 0.3095
vn -0.5442 0.7525 0.3709
vn -0.4998 0.8497 -0.1681
vn 0.0747 0.8609 -0.5032
vn -0.1061 0.8021 -0.5877
vn -0.2783 0.9565 -0.0874
vn -0.4883 0.3350 -0.8058
vn -0.8430 0.4305 -0.3226
vn -0.3349 0.8287 0.4485
vn -0.5251 0.3545 -0.7737
vn -0.7874 0.5543 0.2698
vn -0.7269 0.6346 -0.2625
vn -0.7921 0.5381 -0.2880
vn -0.8438 0.4750 0.2498
vn -0.2696 0.7081 -0.6526
vn -0.3858 0.6056 -0.6959
vn -0.4479 0.5334 -0.7175
vn -0.4993 0.4520 -0.7392
vn -0.0347 0.9988 0.0353
vn -0.1259 0.9901 -0.0620
vn -0.3861 0.8662 0.3172
vn 0.6899 0.4693 0.5511
vn 0.7026 0.4988 0.5076
vn 0.0495 0.4317 0.9007
vn -0.0193 0.4156 0.9094
vn 0.4460 0.7840 0.4318
vn 0.3012 0.9026 0.3077
vn -0.0891 0.8108 0.5785
vn 0.0351 0.7070 0.7064
vn 0.1376 0.9750 0.1744
vn 0.4706 0.8689 -0.1537
vn 0.3056 0.9121 -0.2732
vn 0.7031 0.4486 0.5517
vn 0.9625 0.2227 -0.1551
vn -0.2399 0.8607 0.4489
vn 0.9491 0.2828 -0.1384
vn 0.1222 0.5720 0.8111
vn 0.1230 0.4758 0.8709
vn 0.6634 0.5526 0.5046
vn 0.5887 0.6478 0.4835
vn 0.6062 0.7933 -0.0563
vn 0.7291 0.6844 -0.0006
vn 0.8491 0.5282 -0.0029
vn 0.9181 0.3887 -0.0779
vt 0.150386 0.451442
vt 0.234613 0.451442
vt 0.151319 0.563093
vt 0.147101 0.058723
vt 0.267230 0.058723
vt 0.276645 0.110613
vt 0.147518 0.108525
vt 0.148785 0.260115
vt 0.288543 0.260273
vt 0.285453 0.314683
vt 0.149227 0.312886
vt 0.061146 0.451442
vt 0.032458 0.382746
vt 0.149819 0.383667
vt 0.137482 0.058724
vt 0.146660 0.005930
vt 0.268501 0.382215
vt 0.147518 0.108525
vt 0.092409 0.108779
vt 0.284955 0.198457
vt 0.148263 0.197650
vt 0.147969 0.162512
vt 0.282961 0.164098
vt 0.016990 0.312611
vt 0.149227 0.312886
vt 0.014465 0.260546
vt 0.148785 0.260115
vt 0.019872 0.198051
vt 0.040976 0.162729
vt 0.042920 0.058724
vt 0.031362 0.109059
vt 0.022924 0.162765
vt 0.254436 0.058723
vt 0.063805 0.058724
vt 0.046860 0.108988
vt 0.092587 0.058724
vt 0.146804 0.023213
vt 0.052504 0.108962
vt 0.054791 0.058724
vt 0.044598 0.108998
vt 0.034502 0.198006
vt 0.037173 0.162737
vt 0.241553 0.047480
s 1
usemtl Leaves
f 5/1/1 6/2/2 1/3/3
f 2/4/4 3/5/5 24/6/6 22/7/7
f 9/8/8 10/9/9 17/10/10 15/11/11
f 5/1/1 4/12/12 13/13/13 14/14/14
f 2/4/4 8/15/15 7/16/16
f 7/16/16 3/5/5 2/4/4
f 14/14/14 16/17/17 6/2/2 5/1/1
f 1/3/3 4/12/12 5/1/1
f 8/15/15 2/4/4 22/18/7 25/19/18
f 18/20/19 19/21/20 21/22/21 23/23/22
f 16/17/17 14/14/14 15/11/11 17/10/10
f 14/14/14 13/13/13 12/24/23 15/25/11
f 15/25/11 12/24/23 11/26/24 9/27/8
f 9/27/8 11/26/24 20/28/25 19/21/20
f 10/9/9 9/8/8 19/21/20 18/20/19
f 22/7/7 24/6/6 23/23/22 21/22/21
f 25/19/18 22/18/7 21/22/21 26/29/26
f 19/21/20 20/28/25 26/29/26 21/22/21
f 31/1/27 32/2/28 27/3/29
f 28/4/30 29/5/31 50/6/32 48/7/33
f 35/8/34 36/9/35 43/10/36 41/11/37
f 31/1/27 30/12/38 39/13/39 40/14/40
f 28/4/30 34/30/41 33/16/42
f 33/16/42 29/5/31 28/4/30
f 40/14/40 42/17/43 32/2/28 31/1/27
f 27/3/29 30/12/38 31/1/27
f 34/30/41 28/4/30 48/18/33 51/31/44
f 44/20/45 45/21/46 47/22/47 49/23/48
f 42/17/43 40/14/40 41/11/37 43/10/36
f 40/14/40 39/13/39 38/24/49 41/25/37
f 41/25/37 38/24/49 37/26/50 35/27/34
f 35/27/34 37/26/50 46/28/51 45/21/46
f 36/9/35 35/8/34 45/21/46 44/20/45
f 48/7/33 50/6/32 49/23/48 47/22/47
f 51/31/44 48/18/33 47/22/47 52/32/52
f 45/21/46 46/28/51 52/32/52 47/22/47
f 57/1/53 58/2/54 53/3/55
f 54/4/56 55/5/57 76/6/58 74/7/59
f 61/8/60 62/9/61 69/10/62 67/11/63
f 57/1/53 56/12/64 65/13/65 66/14/66
f 54/4/56 60/30/67 59/16/68
f 59/16/68 55/5/57 54/4/56
f 66/14/66 68/17/69 58/2/54 57/1/53
f 53/3/55 56/12/64 57/1/53
f 60/30/67 54/4/56 74/18/59 77/31/70
f 70/20/71 71/21/72 73/22/73 75/23/74
f 68/17/69 66/14/66 67/11/63 69/10/62
f 66/14/66 65/13/65 64/24/75 67/25/63
f 67/25/63 64/24/75 63/26/76 61/27/60
f 61/27/60 63/26/76 72/28/77 71/21/72
f 62/9/61 61/8/60 71/21/72 70/20/71
f 74/7/59 76/6/58 75/23/74 73/22/73
f 77/31/70 74/18/59 73/22/73 78/32/78
f 71/21/72 72/28/77 78/32/78 73/22/73
f 83/1/79 84/2/80 79/3/81
f 80/4/82 81/5/83 102/6/84 100/7/85
f 87/8/86 88/9/87 95/10/88 93/11/89
f 83/1/79 82/12/90 91/13/91 92/14/92
f 80/4/82 86/30/93 85/16/94
f 85/16/94 81/5/83 80/4/82
f 92/14/92 94/17/95 84/2/80 83/1/79
f 79/3/81 82/12/90 83/1/79
f 86/30/93 80/4/82 100/18/85 103/31/96
f 96/20/97 97/21/98 99/22/99 101/23/100
f 94/17/95 92/14/92 93/11/89 95/10/88
f 92/14/92 91/13/91 90/24/101 93/25/89
f 93/25/89 90/24/101 89/26/102 87/27/86
f 87/27/86 89/26/102 98/28/103 97/21/98
f 88/9/87 87/8/86 97/21/98 96/20/97
f 100/7/85 102/6/84 101/23/100 99/22/99
f 103/31/96 100/18/85 99/22/99 104/32/104
f 97/21/98 98/28/103 104/32/104 99/22/99
f 109/1/105 110/2/106 105/3/107
f 106/4/108 107/5/109 128/6/110 126/7/111
f 113/8/112 114/9/113 121/10/114 119/11/115
f 109/1/105 108/12/116 117/13/117 118/14/118
f 106/4/108 112/30/119 111/16/120
f 111/16/120 107/5/109 106/4/108
f 118/14/118 120/17/121 110/2/106 109/1/105
f 105/3/107 108/12/116 109/1/105
f 112/30/119 106/4/108 126/18/111 129/31/122
f 122/20/123 123/21/124 125/22/125 127/23/126
f 120/17/121 118/14/118 119/11/115 121/10/114
f 118/14/118 117/13/117 116/24/127 119/25/115
f 119/25/115 116/24/127 115/26/128 113/27/112
f 113/27/112 115/26/128 124/28/129 123/21/124
f 114/9/113 113/8/112 123/21/124 122/20/123
f 126/7/111 128/6/110 127/23/126 125/22/125
f 129/31/122 126/18/111 125/22/125 130/32/130
f 123/21/124 124/28/129 130/32/130 125/22/125
f 135/1/131 136/2/132 131/3/133
f 132/4/134 133/33/135 154/6/136 152/7/137
f 139/8/138 140/9/139 147/10/140 145/11/141
f 135/1/131 134/12/142 143/13/143 144/14/144
f 132/4/134 138/34/145 137/16/146
f 137/16/146 133/33/135 132/4/134
f 144/14/144 146/17/147 136/2/132 135/1/131
f 131/3/133 134/12/142 135/1/131
f 138/34/145 132/4/134 152/18/137 155/35/148
f 148/20/149 149/21/150 151/22/151 153/23/152
f 146/17/147 144/14/144 145/11/141 147/10/140
f 144/14/144 143/13/143 142/24/153 145/25/141
f 145/25/141 142/24/153 141/26/154 139/27/138
f 139/27/138 141/26/154 150/28/155 149/21/150
f 140/9/139 139/8/138 149/21/150 148/20/149
f 152/7/137 154/6/136 153/23/152 151/22/151
f 155/35/148 152/18/137 151/22/151 156/32/156
f 149/21/150 150/28/155 156/32/156 151/22/151
f 161/1/157 162/2/158 157/3/159
f 158/4/160 159/5/161 180/6/162 178/7/163
f 165/8/164 166/9/165 173/10/166 171/11/167
f 161/1/157 160/12/168 169/13/169 170/14/170
f 158/4/160 164/36/171 163/37/172
f 163/37/172 159/5/161 158/4/160
f 170/14/170 172/17/173 162/2/158 161/1/157
f 157/3/159 160/12/168 161/1/157
f 164/36/171 158/4/160 178/18/163 181/38/174
f 174/20/175 175/21/176 177/22/177 179/23/178
f 172/17/173 170/14/170 171/11/167 173/10/166
f 170/14/170 169/13/169 168/24/179 171/25/167
f 171/25/167 168/24/179 167/26/180 165/27/164
f 165/27/164 167/26/180 176/28/181 175/21/176
f 166/9/165 165/8/164 175/21/176 174/20/175
f 178/7/163 180/6/162 179/23/178 177/22/177
f 181/38/174 178/18/163 177/22/177 182/32/182
f 175/21/176 176/28/181 182/32/182 177/22/177
f 187/1/183 188/2/184 183/3/185
f 184/4/186 185/5/187 206/6/188 204/7/189
f 191/8/190 192/9/191 199/10/192 197/11/193
f 187/1/183 186/12/194 195/13/195 196/14/196
f 184/4/186 190/39/197 189/16/198
f 189/16/198 185/5/187 184/4/186
f 196/14/196 198/17/199 188/2/184 187/1/183
f 183/3/185 186/12/194 187/1/183
f 190/39/197 184/4/186 204/18/189 207/40/200
f 200/20/201 201/21/202 203/22/203 205/23/204
f 198/17/199 196/14/196 197/11/193 199/10/192
f 196/14/196 195/13/195 194/24/205 197/25/193
f 197/25/193 194/24/205 193/26/206 191/27/190
f 191/27/190 193/26/206 202/41/207 201/21/202
f 192/9/191 191/8/190 201/21/202 200/20/201
f 204/7/189 206/6/188 205/23/204 203/22/203
f 207/40/200 204/18/189 203/22/203 208/42/208
f 201/21/202 202/41/207 208/42/208 203/22/203
f 213/1/209 209/3/210 214/2/211
f 210/4/212 230/7/213 232/6/214 211/43/215
f 217/8/216 223/11/217 225/10/218 218/9/219
f 213/1/209 222/14/220 221/13/221 212/12/222
f 210/4/212 215/16/223 216/30/224
f 215/16/223 210/4/212 211/43/215
f 222/14/220 213/1/209 214/2/211 224/17/225
f 209/3/210 213/1/209 212/12/222
f 216/30/224 233/31/226 230/18/213 210/4/212
f 226/20/227 231/23/228 229/22/229 227/21/230
f 224/17/225 225/10/218 223/11/217 222/14/220
f 222/14/220 223/25/217 220/24/231 221/13/221
f 223/25/217 217/27/216 219/26/232 220/24/231
f 217/27/216 227/21/230 228/28/233 219/26/232
f 218/9/219 226/20/227 227/21/230 217/8/216
f 230/7/213 229/22/229 231/23/228 232/6/214
f 233/31/226 234/32/234 229/22/229 230/18/213
f 227/21/230 229/22/229 234/32/234 228/28/233
