# Blender 4.0.2
# www.blender.org
mtllib Flower_3_Single.mtl
o Flower_3_Single
v -0.003334 1.755363 0.019374
v -0.224867 2.010712 -0.230772
v 0.064138 1.924013 -0.371036
v -0.048214 1.965364 -0.220907
v -0.242259 2.049867 0.201979
v -0.272476 2.029554 -0.150662
v -0.177011 2.017618 0.011843
v -0.168539 2.034408 0.249426
v 0.186902 1.950166 0.356816
v -0.012041 1.991883 0.228773
v 0.219038 1.937448 0.302741
v 0.375894 1.875371 0.038805
v 0.229386 1.919776 0.115583
v 0.172759 1.901236 -0.301126
v 0.420783 1.857606 -0.036728
v 0.219414 1.901382 -0.146951
v 0.005871 -0.007367 -0.024620
v 0.015861 -0.007367 -0.021374
v 0.022035 -0.007367 -0.012876
v 0.022035 -0.007367 -0.002372
v 0.015861 -0.007367 0.006126
v 0.005871 -0.007367 0.009372
v -0.004119 -0.007367 0.006126
v -0.010293 -0.007367 -0.002372
v -0.010293 -0.007367 -0.012876
v -0.004119 -0.007367 -0.021374
v 0.009169 1.712959 0.019148
v 0.005872 1.712959 0.018073
v 0.011207 1.712959 0.021950
v 0.011207 1.712959 0.025408
v 0.009169 1.712959 0.028202
v 0.005872 1.712959 0.029265
v 0.002576 1.712959 0.028190
v 0.000538 1.712959 0.025389
v 0.000538 1.712959 0.021930
v 0.002576 1.712959 0.019137
v 0.005873 1.770835 0.019025
v 0.020966 0.450760 -0.038422
v 0.016722 1.451207 0.015466
v 0.025696 0.680299 -0.044984
v 0.026551 0.951030 -0.039388
v 0.023400 1.221737 -0.008221
v 0.021412 1.451177 0.016988
v 0.029693 0.450765 -0.035587
v 0.029212 1.221719 -0.006335
v 0.033525 0.951023 -0.037125
v 0.033694 0.680300 -0.042386
v 0.024310 1.451183 0.020977
v 0.035087 0.450765 -0.028163
v 0.032804 1.221722 -0.001386
v 0.037835 0.951024 -0.031187
v 0.038637 0.680300 -0.035583
v 0.024308 1.451218 0.025909
v 0.035087 0.450761 -0.018985
v 0.032803 1.221744 0.004741
v 0.037835 0.951033 -0.023842
v 0.038637 0.680300 -0.027173
v 0.021409 1.451250 0.029900
v 0.029693 0.450763 -0.011561
v 0.029210 1.221764 0.009701
v 0.033524 0.951043 -0.017896
v 0.033694 0.680304 -0.020370
v 0.016720 1.451258 0.031424
v 0.020966 0.450778 -0.008725
v 0.023398 1.221770 0.011594
v 0.026551 0.951050 -0.015623
v 0.025697 0.680314 -0.017772
v 0.012031 1.451253 0.029901
v 0.012239 0.450793 -0.011561
v 0.017587 1.221768 0.009701
v 0.019577 0.951053 -0.017888
v 0.017699 0.680323 -0.020371
v 0.009133 1.451255 0.025913
v 0.006845 0.450794 -0.018985
v 0.013995 1.221769 0.004759
v 0.015267 0.951054 -0.023824
v 0.012757 0.680323 -0.027174
v 0.009133 1.451258 0.020982
v 0.006845 0.450778 -0.028161
v 0.013995 1.221770 -0.001358
v 0.015267 0.951050 -0.031165
v 0.012756 0.680314 -0.035582
v 0.012032 1.451244 0.016992
v 0.012238 0.450763 -0.035585
v 0.017587 1.221760 -0.006316
v 0.019577 0.951041 -0.037111
v 0.017699 0.680304 -0.042385
v -0.055279 -0.001174 0.001884
v -0.204468 0.449715 -0.050106
v -0.137239 0.456046 -0.146373
v -0.072304 0.013363 -0.033918
v -0.457020 0.797646 -0.056542
v -0.480739 0.773885 -0.081707
v -0.452474 0.797646 -0.099531
v -0.157769 0.456762 0.053166
v -0.099309 0.263522 0.054777
v -0.139639 0.277734 -0.042423
v -0.040609 -0.001840 -0.061970
v -0.079970 0.264316 -0.122396
v -0.226513 0.581328 0.042563
v -0.320624 0.698501 0.012449
v -0.359079 0.652793 -0.067730
v -0.274714 0.556671 -0.058120
v -0.305726 0.698673 -0.134113
v -0.206434 0.580733 -0.145418
v -0.016336 -0.003140 -0.061465
v -0.032171 0.593534 -0.227297
v 0.081628 0.583494 -0.186822
v -0.007662 0.023678 -0.095410
v -0.107087 1.091776 -0.486653
v -0.091410 1.070636 -0.520720
v -0.064821 1.091478 -0.495720
v -0.114359 0.585571 -0.144102
v -0.098261 0.333367 -0.087566
v -0.019484 0.365092 -0.161367
v 0.029378 -0.003570 -0.071297
v 0.076144 0.332927 -0.124274
v -0.126063 0.757674 -0.216622
v -0.127836 0.928866 -0.322619
v -0.065164 0.886842 -0.390807
v -0.047008 0.744635 -0.301128
v 0.016064 0.928243 -0.354167
v 0.058820 0.755592 -0.256081
v 0.036541 -0.000234 -0.036301
v 0.201048 0.346050 -0.114821
v 0.208188 0.369940 -0.020759
v 0.064581 0.006662 -0.040108
v 0.400271 0.581335 -0.257726
v 0.425871 0.556130 -0.254660
v 0.419398 0.583516 -0.229386
v 0.119114 0.360565 -0.152012
v 0.061571 0.210391 -0.115616
v 0.138482 0.215296 -0.079283
v 0.057233 0.002039 -0.005653
v 0.140097 0.220195 0.001481
v 0.180888 0.450192 -0.186479
v 0.268066 0.527975 -0.222667
v 0.329020 0.482012 -0.193768
v 0.260676 0.420297 -0.151128
v 0.333677 0.535411 -0.126380
v 0.264340 0.459268 -0.062432
v 0.018855 -0.004982 -0.000403
v 0.119914 0.213783 0.114267
v 0.057165 0.203714 0.154328
v 0.030205 -0.008189 0.017651
v 0.277671 0.357502 0.219178
v 0.283963 0.329901 0.235025
v 0.264177 0.345221 0.242131
v 0.119499 0.261278 0.047760
v 0.078405 0.161232 0.008081
v 0.077564 0.129756 0.072738
v 0.004266 -0.018327 0.024418
v 0.022478 0.111234 0.102662
v 0.161421 0.315348 0.085303
v 0.212683 0.352884 0.138125
v 0.212623 0.291628 0.184759
v 0.162634 0.257858 0.148295
v 0.167031 0.310974 0.216534
v 0.102277 0.261342 0.185552
v -0.024082 0.010587 0.059704
v -0.109600 0.442488 0.153978
v -0.165256 0.428532 0.069890
v -0.047726 0.027203 0.075597
v -0.196367 0.798943 0.342608
v -0.224856 0.779354 0.355612
v -0.231277 0.794519 0.325059
v -0.010400 0.449799 0.146179
v 0.011929 0.265476 0.109740
v -0.077077 0.276762 0.115242
v -0.060306 0.005679 0.041709
v -0.119610 0.247594 0.044758
v -0.039895 0.572985 0.194094
v -0.093877 0.692133 0.257214
v -0.172930 0.650523 0.266292
v -0.138765 0.550271 0.203947
v -0.212605 0.677291 0.198149
v -0.190569 0.552999 0.118310
v 0.044221 0.957426 -0.027190
v -0.019812 1.279278 0.087627
v -0.099816 1.261630 0.034092
v 0.027720 0.959326 -0.004533
v -0.052692 1.515496 0.285344
v -0.071729 1.484917 0.307453
v -0.088257 1.501737 0.283115
v 0.065212 1.326141 0.043919
v 0.081662 1.182576 0.003373
v 0.000029 1.155435 0.040480
v 0.005757 0.942466 -0.029580
v -0.064976 1.126584 -0.006358
v 0.046622 1.411032 0.096686
v 0.012401 1.479919 0.171984
v -0.050496 1.411473 0.209643
v -0.034897 1.350928 0.142383
v -0.108867 1.433061 0.164887
v -0.108852 1.350427 0.086799
v 0.003474 0.558218 -0.008477
v -0.035923 1.253263 -0.105063
v 0.077747 1.216365 -0.135343
v -0.003055 0.565057 -0.041585
v -0.178046 1.771659 -0.256988
v -0.183016 1.709787 -0.297494
v -0.147001 1.744461 -0.289270
v -0.065821 1.343939 0.014991
v -0.047751 1.035494 0.038452
v -0.014131 0.985870 -0.069733
v 0.037029 0.528635 -0.043421
v 0.080755 0.924873 -0.094076
v -0.094918 1.529175 -0.030560
v -0.131723 1.683249 -0.111418
v -0.115445 1.545025 -0.210435
v -0.070127 1.410390 -0.151404
v -0.026318 1.590671 -0.221897
v 0.040905 1.409297 -0.171643
vn -0.2430 0.8451 -0.4762
vn -0.2298 0.9726 0.0354
vn 0.2431 0.9657 -0.0910
vn 0.3568 0.7109 -0.6061
vn 0.3050 0.6376 -0.7075
vn 0.2826 0.8618 0.4211
vn 0.4652 0.7078 0.5317
vn -0.2003 0.9285 0.3126
vn -0.3833 0.8062 -0.4507
vn 0.4882 0.7890 0.3731
vn -0.3088 0.8806 0.3595
vn 0.0915 0.8392 -0.5360
vn 0.6674 0.6996 -0.2551
vn -0.3478 0.8889 -0.2983
vn 0.7175 0.6964 -0.0127
vn 0.8289 0.5454 -0.1240
vn -0.5953 -0.0037 -0.8035
vn -0.5870 -0.0071 -0.8096
vn 0.0011 -0.0294 -0.9996
vn -0.0066 -0.0299 -0.9995
vn 0.9524 0.0564 -0.2996
vn 0.5917 0.0685 -0.8033
vn 0.5886 0.0331 -0.8077
vn 0.9511 0.0607 -0.3029
vn 0.9481 0.0263 0.3169
vn 0.9448 0.0845 0.3164
vn 0.5842 -0.0096 0.8116
vn 0.5778 0.0953 0.8106
vn 0.0010 -0.0385 0.9993
vn -0.0053 0.0899 0.9959
vn -0.5820 -0.0502 0.8116
vn -0.5856 0.0709 0.8075
vn -0.9475 -0.0401 0.3174
vn -0.9482 0.0451 0.3145
vn -0.9536 -0.0111 -0.3010
vn -0.9533 0.0212 -0.3014
vn 0.5803 0.0139 0.8143
vn 0.5886 0.0170 0.8082
vn 0.0013 0.0394 0.9992
vn -0.0064 0.0397 0.9992
vn -0.5914 0.0262 -0.8060
vn -0.5931 0.0087 -0.8051
vn 0.0010 0.0570 -0.9984
vn -0.0031 0.0130 -0.9999
vn -0.0000 0.9968 -0.0793
vn 0.5881 -0.0385 -0.8079
vn 0.5862 -0.0428 -0.8090
vn 0.9483 -0.0155 0.3171
vn 0.9511 -0.0098 0.3086
vn 0.9518 -0.0373 -0.3045
vn 0.9507 -0.0310 -0.3085
vn -0.9533 0.0256 -0.3009
vn -0.9507 0.0199 -0.3094
vn -0.9486 0.0468 0.3129
vn -0.9502 0.0412 0.3090
vn -0.5879 0.0522 0.8072
vn -0.5863 0.0486 0.8086
vn 0.0015 -0.0040 -1.0000
vn 0.5866 -0.0090 -0.8098
vn 0.0007 0.0670 -0.9978
vn 0.5836 0.0583 -0.8099
vn 0.0008 0.1087 -0.9941
vn 0.5869 0.1011 -0.8033
vn 0.9498 -0.0084 -0.3127
vn 0.9482 0.0305 -0.3163
vn 0.9502 0.0579 -0.3062
vn 0.9526 -0.0025 0.3041
vn 0.9539 -0.0068 0.2999
vn 0.9510 -0.0042 0.3092
vn 0.5914 0.0068 0.8064
vn 0.5933 -0.0397 0.8040
vn 0.5881 -0.0617 0.8064
vn 0.0019 0.0158 0.9999
vn 0.0017 -0.0545 0.9985
vn 0.0020 -0.0929 0.9957
vn -0.5888 0.0209 0.8080
vn -0.5908 -0.0450 0.8055
vn -0.5843 -0.0859 0.8070
vn -0.9521 0.0203 0.3051
vn -0.9535 -0.0152 0.3010
vn -0.9497 -0.0432 0.3100
vn -0.9494 0.0141 -0.3137
vn -0.9481 0.0227 -0.3171
vn -0.9513 0.0196 -0.3077
vn -0.5847 0.0048 -0.8113
vn -0.5826 0.0537 -0.8110
vn -0.5868 0.0777 -0.8060
vn 0.7716 0.6295 0.0914
vn 0.5086 0.4689 0.7221
vn 0.4276 0.4481 0.7851
vn 0.7472 0.6577 0.0958
vn 0.9557 0.2573 0.1430
vn 0.7721 0.2321 0.5915
vn 0.7755 0.2676 0.5719
vn 0.9454 0.3044 0.1160
vn 0.8977 0.4311 0.0911
vn 0.7397 0.3665 0.5644
vn 0.6386 0.4553 0.6205
vn 0.8244 0.5592 0.0876
vn 0.7499 0.4604 -0.4750
vn 0.8428 0.3576 -0.4024
vn 0.8991 0.2518 -0.3581
vn 0.9120 0.2210 -0.3455
vn 0.6588 0.4757 -0.5829
vn 0.6008 0.4569 -0.6559
vn 0.1731 0.5122 0.8412
vn -0.5311 0.3776 0.7585
vn -0.6113 0.3619 0.7038
vn 0.1645 0.5373 0.8272
vn 0.2366 0.2199 0.9464
vn -0.3447 0.1794 0.9214
vn -0.3243 0.2054 0.9234
vn 0.2088 0.2500 0.9455
vn 0.2026 0.3490 0.9150
vn -0.3143 0.2877 0.9047
vn -0.3915 0.3653 0.8446
vn 0.1885 0.4537 0.8710
vn 0.7081 0.3661 0.6038
vn 0.6659 0.2767 0.6928
vn 0.6863 0.2040 0.6981
vn 0.7091 0.1903 0.6789
vn 0.7864 0.3789 0.4879
vn 0.8341 0.3643 0.4141
vn -0.5460 0.7624 0.3472
vn -0.7648 0.5335 -0.3611
vn -0.7394 0.5002 -0.4506
vn -0.5307 0.7896 0.3081
vn -0.7367 0.4034 0.5427
vn -0.9388 0.3413 -0.0475
vn -0.9242 0.3804 -0.0354
vn -0.7525 0.4377 0.4920
vn -0.6957 0.5593 0.4508
vn -0.8762 0.4756 -0.0783
vn -0.8136 0.5439 -0.2053
vn -0.6079 0.6919 0.3896
vn -0.1625 0.5381 0.8271
vn -0.3074 0.4436 0.8419
vn -0.3393 0.3488 0.8736
vn -0.3131 0.3260 0.8920
vn -0.0094 0.5320 0.8467
vn 0.0871 0.4944 0.8649
vn -0.5800 0.8123 -0.0608
vn -0.1406 0.7661 -0.6271
vn -0.0121 0.7361 -0.6767
vn -0.5616 0.8274 -0.0109
vn -0.8323 0.4555 -0.3160
vn -0.4972 0.4816 -0.7217
vn -0.5072 0.5186 -0.6883
vn -0.8341 0.4851 -0.2627
vn -0.7754 0.6043 -0.1832
vn -0.4713 0.6300 -0.6172
vn -0.3306 0.7416 -0.5838
vn -0.6688 0.7378 -0.0914
vn -0.7868 0.4441 0.4286
vn -0.8728 0.3924 0.2903
vn -0.9268 0.3093 0.2128
vn -0.9313 0.2782 0.2350
vn -0.7304 0.4186 0.5397
vn -0.7014 0.3764 0.6053
vn 0.3408 0.5467 -0.7648
vn 0.8351 0.4478 -0.3195
vn 0.8701 0.4418 -0.2187
vn 0.3234 0.5712 -0.7544
vn 0.3939 0.2183 -0.8929
vn 0.8251 0.1949 -0.5303
vn 0.8049 0.2300 -0.5471
vn 0.3954 0.2516 -0.8834
vn 0.3842 0.3637 -0.8486
vn 0.7710 0.3293 -0.5451
vn 0.7817 0.4180 -0.4628
vn 0.3548 0.4828 -0.8006
vn -0.1844 0.3805 -0.9062
vn -0.0982 0.2733 -0.9569
vn -0.1067 0.1865 -0.9766
vn -0.1417 0.1751 -0.9743
vn -0.3069 0.3929 -0.8669
vn -0.3856 0.3730 -0.8439
vn -0.0926 0.6911 -0.7168
vn 0.5912 0.6280 -0.5061
vn 0.6827 0.6114 -0.4002
vn -0.1305 0.7164 -0.6854
vn 0.0176 0.2637 -0.9644
vn 0.5202 0.2795 -0.8070
vn 0.4887 0.3192 -0.8119
vn -0.0298 0.3006 -0.9533
vn -0.0709 0.4384 -0.8960
vn 0.4461 0.4444 -0.7768
vn 0.4777 0.5807 -0.6593
vn -0.1041 0.5996 -0.7935
vn -0.6534 0.3750 -0.6576
vn -0.5625 0.2896 -0.7745
vn -0.5184 0.1881 -0.8342
vn -0.5432 0.1604 -0.8242
vn -0.7368 0.3762 -0.5618
vn -0.7900 0.3498 -0.5035
vn 0.6864 0.4251 0.5900
vn -0.0607 0.3444 0.9368
vn -0.1909 0.3346 0.9228
vn 0.6974 0.4657 0.5448
vn 0.6793 0.0891 0.7284
vn 0.2473 0.0832 0.9654
vn 0.2702 0.1038 0.9572
vn 0.7420 0.1155 0.6604
vn 0.7423 0.2055 0.6378
vn 0.2912 0.1921 0.9372
vn 0.1774 0.3052 0.9356
vn 0.7292 0.3361 0.5960
vn 0.9748 0.2195 -0.0400
vn 0.9812 0.1605 0.1075
vn 0.9766 0.0808 0.1994
vn 0.9835 0.0647 0.1690
vn 0.9596 0.2224 -0.1725
vn 0.9490 0.2147 -0.2310
vt 0.542513 0.643190
vt 0.503153 0.669319
vt 0.519783 0.466256
vt 0.647239 0.342015
vt 0.638207 0.427699
vt 0.322282 0.482554
vt 0.400237 0.418025
vt 0.354655 0.542588
vt 0.581313 0.561695
vt 0.392907 0.322045
vt 0.442514 0.562117
vt 0.708230 0.533183
vt 0.626663 0.304393
vt 0.680051 0.551888
vt 0.434653 0.294333
vt 0.521638 0.342698
vt 0.301087 0.931551
vt 0.294888 0.843026
vt 0.294339 0.843048
vt 0.300459 0.931576
vt 0.298297 0.649053
vt 0.297525 0.649084
vt 0.295972 0.598423
vt 0.296514 0.598401
vt 0.299251 0.649009
vt 0.297183 0.598375
vt 0.300023 0.648973
vt 0.297724 0.598354
vt 0.300318 0.648960
vt 0.297929 0.598346
vt 0.300023 0.648973
vt 0.297721 0.598354
vt 0.299251 0.649002
vt 0.297179 0.598375
vt 0.298297 0.649039
vt 0.296510 0.598402
vt 0.306407 0.931344
vt 0.299535 0.842845
vt 0.300084 0.842821
vt 0.307035 0.931320
vt 0.297526 0.649072
vt 0.295970 0.598423
vt 0.297231 0.649090
vt 0.295764 0.598431
vt 0.295512 0.587226
vt 0.294887 0.843025
vt 0.304763 0.931408
vt 0.298099 0.842901
vt 0.302731 0.931487
vt 0.296324 0.842970
vt 0.296324 0.842967
vt 0.298099 0.842895
vt 0.299535 0.842839
vt 0.291341 0.798689
vt 0.291843 0.798670
vt 0.290385 0.746270
vt 0.290823 0.746255
vt 0.294376 0.693663
vt 0.294741 0.693652
vt 0.293160 0.798618
vt 0.291971 0.746210
vt 0.295698 0.693614
vt 0.294786 0.798555
vt 0.293392 0.746152
vt 0.296884 0.693564
vt 0.296103 0.798503
vt 0.294543 0.746106
vt 0.297843 0.693523
vt 0.296605 0.798482
vt 0.294982 0.746087
vt 0.298209 0.693507
vt 0.296102 0.798499
vt 0.294544 0.746104
vt 0.297843 0.693522
vt 0.294786 0.798551
vt 0.293396 0.746148
vt 0.296887 0.693559
vt 0.293160 0.798616
vt 0.291975 0.746204
vt 0.295704 0.693605
vt 0.291843 0.798669
vt 0.290825 0.746251
vt 0.294744 0.693644
vt 0.118514 0.860807
vt 0.171855 0.862251
vt 0.134750 0.959001
vt 0.119335 0.959001
vt 0.115937 0.552632
vt 0.139194 0.552632
vt 0.180861 0.675108
vt 0.116961 0.675108
vt 0.117573 0.748255
vt 0.194133 0.748255
vt 0.188006 0.798703
vt 0.118005 0.799952
vt 0.118005 0.799952
vt 0.047216 0.799133
vt 0.044748 0.748255
vt 0.048134 0.675108
vt 0.104371 0.552632
vt 0.118514 0.860807
vt 0.062146 0.862234
vt 0.102557 0.959001
s 1
usemtl Leaves
f 26/17/17 84/18/18 38/19/19 17/20/20
f 48/21/21 43/22/22 27/23/23 29/24/24
f 53/25/25 48/21/21 29/24/24 30/26/26
f 58/27/27 53/25/25 30/26/26 31/28/28
f 63/29/29 58/27/27 31/28/28 32/30/30
f 68/31/31 63/29/29 32/30/30 33/32/32
f 73/33/33 68/31/31 33/32/32 34/34/34
f 78/35/35 73/33/33 34/34/34 35/36/36
f 21/37/37 59/38/38 64/39/39 22/40/40
f 83/41/41 78/35/35 35/36/36 36/42/42
f 39/43/43 83/41/41 36/42/42 28/44/44
f 32/30/30 31/28/28 37/45/45
f 17/20/20 38/19/19 44/46/46 18/17/47
f 20/47/48 54/48/49 59/38/38 21/37/37
f 19/49/50 49/50/51 54/48/49 20/47/48
f 18/17/47 44/46/46 49/50/51 19/49/50
f 25/49/52 79/51/53 84/18/18 26/17/17
f 24/47/54 74/52/55 79/51/53 25/49/52
f 23/37/56 69/53/57 74/52/55 24/47/54
f 22/40/40 64/39/39 69/53/57 23/37/56
f 29/24/24 27/23/23 37/45/45
f 36/42/42 35/36/36 37/45/45
f 33/32/32 32/30/30 37/45/45
f 30/26/26 29/24/24 37/45/45
f 28/44/44 36/42/42 37/45/45
f 34/34/34 33/32/32 37/45/45
f 31/28/28 30/26/26 37/45/45
f 27/23/23 28/44/44 37/45/45
f 35/36/36 34/34/34 37/45/45
f 44/46/46 38/19/19 40/54/58 47/55/59
f 47/55/59 40/54/58 41/56/60 46/57/61
f 46/57/61 41/56/60 42/58/62 45/59/63
f 45/59/63 42/58/62 39/43/43 43/22/22
f 49/50/51 44/46/46 47/55/59 52/60/64
f 52/60/64 47/55/59 46/57/61 51/61/65
f 51/61/65 46/57/61 45/59/63 50/62/66
f 50/62/66 45/59/63 43/22/22 48/21/21
f 54/48/49 49/50/51 52/60/64 57/63/67
f 57/63/67 52/60/64 51/61/65 56/64/68
f 56/64/68 51/61/65 50/62/66 55/65/69
f 55/65/69 50/62/66 48/21/21 53/25/25
f 59/38/38 54/48/49 57/63/67 62/66/70
f 62/66/70 57/63/67 56/64/68 61/67/71
f 61/67/71 56/64/68 55/65/69 60/68/72
f 60/68/72 55/65/69 53/25/25 58/27/27
f 64/39/39 59/38/38 62/66/70 67/69/73
f 67/69/73 62/66/70 61/67/71 66/70/74
f 66/70/74 61/67/71 60/68/72 65/71/75
f 65/71/75 60/68/72 58/27/27 63/29/29
f 69/53/57 64/39/39 67/69/73 72/72/76
f 72/72/76 67/69/73 66/70/74 71/73/77
f 71/73/77 66/70/74 65/71/75 70/74/78
f 70/74/78 65/71/75 63/29/29 68/31/31
f 74/52/55 69/53/57 72/72/76 77/75/79
f 77/75/79 72/72/76 71/73/77 76/76/80
f 76/76/80 71/73/77 70/74/78 75/77/81
f 75/77/81 70/74/78 68/31/31 73/33/33
f 79/51/53 74/52/55 77/75/79 82/78/82
f 82/78/82 77/75/79 76/76/80 81/79/83
f 81/79/83 76/76/80 75/77/81 80/80/84
f 80/80/84 75/77/81 73/33/33 78/35/35
f 84/18/18 79/51/53 82/78/82 87/81/85
f 87/81/85 82/78/82 81/79/83 86/82/86
f 86/82/86 81/79/83 80/80/84 85/83/87
f 85/83/87 80/80/84 78/35/35 83/41/41
f 38/19/19 84/18/18 87/81/85 40/54/58
f 40/54/58 87/81/85 86/82/86 41/56/60
f 41/56/60 86/82/86 85/83/87 42/58/62
f 42/58/62 85/83/87 83/41/41 39/43/43
f 43/22/22 39/43/43 28/44/44 27/23/23
f 102/84/88 104/85/89 94/86/90 93/87/91
f 91/88/92 98/89/93 99/90/94 97/91/95
f 89/92/96 90/93/97 105/94/98 103/95/99
f 103/96/99 100/97/100 95/98/101 89/92/96
f 97/91/95 99/90/94 90/93/97 89/92/96
f 97/91/95 96/99/102 88/100/103 91/88/92
f 95/98/101 96/99/102 97/91/95 89/92/96
f 104/85/89 102/84/88 103/95/99 105/94/98
f 102/101/88 101/102/104 100/97/100 103/96/99
f 93/87/91 92/103/105 101/102/104 102/101/88
f 120/84/106 122/85/107 112/86/108 111/87/109
f 109/88/110 116/89/111 117/90/112 115/91/113
f 107/92/114 108/93/115 123/94/116 121/95/117
f 121/96/117 118/97/118 113/98/119 107/92/114
f 115/91/113 117/90/112 108/93/115 107/92/114
f 115/91/113 114/99/120 106/100/121 109/88/110
f 113/98/119 114/99/120 115/91/113 107/92/114
f 122/85/107 120/84/106 121/95/117 123/94/116
f 120/101/106 119/102/122 118/97/118 121/96/117
f 111/87/109 110/103/123 119/102/122 120/101/106
f 138/84/124 140/85/125 130/86/126 129/87/127
f 127/88/128 134/89/129 135/90/130 133/91/131
f 125/92/132 126/93/133 141/94/134 139/95/135
f 139/96/135 136/97/136 131/98/137 125/92/132
f 133/91/131 135/90/130 126/93/133 125/92/132
f 133/91/131 132/99/138 124/100/139 127/88/128
f 131/98/137 132/99/138 133/91/131 125/92/132
f 140/85/125 138/84/124 139/95/135 141/94/134
f 138/101/124 137/102/140 136/97/136 139/96/135
f 129/87/127 128/103/141 137/102/140 138/101/124
f 156/84/142 158/85/143 148/86/144 147/87/145
f 145/88/146 152/89/147 153/90/148 151/91/149
f 143/92/150 144/93/151 159/94/152 157/95/153
f 157/96/153 154/97/154 149/98/155 143/92/150
f 151/91/149 153/90/148 144/93/151 143/92/150
f 151/91/149 150/99/156 142/100/157 145/88/146
f 149/98/155 150/99/156 151/91/149 143/92/150
f 158/85/143 156/84/142 157/95/153 159/94/152
f 156/101/142 155/102/158 154/97/154 157/96/153
f 147/87/145 146/103/159 155/102/158 156/101/142
f 174/84/160 176/85/161 166/86/162 165/87/163
f 163/88/164 170/89/165 171/90/166 169/91/167
f 161/92/168 162/93/169 177/94/170 175/95/171
f 175/96/171 172/97/172 167/98/173 161/92/168
f 169/91/167 171/90/166 162/93/169 161/92/168
f 169/91/167 168/99/174 160/100/175 163/88/164
f 167/98/173 168/99/174 169/91/167 161/92/168
f 176/85/161 174/84/160 175/95/171 177/94/170
f 174/101/160 173/102/176 172/97/172 175/96/171
f 165/87/163 164/103/177 173/102/176 174/101/160
f 192/84/178 194/85/179 184/86/180 183/87/181
f 181/88/182 188/89/183 189/90/184 187/91/185
f 179/92/186 180/93/187 195/94/188 193/95/189
f 193/96/189 190/97/190 185/98/191 179/92/186
f 187/91/185 189/90/184 180/93/187 179/92/186
f 187/91/185 186/99/192 178/100/193 181/88/182
f 185/98/191 186/99/192 187/91/185 179/92/186
f 194/85/179 192/84/178 193/95/189 195/94/188
f 192/101/178 191/102/194 190/97/190 193/96/189
f 183/87/181 182/103/195 191/102/194 192/101/178
f 210/84/196 212/85/197 202/86/198 201/87/199
f 199/88/200 206/89/201 207/90/202 205/91/203
f 197/92/204 198/93/205 213/94/206 211/95/207
f 211/96/207 208/97/208 203/98/209 197/92/204
f 205/91/203 207/90/202 198/93/205 197/92/204
f 205/91/203 204/99/210 196/100/211 199/88/200
f 203/98/209 204/99/210 205/91/203 197/92/204
f 212/85/197 210/84/196 211/95/207 213/94/206
f 210/101/196 209/102/212 208/97/208 211/96/207
f 201/87/199 200/103/213 209/102/212 210/101/196
usemtl Flowers
f 12/1/1 15/2/2 1/3/3
f 8/4/4 10/5/5 1/3/3
f 3/6/6 4/7/7 1/3/3
f 14/8/8 3/6/6 1/3/3
f 13/9/9 12/1/1 1/3/3
f 4/7/7 2/10/10 1/3/3
f 15/2/2 16/11/11 1/3/3
f 10/5/5 9/12/12 1/3/3
f 5/13/13 8/4/4 1/3/3
f 16/11/11 14/8/8 1/3/3
f 9/12/12 11/14/14 1/3/3
f 6/15/15 7/16/16 1/3/3
f 11/14/14 13/9/9 1/3/3
f 7/16/16 5/13/13 1/3/3
f 2/10/10 6/15/15 1/3/3
