# Blender 4.0.2
# www.blender.org
mtllib Pebble_Round_5.mtl
o Pebble_Round_5
v 0.202020 -0.001572 0.015961
v 0.191378 -0.001655 -0.029974
v 0.174458 0.072049 0.014492
v 0.183731 0.000043 0.067652
v 0.156157 0.083840 0.037333
v 0.163318 0.001087 0.112113
v 0.151129 -0.002810 0.032065
v 0.117581 -0.001187 0.090145
v 0.093922 -0.002041 -0.025578
v 0.134721 0.000598 -0.084925
v 0.056112 0.000256 0.078565
v 0.050895 -0.001021 -0.034331
v -0.001941 -0.000229 -0.043000
v 0.029053 0.000595 0.071223
v 0.040643 -0.000340 -0.183943
v 0.042078 0.085485 -0.137951
v 0.003460 -0.001037 -0.200999
v 0.010090 0.082191 -0.150325
v -0.050681 -0.000966 -0.190901
v -0.044419 0.096681 -0.135092
v -0.116699 -0.000692 -0.178731
v -0.059357 -0.000554 -0.046193
v -0.127828 -0.001173 -0.055401
v -0.059731 0.000264 0.003853
v -0.130205 -0.000159 -0.006022
v -0.047160 0.001141 0.050287
v -0.052173 0.000994 0.089796
v -0.030424 0.001248 0.050321
v -0.114920 0.000870 0.043766
v -0.172023 0.001179 0.065382
v -0.134233 0.000871 0.085787
v -0.083301 0.082362 0.061572
v -0.147378 0.000914 0.081946
v -0.123571 0.072041 0.063248
v -0.117600 0.083295 0.053964
v -0.148573 0.053407 0.055774
v -0.181184 0.069286 -0.043774
v -0.153668 0.092529 -0.038004
v -0.216574 -0.003899 -0.063915
v -0.168605 0.085556 -0.079151
v -0.158443 0.094345 -0.077716
v -0.138514 0.077665 -0.132616
v -0.212978 -0.004146 -0.107846
v -0.162199 -0.001942 -0.170341
v -0.103647 0.095168 -0.127212
v -0.005911 0.082522 0.065459
v 0.047031 0.095765 -0.122389
v 0.104221 0.094149 -0.053195
v 0.111744 0.076280 -0.060974
v 0.104492 0.087664 -0.039468
v 0.160140 0.082358 0.009049
v 0.003562 0.081037 0.072462
v 0.035098 0.076062 0.095991
v -0.035532 0.000990 0.092136
v 0.022381 0.000473 0.125643
v 0.050062 0.000230 0.141487
v 0.042189 0.069140 0.103363
v 0.092964 0.000262 0.145259
v 0.074725 0.068846 0.108508
v 0.117363 0.053387 0.108196
v 0.133821 0.000503 0.138096
v 0.135454 0.058655 0.088367
v 0.092340 0.073567 0.101065
v 0.171138 0.068342 -0.000375
vn 0.0306 -0.9993 0.0198
vn 0.9089 0.3476 -0.2304
vn 0.8580 0.3720 0.3543
vn 0.7616 0.4695 0.4466
vn 0.0334 -0.9985 0.0435
vn 0.0026 -0.9996 -0.0295
vn -0.0260 -0.9996 0.0127
vn 0.0107 -0.9998 -0.0143
vn -0.0222 -0.9997 0.0123
vn -0.0012 -1.0000 0.0004
vn -0.0159 -0.9998 0.0115
vn 0.6906 0.3630 -0.6255
vn 0.3256 0.4576 -0.8274
vn -0.1299 0.5099 -0.8504
vn 0.0025 -1.0000 0.0041
vn -0.1424 0.4909 -0.8595
vn 0.0026 -1.0000 -0.0001
vn 0.0047 -0.9999 0.0164
vn 0.0049 -0.9998 0.0186
vn 0.0028 -0.9998 0.0190
vn 0.0058 -0.9998 0.0175
vn 0.0027 -1.0000 -0.0010
vn 0.0034 -1.0000 -0.0046
vn 0.0167 -0.9995 0.0285
vn -0.0060 -1.0000 -0.0040
vn -0.0987 0.3138 0.9443
vn -0.0476 0.3111 0.9492
vn -0.5126 0.3738 0.7730
vn -0.1425 0.6737 0.7251
vn -0.6206 0.6680 0.4106
vn -0.6483 0.6896 0.3229
vn -0.8701 0.3821 0.3114
vn -0.6560 0.7465 0.1116
vn -0.8840 0.4591 -0.0875
vn -0.4163 0.8169 -0.3993
vn -0.7055 0.4860 -0.5159
vn 0.0292 -0.9995 0.0154
vn 0.0334 -0.9994 -0.0033
vn -0.1425 0.4723 -0.8699
vn 0.0237 0.9988 0.0428
vn 0.0217 0.9975 0.0670
vn 0.0028 0.9973 0.0732
vn -0.0238 0.9977 0.0636
vn 0.0915 0.8427 -0.5305
vn 0.6679 0.5103 -0.5418
vn 0.9329 0.3324 0.1386
vn 0.2076 0.9418 0.2646
vn 0.4587 0.8002 -0.3865
vn 0.0329 0.9942 0.1020
vn -0.4736 0.4055 0.7818
vn -0.2901 0.3912 0.8734
vn -0.0077 -1.0000 -0.0049
vn -0.4541 0.3908 0.8007
vn -0.0097 -1.0000 -0.0023
vn -0.1026 0.4606 0.8816
vn -0.0147 -0.9999 0.0082
vn 0.1903 0.5081 0.8400
vn 0.1444 0.5207 0.8414
vn 0.0244 -0.9993 0.0270
vn 0.5519 0.5330 0.6414
vn 0.4128 0.7328 0.5409
vn -0.0432 0.8002 0.5982
vn -0.0278 0.9968 0.0747
vn 0.6035 0.7927 -0.0861
vn 0.6574 0.4240 -0.6229
vt 0.085842 0.431243
vt 0.069097 0.440841
vt 0.046664 0.439801
vt 0.056778 0.422799
vt 0.461041 0.858453
vt 0.439280 0.848491
vt 0.461209 0.827505
vt 0.466793 0.829538
vt 0.477740 0.825216
vt 0.487838 0.858335
vt 0.500634 0.827728
vt 0.510646 0.853568
vt 0.026825 0.437050
vt 0.030053 0.416515
vt 0.072600 0.393575
vt 0.100695 0.402539
vt 0.027322 0.391055
vt 0.070951 0.375676
vt 0.128359 0.353975
vt 0.027002 0.379585
vt 0.068102 0.353945
vt 0.130648 0.337390
vt 0.028165 0.353811
vt 0.443630 0.799655
vt 0.413670 0.819259
vt 0.386687 0.757036
vt 0.424994 0.762268
vt 0.386595 0.736242
vt 0.423558 0.748794
vt 0.397296 0.711283
vt 0.436613 0.730097
vt 0.062569 0.331068
vt 0.120294 0.317372
vt 0.447380 0.709562
vt 0.414120 0.681990
vt 0.058087 0.303147
vt 0.107730 0.292943
vt 0.042913 0.336836
vt 0.038455 0.308055
vt 0.026202 0.347249
vt 0.020750 0.319931
vt 0.010129 0.349954
vt 0.002003 0.317332
vt 0.011178 0.356751
vt 0.050943 0.267347
vt 0.005529 0.300116
vt 0.001953 0.311728
vt 0.518622 0.738675
vt 0.523023 0.722494
vt 0.549445 0.708868
vt 0.551290 0.715453
vt 0.511523 0.768507
vt 0.551290 0.754816
vt 0.526148 0.709983
vt 0.543510 0.695296
vt 0.517725 0.724817
vt 0.486279 0.701387
vt 0.488734 0.687486
vt 0.491338 0.654045
vt 0.472510 0.695360
vt 0.473327 0.690151
vt 0.468754 0.650393
vt 0.450133 0.694503
vt 0.429260 0.663770
vt 0.068581 0.263568
vt 0.099067 0.276101
vt 0.431981 0.765079
vt 0.450122 0.794661
vt 0.454842 0.797297
vt 0.512759 0.773164
vt 0.467184 0.822448
vt 0.516274 0.789216
vt 0.550080 0.762496
vt 0.549381 0.793507
vt 0.004891 0.383402
vt 0.518851 0.793601
vt 0.547685 0.808518
vt 0.001953 0.396121
vt 0.539554 0.827627
vt 0.515417 0.806347
vt 0.005544 0.413377
vt 0.511179 0.824425
vt 0.509553 0.811434
vt 0.527086 0.843554
vt 0.013165 0.428548
s 0
usemtl PathRocks
f 2/1/1 1/2/1 4/3/1 7/4/1
f 1/5/2 2/6/2 64/7/2 3/8/2
f 3/8/3 5/9/3 4/10/3 1/5/3
f 4/10/4 5/9/4 62/11/4 6/12/4
f 7/4/5 4/3/5 6/13/5 8/14/5
f 7/4/6 9/15/6 10/16/6 2/1/6
f 11/17/7 9/15/7 7/4/7 8/14/7
f 9/15/8 12/18/8 15/19/8 10/16/8
f 12/18/9 9/15/9 11/17/9 14/20/9
f 12/18/10 13/21/10 17/22/10 15/19/10
f 14/20/11 28/23/11 13/21/11 12/18/11
f 49/24/12 10/25/12 15/26/12 16/27/12
f 16/27/13 15/26/13 17/28/13 18/29/13
f 19/30/14 20/31/14 18/29/14 17/28/14
f 17/22/15 13/21/15 22/32/15 19/33/15
f 45/34/16 20/31/16 19/30/16 21/35/16
f 22/32/17 23/36/17 21/37/17 19/33/17
f 22/32/18 13/21/18 24/38/18
f 25/39/19 23/36/19 22/32/19 24/38/19
f 25/39/20 24/38/20 26/40/20 29/41/20
f 24/38/21 13/21/21 28/23/21 26/40/21
f 27/42/22 31/43/22 29/41/22 26/40/22
f 27/42/23 26/40/23 28/23/23 54/44/23
f 39/45/24 25/39/24 29/41/24 30/46/24
f 29/41/25 31/43/25 33/47/25 30/46/25
f 32/48/26 34/49/26 33/50/26 31/51/26
f 46/52/27 32/48/27 31/51/27 27/53/27
f 33/50/28 34/49/28 36/54/28 30/55/28
f 32/48/29 35/56/29 34/49/29
f 34/49/30 35/56/30 36/54/30
f 36/54/31 35/56/31 38/57/31 37/58/31
f 37/58/32 39/59/32 30/55/32 36/54/32
f 37/58/33 38/57/33 41/60/33 40/61/33
f 40/61/34 43/62/34 39/59/34 37/58/34
f 40/61/35 41/60/35 45/34/35 42/63/35
f 43/62/36 40/61/36 42/63/36 44/64/36
f 23/36/37 25/39/37 39/45/37 43/65/37
f 21/37/38 23/36/38 43/65/38 44/66/38
f 21/35/39 44/64/39 42/63/39 45/34/39
f 41/60/40 38/57/40 45/34/40
f 38/57/41 35/56/41 20/31/41 45/34/41
f 47/67/42 20/31/42 35/56/42 32/48/42
f 47/67/43 32/48/43 46/52/43 48/68/43
f 18/29/44 20/31/44 47/67/44 16/27/44
f 47/67/45 48/68/45 49/24/45 16/27/45
f 50/69/46 49/24/46 48/68/46
f 48/68/47 46/52/47 52/70/47 50/69/47
f 51/71/48 64/7/48 49/24/48 50/69/48
f 53/72/49 51/71/49 50/69/49 52/70/49
f 53/72/50 52/70/50 54/73/50 55/74/50
f 52/70/51 46/52/51 27/53/51 54/73/51
f 55/75/52 54/44/52 28/23/52 14/20/52
f 57/76/53 53/72/53 55/74/53 56/77/53
f 55/75/54 14/20/54 11/17/54 56/78/54
f 58/79/55 59/80/55 57/76/55 56/77/55
f 56/78/56 11/17/56 8/14/56 58/81/56
f 60/82/57 63/83/57 59/80/57 58/79/57
f 58/79/58 61/84/58 60/82/58
f 8/14/59 6/13/59 61/85/59 58/81/59
f 62/11/60 60/82/60 61/84/60 6/12/60
f 62/11/61 5/9/61 63/83/61 60/82/61
f 57/76/62 59/80/62 63/83/62 53/72/62
f 53/72/63 63/83/63 5/9/63 51/71/63
f 51/71/64 5/9/64 3/8/64 64/7/64
f 49/24/65 64/7/65 2/6/65 10/25/65
