# Blender 4.0.2
# www.blender.org
mtllib Pebble_Square_3.mtl
o Pebble_Square_3
v 0.185174 -0.002430 0.149519
v 0.154575 0.142511 0.114837
v 0.186685 0.000545 0.044872
v -0.023571 -0.004246 0.152258
v -0.024881 0.144207 0.119042
v -0.045910 -0.004774 0.143494
v -0.047189 0.144705 0.113332
v -0.184717 -0.002358 0.139393
v -0.036642 -0.008118 0.071301
v -0.025521 -0.006754 -0.058899
v -0.186146 0.004370 0.078928
v -0.186652 0.003033 -0.007653
v -0.151571 0.146535 0.066360
v -0.152979 0.145836 0.006550
v -0.083852 0.149953 0.032316
v -0.149813 0.144383 0.108699
v -0.130222 0.148763 -0.083601
v -0.045948 0.150016 0.026362
v -0.008961 0.150815 -0.107019
v 0.151717 0.146612 0.047008
v 0.159871 0.114268 -0.132425
v 0.043295 0.148405 -0.103133
v 0.186524 0.003070 -0.156546
v -0.028709 0.132545 -0.136056
v -0.022248 0.003228 -0.166492
v -0.158191 0.101110 -0.142148
v -0.132402 0.130968 -0.126690
v -0.184267 0.000129 -0.164548
vn 0.0173 0.2272 0.9737
vn 0.9755 0.2200 0.0014
vn 0.0083 -0.9996 -0.0283
vn -0.3025 0.1958 0.9328
vn 0.0403 -0.9983 0.0412
vn -0.0336 0.2048 0.9782
vn -0.0520 -0.9982 -0.0285
vn 0.0395 -0.9992 -0.0104
vn -0.0722 -0.9974 -0.0037
vn -0.9725 0.2328 0.0095
vn -0.9693 0.2407 0.0508
vn -0.0617 0.9981 0.0060
vn -0.0110 0.9979 0.0633
vn -0.0135 0.9999 -0.0011
vn 0.0075 0.9981 0.0611
vn 0.0109 0.9981 0.0600
vn 0.0229 0.9997 0.0034
vn 0.9725 0.2327 0.0022
vn 0.2397 0.9573 -0.1617
vn 0.0876 0.8089 -0.5813
vn 0.0438 0.2267 -0.9730
vn -0.0127 0.2246 -0.9744
vn -0.0849 0.5149 -0.8530
vn -0.0768 0.9009 -0.4271
vn -0.7303 0.6573 -0.1861
vn -0.9698 0.2420 -0.0287
vn -0.0252 -0.9993 -0.0273
vn 0.0036 -0.9957 -0.0923
vt 0.502014 0.291816
vt 0.530911 0.353636
vt 0.586468 0.345757
vt 0.538628 0.244857
vt 0.473551 0.233741
vt 0.478715 0.296558
vt 0.332774 0.833021
vt 0.289945 0.831564
vt 0.284642 0.916852
vt 0.531247 0.362265
vt 0.587331 0.359624
vt 0.317498 0.923827
vt 0.287774 0.926163
vt 0.528809 0.401034
vt 0.577798 0.434540
vt 0.286478 0.983010
vt 0.311313 0.984956
vt 0.370915 0.921913
vt 0.415135 0.837139
vt 0.346729 0.986882
vt 0.516570 0.408673
vt 0.495348 0.415390
vt 0.506430 0.474478
vt 0.549687 0.453331
vt 0.499693 0.385204
vt 0.461818 0.413911
vt 0.494315 0.371912
vt 0.436882 0.372685
vt 0.433920 0.352485
vt 0.372692 0.287341
vt 0.410224 0.309904
vt 0.425149 0.384870
vt 0.372692 0.399890
vt 0.417549 0.472592
vt 0.441937 0.436837
vt 0.446566 0.421379
vt 0.415135 0.922713
vt 0.410954 0.988940
s 0
usemtl PathRocks
f 2/1/1 5/2/1 4/3/1 1/4/1
f 1/4/2 3/5/2 20/6/2 2/1/2
f 3/7/3 1/8/3 4/9/3
f 4/3/4 5/2/4 7/10/4 6/11/4
f 9/12/5 3/7/5 4/9/5 6/13/5
f 6/11/6 7/10/6 16/14/6 8/15/6
f 9/12/7 6/13/7 8/16/7 11/17/7
f 9/12/8 10/18/8 23/19/8 3/7/8
f 10/18/9 9/12/9 11/17/9 12/20/9
f 13/21/10 14/22/10 12/23/10 11/24/10
f 16/14/11 13/21/11 11/24/11 8/15/11
f 15/25/12 17/26/12 14/22/12 13/21/12
f 7/10/13 15/25/13 13/21/13 16/14/13
f 18/27/14 19/28/14 17/26/14 15/25/14
f 5/2/15 18/27/15 15/25/15 7/10/15
f 20/6/16 18/27/16 5/2/16 2/1/16
f 20/6/17 22/29/17 19/28/17 18/27/17
f 20/6/18 3/5/18 23/30/18 21/31/18
f 22/29/19 20/6/19 21/31/19
f 19/28/20 22/29/20 21/31/20 24/32/20
f 23/30/21 25/33/21 24/32/21 21/31/21
f 25/33/22 28/34/22 26/35/22 24/32/22
f 27/36/23 24/32/23 26/35/23
f 17/26/24 19/28/24 24/32/24 27/36/24
f 26/35/25 14/22/25 17/26/25 27/36/25
f 28/34/26 12/23/26 14/22/26 26/35/26
f 25/37/27 10/18/27 12/20/27 28/38/27
f 10/18/28 25/37/28 23/19/28
