# Blender 4.0.2
# www.blender.org
mtllib Pebble_Square_2.mtl
o Pebble_Square_2
v 0.188961 -0.001153 0.158373
v 0.190464 0.001114 0.041097
v 0.179969 0.041974 0.149055
v 0.061532 -0.000906 0.160865
v -0.155959 0.004993 0.157019
v 0.050486 0.101997 0.137049
v 0.040277 -0.005164 0.060208
v 0.078232 -0.005164 -0.006546
v -0.196251 0.002131 0.118158
v -0.125612 -0.005164 -0.051134
v -0.040157 -0.005164 -0.070133
v -0.154240 -0.003826 -0.119389
v -0.198855 -0.001077 0.030702
v -0.200632 0.000825 -0.118774
v -0.190154 0.039200 -0.103764
v -0.168745 0.116048 0.063644
v -0.049306 0.131553 0.005906
v -0.166540 0.125568 0.030812
v -0.170950 0.106528 0.096476
v -0.134458 0.099202 0.136597
v -0.155638 0.128667 -0.036132
v -0.060160 0.135280 -0.019265
v 0.116664 0.127477 -0.070360
v 0.158858 0.131197 0.077456
v -0.025286 0.130514 -0.065864
v -0.112225 0.130120 -0.067468
v -0.127851 0.102531 -0.095317
v -0.026915 0.103918 -0.095663
v -0.169923 0.075123 -0.101515
v -0.038342 -0.003052 -0.119231
v 0.082233 0.100294 -0.096296
v 0.091066 -0.002276 -0.119085
v 0.161742 0.106688 -0.090646
v 0.190098 0.001994 -0.114867
v 0.154079 0.126522 -0.058604
v 0.189994 0.003201 -0.081002
v 0.190302 0.001851 -0.005155
v 0.091538 -0.005164 -0.070795
v 0.163603 0.115521 0.095568
v 0.142365 0.109579 0.118367
v 0.145735 0.089350 0.139652
vn 0.0223 -0.9997 0.0071
vn 0.9757 0.2186 0.0121
vn 0.0163 0.2234 0.9746
vn -0.0218 -0.9979 0.0605
vn -0.0087 0.2194 0.9756
vn 0.0513 -0.9986 0.0107
vn -0.0000 -1.0000 -0.0000
vn -0.0213 -0.9992 0.0342
vn 0.0011 -0.9996 -0.0296
vn -0.0758 -0.9971 -0.0043
vn -0.9660 0.2580 0.0148
vn -0.9689 0.2472 0.0104
vn -0.9702 0.2419 0.0159
vn -0.0148 0.9729 0.2306
vn -0.0024 0.9748 0.2230
vn -0.0232 0.9716 0.2353
vn -0.6750 0.3018 0.6733
vn -0.8790 0.4526 -0.1501
vn -0.0704 0.9975 0.0073
vn -0.1530 0.8800 0.4496
vn 0.0185 0.9959 -0.0880
vn 0.0344 0.9988 -0.0350
vn -0.0026 0.9946 -0.1037
vn -0.4066 0.7498 -0.5220
vn -0.0023 0.7290 -0.6845
vn -0.0768 0.2056 -0.9756
vn -0.0030 0.2185 -0.9758
vn 0.0006 0.2160 -0.9764
vn 0.0048 0.7181 -0.6960
vn 0.0402 0.2279 -0.9729
vn 0.0607 0.7614 -0.6454
vn 0.9636 0.2657 0.0287
vn 0.9630 0.2681 -0.0273
vn 0.0727 -0.9973 -0.0029
vn 0.0632 -0.9978 -0.0207
vn 0.0029 -0.9987 -0.0512
vn 0.9708 0.2395 -0.0129
vn 0.5735 0.5811 0.5774
vn -0.0286 0.9707 0.2384
vn 0.0782 0.7288 0.6803
vn -0.0011 0.1939 0.9810
vn 0.0236 0.3586 -0.9332
vt 0.859287 0.109474
vt 0.900504 0.100732
vt 0.908397 0.162248
vt 0.860385 0.161637
vt 0.664989 0.665370
vt 0.606073 0.682680
vt 0.621554 0.636189
vt 0.652433 0.652226
vt 0.645455 0.595848
vt 0.687498 0.606245
vt 0.860688 0.020409
vt 0.876639 0.003918
vt 0.643656 0.522405
vt 0.678917 0.500077
vt 0.927840 0.116225
vt 0.927336 0.162181
vt 0.953814 0.067755
vt 0.946000 0.032797
vt 0.912460 0.002835
vt 0.973919 0.021033
vt 0.973927 0.068477
vt 0.973642 0.001953
vt 0.537966 0.466567
vt 0.612149 0.461220
vt 0.547373 0.481201
vt 0.615552 0.507542
vt 0.601997 0.510682
vt 0.656324 0.477595
vt 0.628668 0.508616
vt 0.590502 0.553676
vt 0.579919 0.549000
vt 0.576485 0.514506
vt 0.550510 0.497584
vt 0.562992 0.528803
vt 0.612865 0.633418
vt 0.559287 0.561584
vt 0.557278 0.616914
vt 0.561829 0.630722
vt 0.549893 0.518370
vt 0.541877 0.559498
vt 0.519860 0.486104
vt 0.497817 0.546790
vt 0.541419 0.605047
vt 0.497817 0.618609
vt 0.526442 0.669835
vt 0.549309 0.635014
vt 0.543786 0.678919
vt 0.581933 0.682429
vt 0.954131 0.121631
vt 0.958401 0.162042
vt 0.973927 0.121451
vt 0.972270 0.162033
vt 0.640601 0.632437
vt 0.631158 0.629079
s 0
usemtl PathRocks
f 4/1/1 7/2/1 2/3/1 1/4/1
f 1/5/2 2/6/2 39/7/2 3/8/2
f 6/9/3 4/10/3 1/5/3 3/8/3
f 4/1/4 5/11/4 9/12/4 7/2/4
f 20/13/5 5/14/5 4/10/5 6/9/5
f 7/2/6 8/15/6 37/16/6 2/3/6
s 1
f 11/17/7 8/15/7 7/2/7 10/18/7
s 0
f 13/19/8 10/18/8 7/2/8 9/12/8
f 11/17/9 10/18/9 12/20/9 30/21/9
f 10/18/10 13/19/10 14/22/10 12/20/10
f 14/23/11 13/24/11 15/25/11
f 13/24/12 16/26/12 18/27/12 15/25/12
f 13/24/13 9/28/13 19/29/13 16/26/13
f 17/30/14 16/26/14 6/9/14
f 16/26/15 17/30/15 22/31/15 18/27/15
f 20/13/16 6/9/16 16/26/16 19/29/16
f 9/28/17 5/14/17 20/13/17 19/29/17
f 21/32/18 29/33/18 15/25/18 18/27/18
f 22/31/19 26/34/19 21/32/19 18/27/19
f 39/7/20 24/35/20 22/31/20 17/30/20
f 25/36/21 22/31/21 23/37/21
f 24/35/22 35/38/22 23/37/22 22/31/22
f 22/31/23 25/36/23 26/34/23
f 26/34/24 27/39/24 29/33/24 21/32/24
f 25/36/25 28/40/25 27/39/25 26/34/25
f 15/25/26 29/33/26 27/39/26 12/41/26
f 28/40/27 30/42/27 12/41/27 27/39/27
f 31/43/28 32/44/28 30/42/28 28/40/28
f 23/37/29 31/43/29 28/40/29 25/36/29
f 34/45/30 32/44/30 31/43/30 33/46/30
f 35/38/31 33/46/31 31/43/31 23/37/31
f 35/38/32 36/47/32 34/45/32 33/46/32
f 37/48/33 36/47/33 35/38/33 24/35/33
f 8/15/34 38/49/34 36/50/34 37/16/34
f 38/49/35 32/51/35 34/52/35 36/50/35
s 1
f 38/49/7 8/15/7 11/17/7
s 0
f 38/49/36 11/17/36 30/21/36 32/51/36
f 39/7/37 2/6/37 37/48/37 24/35/37
f 41/53/38 3/8/38 39/7/38 40/54/38
f 6/9/39 40/54/39 39/7/39 17/30/39
f 6/9/40 41/53/40 40/54/40
f 3/8/41 41/53/41 6/9/41
f 12/41/42 14/23/42 15/25/42
