# Blender 4.0.2
# www.blender.org
mtllib Pebble_Square_4.mtl
o Pebble_Square_4
v 0.128901 0.162367 0.044815
v 0.167178 -0.002776 0.070991
v 0.105990 0.162124 0.093372
v 0.035379 0.165515 0.029188
v 0.127868 0.163022 -0.011070
v 0.168134 -0.002776 0.001818
v 0.131626 0.142291 -0.121103
v 0.010133 0.164625 -0.046348
v -0.135074 0.161239 -0.079510
v 0.002202 0.159150 -0.121852
v 0.018321 0.149232 -0.124948
v 0.046686 -0.002776 -0.157671
v -0.143947 -0.002776 -0.156470
v -0.062594 0.158049 -0.121320
v -0.167984 -0.002776 -0.137981
v -0.171220 -0.002776 0.050735
v -0.132524 0.161826 0.045108
v -0.156309 -0.002776 0.133155
v -0.142119 0.111797 0.103361
v 0.064752 -0.002776 0.133036
v 0.025381 0.132911 0.104581
v 0.132203 -0.002776 0.127704
v -0.145272 0.085440 0.114685
v 0.022909 0.162043 0.091019
v -0.099347 0.161499 0.084525
v 0.168723 -0.002776 -0.149821
vn 0.9730 0.2310 0.0006
vn 0.8479 0.2513 0.4668
vn 0.0135 0.9992 0.0379
vn 0.0241 0.9997 -0.0066
vn 0.9704 0.2416 -0.0030
vn 0.0673 0.9807 -0.1835
vn -0.0224 0.9997 -0.0043
vn -0.0091 0.9969 -0.0786
vn 0.5044 0.8557 -0.1150
vn -0.0062 0.2093 -0.9778
vn 0.0548 0.2138 -0.9753
vn -0.0191 0.2255 -0.9741
vn -0.4775 0.3943 -0.7852
vn -0.0000 -1.0000 -0.0000
vn -0.9770 0.2133 -0.0025
vn -0.9725 0.2299 0.0373
vn -0.9720 0.1641 0.1680
vn 0.0007 0.2052 0.9787
vn 0.0658 0.2178 0.9738
vn -0.0261 0.4201 0.9071
vn -0.0582 0.4091 0.9106
vn -0.0505 0.3917 0.9187
vn -0.0133 0.9991 0.0402
vn -0.5657 0.6693 0.4817
vt 0.229573 0.330775
vt 0.214403 0.262864
vt 0.244512 0.260423
vt 0.252743 0.328669
vt 0.208594 0.339193
vt 0.186765 0.270136
vt 0.236701 0.366077
vt 0.212661 0.375110
vt 0.268151 0.372010
vt 0.309031 0.259234
vt 0.300781 0.322130
vt 0.301802 0.368091
vt 0.284375 0.425403
vt 0.241364 0.435851
vt 0.298405 0.374677
vt 0.296900 0.399163
vt 0.364138 0.362795
vt 0.351846 0.446775
vt 0.364138 0.310368
vt 0.345236 0.459524
vt 0.160811 0.858882
vt 0.238042 0.860248
vt 0.245603 0.870089
vt 0.246053 0.948105
vt 0.266338 0.503950
vt 0.225742 0.460296
vt 0.127078 0.955435
vt 0.127078 0.864966
vt 0.231179 0.511823
vt 0.225252 0.472682
vt 0.180755 0.997773
vt 0.199839 0.376370
vt 0.194979 0.451525
vt 0.159621 0.463598
vt 0.140666 0.371419
vt 0.136346 0.343519
vt 0.152447 0.997366
vt 0.129245 0.983040
vt 0.206323 0.448011
vt 0.223943 0.426316
vt 0.242813 0.998047
s 0
usemtl PathRocks
f 1/1/1 2/2/1 6/3/1 5/4/1
f 2/2/2 1/1/2 3/5/2 22/6/2
f 1/1/3 4/7/3 24/8/3 3/5/3
f 8/9/4 4/7/4 1/1/4 5/4/4
f 5/4/5 6/3/5 26/10/5 7/11/5
f 5/4/6 7/11/6 11/12/6 8/9/6
f 8/9/7 9/13/7 17/14/7 4/7/7
f 10/15/8 14/16/8 9/13/8 8/9/8
f 8/9/9 11/12/9 10/15/9
f 12/17/10 13/18/10 11/12/10
f 7/11/11 26/19/11 12/17/11 11/12/11
f 11/12/12 13/18/12 14/16/12 10/15/12
f 9/13/13 14/16/13 13/18/13 15/20/13
s 1
f 16/21/14 15/22/14 13/23/14
f 13/23/14 12/24/14 16/21/14
s 0
f 17/14/15 9/13/15 15/20/15 16/25/15
f 19/26/16 17/14/16 16/25/16
s 1
f 20/27/14 18/28/14 16/21/14
s 0
f 16/25/17 18/29/17 23/30/17 19/26/17
s 1
f 6/31/14 20/27/14 16/21/14 12/24/14
s 0
f 21/32/18 23/33/18 18/34/18 20/35/18
f 21/32/19 20/35/19 22/36/19 3/5/19
s 1
f 2/37/14 22/38/14 20/27/14
f 20/27/14 6/31/14 2/37/14
s 0
f 21/32/20 3/5/20 24/8/20
f 24/8/21 19/39/21 23/33/21 21/32/21
f 19/39/22 24/8/22 25/40/22
f 4/7/23 17/14/23 25/40/23 24/8/23
f 19/26/24 25/40/24 17/14/24
s 1
f 12/24/14 26/41/14 6/31/14
