# Blender 4.0.2
# www.blender.org
mtllib Pebble_Square_6.mtl
o Pebble_Square_6
v 0.247006 -0.010146 0.140695
v 0.244690 -0.004997 -0.115772
v 0.225470 0.074736 0.124474
v -0.046232 -0.003513 0.142301
v -0.061269 -0.003930 0.138845
v -0.018621 0.078318 0.124707
v 0.117994 -0.001273 -0.120002
v 0.029004 -0.003632 -0.120621
v 0.027189 0.050742 -0.106422
v -0.215022 -0.003113 -0.117412
v -0.197524 0.042799 -0.108344
v -0.210627 -0.003694 0.001503
v -0.209186 -0.005548 0.105799
v -0.190333 0.071933 0.088057
v -0.197247 0.054365 0.002712
v -0.180642 0.121937 0.061160
v -0.138204 0.119118 0.086380
v -0.032125 0.077810 0.120589
v -0.016630 0.121533 0.111798
v -0.000765 0.121606 0.115325
v -0.013087 0.127206 -0.017300
v -0.025259 0.120923 -0.035955
v 0.025873 0.127629 -0.085082
v -0.181006 0.125281 -0.008988
v -0.184263 0.115825 -0.035197
v -0.176598 0.097210 -0.093857
v -0.011954 0.101686 -0.093028
v 0.131561 0.053964 -0.105581
v 0.104150 0.125723 -0.083030
v 0.211277 0.051454 -0.106206
v 0.143994 0.119117 -0.079447
v 0.209936 0.077999 -0.090668
v 0.160937 0.121983 0.116711
v 0.203937 0.098861 0.123206
v 0.223576 0.070359 -0.081349
vn -0.0245 -0.9995 -0.0219
vn 0.9661 0.2581 -0.0084
vn 0.0071 0.1985 0.9801
vn 0.0259 -0.9996 0.0079
vn -0.2542 0.2904 0.9225
vn 0.0264 -0.9996 0.0080
vn -0.0000 0.2526 -0.9676
vn -0.0063 0.2269 -0.9739
vn 0.0032 -1.0000 -0.0051
vn -0.9588 0.2842 0.0059
vn -0.9720 0.2340 0.0234
vn -0.2078 0.2749 0.9387
vn -0.9757 0.2175 0.0258
vn -0.4205 0.4917 0.7625
vn -0.2032 0.2599 0.9440
vn -0.2466 0.2878 0.9254
vn -0.0288 0.9987 0.0431
vn -0.0143 0.9990 0.0435
vn -0.0293 0.9463 -0.3219
vn -0.4000 0.8667 -0.2981
vn 0.0318 0.9989 0.0342
vn -0.0010 0.9979 0.0649
vn -0.9791 0.2032 -0.0059
vn -0.8818 0.4039 -0.2434
vn -0.0280 0.9486 -0.3153
vn -0.0013 0.2556 -0.9668
vn 0.0047 0.2675 -0.9635
vn 0.0171 0.3057 -0.9520
vn 0.1639 0.4994 -0.8507
vn 0.0306 0.9995 0.0100
vn 0.5049 0.8609 -0.0633
vn -0.0089 0.2551 0.9669
vn 0.7465 0.6651 -0.0210
vn -0.0077 0.1556 0.9878
vn 0.5227 0.8498 -0.0682
vn 0.6131 0.4526 -0.6475
vn 0.0235 0.2139 -0.9766
vt 0.875652 0.376522
vt 0.980635 0.376102
vt 0.980635 0.496141
vt 0.873630 0.428384
vt 0.689556 0.227151
vt 0.555471 0.254197
vt 0.575697 0.219607
vt 0.660270 0.203304
vt 0.689556 0.077449
vt 0.658667 0.098183
vt 0.979189 0.502290
vt 0.873190 0.464813
vt 0.685739 0.068731
vt 0.656230 0.092424
vt 0.520973 0.194311
vt 0.507085 0.151427
vt 0.530125 0.146516
vt 0.546558 0.191455
vt 0.509631 0.031416
vt 0.527963 0.044448
vt 0.965366 0.562761
vt 0.874002 0.564686
vt 0.571326 0.001953
vt 0.577486 0.023623
vt 0.633159 0.003566
vt 0.619544 0.032938
vt 0.578956 0.052012
vt 0.604118 0.048548
vt 0.616300 0.061599
vt 0.640378 0.104298
vt 0.641866 0.109924
vt 0.585192 0.118122
vt 0.575988 0.115068
vt 0.568413 0.053613
vt 0.560930 0.139394
vt 0.549692 0.125503
vt 0.570188 0.167949
vt 0.546714 0.059758
vt 0.560248 0.223251
vt 0.570613 0.214402
vt 0.573819 0.182902
vt 0.644437 0.175430
vt 0.652906 0.192376
s 0
usemtl PathRocks
f 2/1/1 1/2/1 4/3/1 7/4/1
f 1/5/2 2/6/2 35/7/2 3/8/2
f 4/9/3 1/5/3 3/8/3 6/10/3
f 4/3/4 5/11/4 8/12/4
f 5/13/5 4/9/5 6/10/5 18/14/5
f 7/4/6 4/3/6 8/12/6
f 7/15/7 8/16/7 9/17/7 28/18/7
f 8/16/8 10/19/8 11/20/8 9/17/8
f 13/21/9 10/22/9 8/12/9 5/11/9
f 12/23/10 15/24/10 11/20/10 10/19/10
f 12/23/11 13/25/11 14/26/11 15/24/11
f 13/25/12 5/13/12 18/14/12 14/26/12
f 24/27/13 15/24/13 14/26/13 16/28/13
f 14/26/14 17/29/14 16/28/14
f 18/14/15 19/30/15 17/29/15 14/26/15
f 6/10/16 20/31/16 19/30/16 18/14/16
f 19/30/17 21/32/17 17/29/17
f 19/30/18 20/31/18 21/32/18
f 21/32/19 22/33/19 25/34/19 24/27/19
f 22/33/20 21/32/20 23/35/20 27/36/20
f 20/31/21 29/37/21 23/35/21 21/32/21
f 17/29/22 21/32/22 24/27/22 16/28/22
f 15/24/23 24/27/23 25/34/23 11/20/23
f 11/20/24 25/34/24 26/38/24
f 25/34/25 22/33/25 27/36/25 26/38/25
f 27/36/26 9/17/26 11/20/26 26/38/26
f 23/35/27 28/18/27 9/17/27 27/36/27
f 28/18/28 23/35/28 29/37/28 30/39/28
f 32/40/29 30/39/29 29/37/29 31/41/29
f 33/42/30 31/41/30 29/37/30 20/31/30
f 31/41/31 33/42/31 34/43/31 32/40/31
f 34/43/32 33/42/32 20/31/32
f 34/43/33 3/8/33 35/7/33
f 20/31/34 6/10/34 3/8/34 34/43/34
f 35/7/35 32/40/35 34/43/35
f 35/7/36 2/6/36 30/39/36 32/40/36
f 2/6/37 7/15/37 28/18/37 30/39/37
