# Blender 4.0.2
# www.blender.org
mtllib Pebble_Round_1.mtl
o Pebble_Round_1
v 0.262863 0.034398 -0.020270
v 0.280230 -0.002291 -0.015481
v 0.251363 0.034626 -0.048008
v 0.253946 0.043852 -0.034175
v 0.233054 0.062341 0.033729
v 0.229210 0.066478 -0.016556
v 0.258316 -0.002307 0.043736
v 0.197903 0.078442 0.071524
v 0.230672 -0.002393 0.101419
v 0.178101 0.087679 -0.027277
v 0.177202 0.055638 0.120261
v 0.159226 0.077297 0.091249
v 0.099372 0.069794 0.147592
v 0.062708 0.083730 -0.036067
v 0.053914 0.077965 0.058900
v 0.032622 0.076386 0.079958
v 0.002188 0.084793 -0.020924
v -0.058916 0.073753 -0.114306
v -0.109325 0.087154 -0.079842
v -0.149251 0.083068 -0.056959
v -0.033151 0.081080 0.011453
v -0.153546 0.082661 -0.034704
v -0.103994 0.074152 0.109591
v -0.117780 0.040021 0.137533
v -0.177193 0.071672 0.084937
v -0.032434 0.072559 0.142290
v -0.048711 0.043393 0.165232
v 0.039993 0.068761 0.174222
v 0.021350 0.043939 0.192094
v 0.108303 -0.003513 0.174603
v 0.027293 -0.007798 0.207410
v -0.026123 0.018877 0.195485
v -0.029706 -0.007342 0.205383
v -0.123518 -0.005867 0.154590
v 0.071013 -0.003931 -0.086482
v 0.054456 0.068653 -0.058875
v -0.032930 -0.003025 -0.140343
v 0.189953 -0.001868 -0.081501
v 0.197367 0.001157 0.137833
v 0.177792 0.071046 -0.051486
v 0.225865 -0.003036 -0.080476
v 0.263769 -0.003629 -0.060306
v 0.216489 0.033858 -0.065604
v 0.227410 0.045855 -0.055512
v 0.190903 0.075938 -0.044834
v 0.216499 0.057271 -0.049962
v -0.089587 0.000100 -0.159613
v -0.219809 -0.001972 0.063819
v -0.122275 -0.000605 -0.155746
v -0.113942 0.072138 -0.126801
v -0.169210 -0.003163 -0.148693
v -0.211317 -0.005114 -0.072300
v -0.189873 0.051158 -0.063151
v -0.209022 -0.004395 -0.091439
v -0.185852 0.053161 -0.077368
v -0.205201 -0.004258 -0.111477
v -0.179784 0.058425 -0.088433
v -0.199800 -0.006545 -0.129076
v -0.167027 0.066368 -0.103565
v -0.140827 0.068566 -0.121569
v -0.148411 0.082415 -0.090189
v -0.125723 0.084986 -0.101547
v -0.145893 0.083384 -0.072189
v -0.110110 0.080903 -0.116136
v -0.201909 0.051549 0.051884
v -0.188397 0.065792 0.066412
v -0.209629 -0.004769 0.094058
v -0.178289 0.046532 0.105256
v -0.191146 -0.000933 0.119455
v -0.091730 0.056206 -0.136730
vn 0.8647 0.4068 0.2947
vn 0.8625 0.3765 -0.3381
vn 0.8827 0.2979 -0.3635
vn 0.6908 0.7229 0.0157
vn 0.4017 0.9156 0.0184
vn 0.7843 0.4343 0.4430
vn 0.6967 0.4644 0.5468
vn -0.0270 0.9962 0.0829
vn 0.2790 0.8443 0.4574
vn -0.0161 0.9949 0.0999
vn 0.0041 0.9981 0.0610
vn -0.0115 0.9962 0.0865
vn 0.1282 0.9732 -0.1909
vn 0.0972 0.9570 -0.2732
vn -0.0442 0.9940 0.1004
vn -0.0191 0.9979 0.0614
vn -0.0299 0.9972 0.0691
vn -0.0022 0.9979 0.0650
vn -0.2966 0.6800 0.6706
vn -0.2820 0.6474 0.7081
vn -0.2646 0.6846 0.6792
vn 0.0177 0.9967 0.0792
vn 0.3714 0.3555 0.8577
vn 0.3440 0.3026 0.8889
vn -0.0596 0.3056 0.9503
vn -0.3021 0.6176 0.7261
vn -0.4377 0.3639 0.8222
vn -0.0075 -0.9999 -0.0143
vn -0.0055 -0.9999 -0.0124
vn 0.0404 0.3748 -0.9262
vn 0.4188 0.4102 -0.8101
vn -0.0069 -0.9999 0.0140
vn 0.0505 -0.9987 -0.0056
vn 0.0501 -0.9987 -0.0056
vn 0.3505 0.3787 0.8566
vn 0.0356 0.3841 -0.9226
vn -0.0136 -0.9999 0.0039
vn -0.0391 -0.9983 0.0442
vn 0.4186 0.4136 -0.8085
vn 0.0097 -0.9999 0.0033
vn 0.4195 0.3296 -0.8458
vn 0.2097 0.5431 -0.8131
vn 0.2153 0.5343 -0.8174
vn 0.4533 0.8247 -0.3382
vn -0.0204 0.8242 -0.5660
vn 0.4815 0.6953 -0.5336
vn 0.4525 0.8006 -0.3928
vn 0.0160 0.8276 -0.5611
vn 0.3374 0.3873 -0.8580
vn 0.0017 -0.9863 -0.1651
vn -0.0243 -0.9996 -0.0171
vn 0.0112 -0.9999 -0.0012
vn -0.1266 0.3754 -0.9182
vn -0.1827 0.3957 -0.9000
vn 0.0418 -0.9991 -0.0025
vn -0.9116 0.3861 -0.1411
vn -0.9389 0.3344 -0.0814
vn -0.8830 0.4209 -0.2077
vn 0.0291 -0.9996 -0.0012
vn -0.8021 0.4742 -0.3630
vn 0.2301 -0.9535 0.1945
vn -0.5174 0.4772 -0.7103
vn -0.6080 0.7936 -0.0208
vn -0.3492 0.8232 -0.4477
vn -0.1140 0.9932 -0.0242
vn -0.5989 0.7995 -0.0450
vn -0.2354 0.8175 -0.5257
vn 0.0966 0.9805 -0.1710
vn 0.1401 0.6935 -0.7067
vn -0.6073 0.7898 -0.0863
vn -0.6360 0.7676 -0.0794
vn -0.8536 0.3821 0.3541
vn -0.8208 0.3973 0.4105
vn -0.4543 0.8908 -0.0080
vn 0.5121 -0.8222 -0.2485
vn -0.7784 0.3639 0.5115
vn -0.4085 0.3619 0.8379
vn -0.1118 -0.9908 0.0761
vt 0.724822 0.681198
vt 0.728302 0.665321
vt 0.753090 0.655576
vt 0.755740 0.684342
vt 0.705361 0.668594
vt 0.717607 0.658001
vt 0.724421 0.658606
vt 0.734361 0.648285
vt 0.734865 0.626937
vt 0.771128 0.644664
vt 0.785675 0.678420
vt 0.793172 0.644922
vt 0.806354 0.666155
vt 0.782394 0.632521
vt 0.739676 0.580968
vt 0.811062 0.616175
vt 0.779861 0.588806
vt 0.790745 0.583076
vt 0.753313 0.559945
vt 0.771280 0.550685
vt 0.726959 0.522241
vt 0.735520 0.504121
vt 0.748150 0.510067
vt 0.728637 0.574721
vt 0.762168 0.498240
vt 0.756308 0.497686
vt 0.770614 0.499180
vt 0.816767 0.505048
vt 0.819058 0.534109
vt 0.823111 0.564936
vt 0.838224 0.529650
vt 0.839477 0.560921
vt 0.828197 0.503224
vt 0.840591 0.591759
vt 0.827175 0.595963
vt 0.837809 0.634802
vt 0.860169 0.599911
vt 0.853299 0.573545
vt 0.865181 0.573318
vt 0.857669 0.525904
vt 0.136086 0.762353
vt 0.140952 0.785182
vt 0.015061 0.774248
vt 0.004021 0.820871
vt 0.130119 0.827480
vt 0.723353 0.625480
vt 0.692455 0.632374
vt 0.694695 0.576870
vt 0.692455 0.523075
vt 0.005139 0.726544
vt 0.073659 0.692095
vt 0.091488 0.701692
vt 0.114975 0.733425
vt 0.709987 0.642789
vt 0.695274 0.650274
vt 0.048005 0.686889
vt 0.001953 0.712182
vt 0.006159 0.695119
vt 0.022314 0.684110
vt 0.717055 0.646564
vt 0.721206 0.641736
vt 0.726582 0.630823
vt 0.701158 0.494330
vt 0.721880 0.505131
vt 0.006788 0.857885
vt 0.001953 0.845308
vt 0.103654 0.874756
vt 0.048772 0.884993
vt 0.709588 0.480744
vt 0.731585 0.500373
vt 0.737759 0.491404
vt 0.723477 0.463237
vt 0.014253 0.875847
vt 0.040939 0.885975
vt 0.765219 0.476897
vt 0.759493 0.477413
vt 0.755618 0.452507
vt 0.765005 0.452476
vt 0.809791 0.488928
vt 0.824624 0.469910
vt 0.754740 0.479865
vt 0.745888 0.452855
vt 0.032604 0.886447
vt 0.747986 0.484480
vt 0.737222 0.453301
vt 0.025016 0.886203
vt 0.750188 0.494697
vt 0.743235 0.501190
vt 0.812119 0.497950
vt 0.837096 0.478893
vt 0.122943 0.857899
vt 0.114931 0.868073
vt 0.845522 0.492084
s 0
usemtl PathRocks
f 2/1/1 1/2/1 5/3/1 7/4/1
f 1/2/2 2/1/2 42/5/2 3/6/2
f 3/6/3 4/7/3 1/2/3
f 6/8/4 5/3/4 1/2/4 4/7/4
f 5/3/5 6/8/5 10/9/5 8/10/5
f 5/3/6 8/10/6 9/11/6 7/4/6
f 8/10/7 11/12/7 39/13/7 9/11/7
f 12/14/8 8/10/8 10/9/8 14/15/8
f 13/16/9 11/12/9 8/10/9 12/14/9
f 15/17/10 16/18/10 13/16/10 12/14/10
f 12/14/11 14/15/11 17/19/11 15/17/11
f 17/19/12 21/20/12 16/18/12 15/17/12
f 17/19/13 18/21/13 64/22/13 19/23/13
f 14/15/14 36/24/14 18/21/14 17/19/14
f 20/25/15 17/19/15 19/23/15 63/26/15
f 22/27/16 21/20/16 17/19/16 20/25/16
f 22/27/17 25/28/17 23/29/17 21/20/17
f 21/20/18 23/29/18 26/30/18 16/18/18
f 23/29/19 24/31/19 27/32/19 26/30/19
f 68/33/20 24/31/20 23/29/20 25/28/20
f 26/30/21 27/32/21 29/34/21 28/35/21
f 16/18/22 26/30/22 28/35/22 13/16/22
f 13/16/23 28/35/23 29/34/23 30/36/23
f 29/34/24 31/37/24 30/36/24
f 31/37/25 29/34/25 32/38/25 33/39/25
f 29/34/26 27/32/26 24/31/26 32/38/26
f 32/38/27 24/31/27 34/40/27 33/39/27
f 31/41/28 33/42/28 35/43/28
f 37/44/29 35/43/29 33/42/29 34/45/29
f 36/24/30 40/46/30 38/47/30 35/48/30
f 18/21/31 36/24/31 35/48/31 37/49/31
f 38/50/32 9/51/32 39/52/32 35/43/32
f 30/53/33 31/41/33 35/43/33
f 39/52/34 30/53/34 35/43/34
f 11/12/35 13/16/35 30/36/35 39/13/35
f 40/46/36 43/54/36 41/55/36 38/47/36
f 7/56/37 9/51/37 38/50/37 41/57/37
f 42/58/38 2/59/38 41/57/38
f 42/5/39 41/55/39 43/54/39 3/6/39
f 2/59/40 7/56/40 41/57/40
f 43/54/41 44/60/41 3/6/41
f 46/61/42 44/60/42 43/54/42 45/62/42
f 45/62/43 43/54/43 40/46/43
f 46/61/44 45/62/44 10/9/44 6/8/44
f 45/62/45 40/46/45 10/9/45
f 44/60/46 46/61/46 4/7/46 3/6/46
f 6/8/47 4/7/47 46/61/47
f 10/9/48 40/46/48 36/24/48 14/15/48
f 47/63/49 70/64/49 18/21/49 37/49/49
f 49/65/50 47/66/50 37/44/50
f 34/45/51 48/67/51 37/44/51
f 52/68/52 49/65/52 37/44/52 48/67/52
f 49/69/53 50/70/53 70/64/53 47/63/53
f 60/71/54 50/70/54 49/69/54 51/72/54
f 51/73/55 49/65/55 52/68/55 54/74/55
f 53/75/56 55/76/56 54/77/56 52/78/56
f 65/79/57 53/75/57 52/78/57 48/80/57
f 54/77/58 55/76/58 57/81/58 56/82/58
f 54/74/59 56/83/59 51/73/59
f 57/81/60 59/84/60 58/85/60 56/82/60
f 56/83/61 58/86/61 51/73/61
f 59/84/62 60/71/62 51/72/62 58/85/62
f 57/81/63 63/26/63 61/87/63 59/84/63
f 62/88/64 60/71/64 59/84/64 61/87/64
f 61/87/65 63/26/65 19/23/65 62/88/65
f 55/76/66 20/25/66 63/26/66 57/81/66
f 62/88/67 64/22/67 50/70/67 60/71/67
f 19/23/68 64/22/68 62/88/68
f 50/70/69 64/22/69 18/21/69 70/64/69
f 53/75/70 22/27/70 20/25/70 55/76/70
f 53/75/71 65/79/71 66/89/71 22/27/71
f 67/90/72 66/89/72 65/79/72 48/80/72
f 68/33/73 25/28/73 66/89/73 67/90/73
f 22/27/74 66/89/74 25/28/74
f 69/91/75 67/92/75 48/67/75
f 67/90/76 69/93/76 68/33/76
f 34/40/77 24/31/77 68/33/77 69/93/77
f 34/45/78 69/91/78 48/67/78
