# Blender 4.0.2
# www.blender.org
mtllib Petal_4.mtl
o Petal_4
v -0.055712 0.196243 0.068515
v 0.099551 0.245792 0.114060
v 0.049099 0.196915 0.081761
v 0.043990 0.041693 -0.047364
v -0.032038 0.250219 -0.122296
v 0.072666 0.041013 -0.006500
v 0.121471 0.200308 -0.008631
v 0.185698 0.249885 0.007332
v -0.032430 0.200096 -0.072294
v 0.029702 0.039395 0.053858
v -0.088137 0.197483 0.010435
v -0.041622 0.038904 0.044706
v -0.105293 0.244091 0.099953
v -0.065542 0.039528 0.005706
v 0.080838 0.201437 -0.069198
v -0.028826 0.041157 -0.050184
v 0.000000 -0.000000 0.000000
v -0.125261 0.246461 -0.003924
v -0.066919 0.249109 -0.092327
v 0.177750 0.250754 -0.028584
v 0.049454 0.244913 0.122156
v -0.063273 0.244148 0.108037
v 0.103806 0.252056 -0.119073
v -0.143395 0.245568 0.031451
v 0.133266 0.251858 -0.093315
vn 0.3959 -0.5208 -0.7563
vn -0.0148 -0.9997 -0.0170
vn -0.4095 -0.4667 -0.7839
vn -0.4827 -0.5086 0.7130
vn 0.3344 -0.5191 0.7866
vn 0.3096 -0.5296 0.7897
vn -0.4666 -0.5053 0.7259
vn 0.8255 -0.5643 0.0104
vn 0.3890 -0.5477 -0.7407
vn 0.7650 -0.6440 0.0130
vn -0.0916 -0.6415 0.7616
vn -0.8692 -0.4934 -0.0323
vn -0.8560 -0.5131 -0.0627
vn -0.3987 -0.4656 -0.7901
vn 0.0269 -0.7069 -0.7068
vn 0.5064 -0.7751 0.3778
vn -0.5602 -0.7738 0.2955
vn 0.5412 -0.7497 -0.3810
vn -0.6407 -0.6248 -0.4462
vt 0.854765 0.274891
vt 0.813068 0.205498
vt 0.776156 0.274892
vt 0.781456 0.141118
vt 0.856144 0.135923
vt 0.865522 0.118988
vt 0.769931 0.125565
vt 0.893451 0.205706
vt 0.869769 0.302801
vt 0.926480 0.208729
vt 0.900800 0.002147
vt 0.728232 0.014548
vt 0.744762 0.206407
vt 0.725423 0.205551
vt 0.767131 0.292017
vt 0.731337 0.407397
vt 0.899771 0.407427
vt 1.015703 0.171936
vt 0.963866 0.035103
vt 0.677069 0.032393
vt 0.602513 0.182373
vt 0.964198 0.373467
vt 1.030985 0.242996
vt 0.604573 0.226953
vt 0.678866 0.377263
s 1
usemtl Flowers
f 4/1/1 17/2/2 16/3/3
f 12/4/4 10/5/5 3/6/6 1/7/7
f 6/8/8 4/1/1 15/9/9 7/10/10
f 1/7/7 3/6/6 21/11/11 22/12/11
f 14/13/12 12/4/4 1/7/7 11/14/13
f 6/8/8 10/5/5 17/2/2
f 14/13/12 16/3/3 17/2/2
f 16/3/3 14/13/12 11/14/13 9/15/14
f 10/5/5 6/8/8 7/10/10 3/6/6
f 15/9/9 9/15/14 5/16/15 23/17/15
f 4/1/1 6/8/8 17/2/2
f 10/5/5 12/4/4 17/2/2
f 3/6/6 7/10/10 8/18/16 2/19/16
f 11/14/13 1/7/7 13/20/17 24/21/17
f 4/1/1 16/3/3 9/15/14 15/9/9
f 12/4/4 14/13/12 17/2/2
f 7/10/10 15/9/9 25/22/18 20/23/18
f 9/15/14 11/14/13 18/24/19 19/25/19
