# Blender 4.0.2
# www.blender.org
mtllib Petal_2.mtl
o Petal_2
v 0.000000 0.000000 0.000000
v -0.297561 0.236061 -0.116388
v -0.066284 0.229621 -0.329141
v -0.131055 0.223496 -0.159822
v -0.199907 0.198153 0.280824
v -0.320672 0.231977 -0.029696
v -0.189362 0.211002 0.089224
v -0.119028 0.188999 0.301953
v 0.239014 0.155818 0.293866
v 0.020752 0.180521 0.236845
v 0.254613 0.158575 0.235350
v 0.330754 0.172030 -0.050269
v 0.215001 0.174782 0.062725
v 0.052885 0.216133 -0.298008
v 0.352544 0.175880 -0.132007
v 0.136716 0.199136 -0.172164
vn -0.4759 0.8558 -0.2026
vn -0.3320 0.8932 0.3034
vn 0.0811 0.9948 0.0612
vn 0.0729 0.8581 -0.5084
vn 0.0039 0.7952 -0.6064
vn 0.2797 0.8129 0.5108
vn 0.5045 0.6781 0.5345
vn -0.2184 0.8080 0.5472
vn -0.5967 0.7882 -0.1510
vn 0.4702 0.7883 0.3969
vn -0.3017 0.7336 0.6089
vn -0.1750 0.9216 -0.3463
vn 0.4704 0.8432 -0.2602
vn -0.5295 0.8483 0.0013
vn 0.5883 0.8074 -0.0455
vn 0.6812 0.7008 -0.2117
vt 0.141567 0.987485
vt 0.081058 0.988636
vt 0.238749 0.780658
vt 0.461958 0.734109
vt 0.393242 0.820480
vt 0.014125 0.662375
vt 0.142760 0.646286
vt 0.015808 0.750913
vt 0.239566 0.926122
vt 0.200879 0.537532
vt 0.089297 0.831075
vt 0.396325 0.982641
vt 0.460815 0.674019
vt 0.353006 0.983464
vt 0.265056 0.536311
vt 0.325770 0.648424
s 1
usemtl Flowers
f 12/1/1 15/2/2 1/3/3
f 8/4/4 10/5/5 1/3/3
f 3/6/6 4/7/7 1/3/3
f 14/8/8 3/6/6 1/3/3
f 13/9/9 12/1/1 1/3/3
f 4/7/7 2/10/10 1/3/3
f 15/2/2 16/11/11 1/3/3
f 10/5/5 9/12/12 1/3/3
f 5/13/13 8/4/4 1/3/3
f 16/11/11 14/8/8 1/3/3
f 9/12/12 11/14/14 1/3/3
f 6/15/15 7/16/16 1/3/3
f 11/14/14 13/9/9 1/3/3
f 7/16/16 5/13/13 1/3/3
f 2/10/10 6/15/15 1/3/3
