# Blender 4.0.2
# www.blender.org
mtllib Plant_7_Big.mtl
o Plant_7_Big
v -0.228366 0.191496 -0.186091
v -0.081801 0.260946 -0.020513
v -0.307299 0.154093 -0.186246
v -0.448151 0.087349 -0.056242
v -0.143713 0.231609 0.211563
v -0.081801 0.260946 0.086677
v -0.326441 0.145022 0.211563
v -0.448151 0.087349 0.094617
v -0.213824 0.083670 0.019416
v 0.175441 0.232888 -0.357358
v 0.113456 0.260675 -0.135758
v 0.132829 0.212087 -0.430712
v -0.054431 0.166427 -0.494304
v -0.118194 0.229137 -0.073335
v 0.021949 0.253648 -0.080381
v -0.217147 0.180959 -0.242965
v -0.183219 0.156537 -0.416367
v 0.002297 0.111093 -0.261137
v 0.599684 0.119857 -0.168047
v 0.519798 0.213791 0.057465
v 0.558537 0.107477 -0.254855
v 0.361928 0.141304 -0.359060
v 0.267974 0.303744 0.079739
v 0.418447 0.259799 0.099179
v 0.172381 0.275238 -0.121081
v 0.219286 0.206055 -0.300352
v 0.355033 0.098422 -0.089446
v 0.353173 0.155634 0.338218
v 0.216033 0.140946 0.498901
v 0.348001 0.179573 0.262266
v 0.223111 0.245748 0.142225
v 0.005834 0.201531 0.466937
v 0.120871 0.160246 0.511646
v -0.006457 0.257013 0.291153
v 0.089180 0.272912 0.160163
v 0.147256 0.113308 0.307540
v 0.242652 0.301373 0.060561
v 0.150673 0.290638 0.217552
v 0.224755 0.302611 -0.005743
v 0.094134 0.298169 -0.097361
v -0.039252 0.279756 0.213134
v 0.069478 0.285167 0.239520
v -0.080953 0.279904 0.059713
v -0.020141 0.290468 -0.066443
v 0.084894 0.210010 0.074823
v -0.247476 0.104576 0.460718
v -0.302746 0.147359 0.288918
v -0.188653 0.114462 0.497153
v -0.041158 0.180292 0.480086
v -0.180813 0.240999 0.171196
v -0.267757 0.187007 0.221381
v -0.044520 0.264017 0.255319
v 0.008086 0.236092 0.385035
v -0.128903 0.111741 0.317491
v -0.168153 0.177159 -0.446678
v -0.179637 0.264064 -0.205065
v -0.233302 0.143150 -0.509773
v -0.453953 0.101188 -0.524271
v -0.416803 0.270762 -0.079723
v -0.265531 0.279469 -0.124358
v -0.567907 0.192084 -0.225519
v -0.574841 0.122870 -0.410683
v -0.339816 0.087230 -0.276570
v 0.518331 0.071882 -0.537190
v 0.471537 0.162720 -0.305946
v 0.466343 0.060322 -0.616187
v 0.260601 0.094372 -0.690508
v 0.229416 0.251105 -0.249122
v 0.378591 0.207707 -0.251111
v 0.108751 0.224494 -0.431818
v 0.129788 0.157687 -0.613333
v 0.290779 0.050312 -0.427253
v 0.111939 0.162488 -0.562890
v -0.074658 0.232785 -0.407472
v 0.115818 0.131865 -0.653025
v -0.018656 0.087808 -0.823284
v -0.323625 0.227638 -0.494954
v -0.190994 0.241497 -0.415220
v -0.315033 0.156775 -0.703641
v -0.182386 0.100070 -0.834188
v -0.120079 0.060867 -0.576013
v -0.448091 0.301373 0.148060
v -0.628807 0.290638 0.126896
v -0.394561 0.302611 0.105036
v -0.363133 0.298169 -0.051387
v -0.701057 0.279756 -0.048806
v -0.681542 0.285167 0.061365
v -0.577311 0.279904 -0.148626
v -0.437353 0.290468 -0.143616
v -0.524526 0.210010 0.009320
v -0.553864 0.141864 0.431741
v -0.575697 0.132196 0.229653
v -0.495164 0.154723 0.478380
v -0.321714 0.188870 0.470583
v -0.407209 0.162243 0.104003
v -0.519172 0.141411 0.154762
v -0.269934 0.189194 0.211509
v -0.242161 0.201838 0.365180
v -0.389353 0.077817 0.304993
v 0.587009 0.098167 0.285818
v 0.424642 0.122835 0.364876
v 0.609763 0.099799 0.221029
v 0.555696 0.124543 0.072907
v 0.273756 0.163025 0.256119
v 0.346749 0.140797 0.338129
v 0.325475 0.164270 0.105785
v 0.446070 0.149822 0.035264
v 0.430461 0.053605 0.202478
v -0.312909 0.163196 -0.470791
v -0.494369 0.151683 -0.483484
v -0.261250 0.161158 -0.516016
v -0.236488 0.145464 -0.672911
v -0.574014 0.128595 -0.654754
v -0.549840 0.141763 -0.546172
v -0.454613 0.121152 -0.759467
v -0.314559 0.131502 -0.761139
v -0.395237 0.062481 -0.599308
v 0.277388 0.149275 -0.544444
v 0.099944 0.164373 -0.583264
v 0.334091 0.138584 -0.581708
v 0.378402 0.115762 -0.733337
v 0.043054 0.149312 -0.764223
v 0.053151 0.161291 -0.653308
v 0.173732 0.121897 -0.850528
v 0.312545 0.111424 -0.831917
v 0.200166 0.058848 -0.683361
vn -0.5828 0.7327 -0.3515
vn -0.7751 0.6212 -0.1157
vn -0.4435 0.8962 0.0136
vn -0.0402 0.9842 0.1725
vn -0.0389 0.9848 -0.1693
vn -0.7734 0.6127 0.1629
vn -0.2398 0.8753 -0.4200
vn -0.5255 0.7375 0.4242
vn -0.2549 0.8734 0.4149
vn 0.0335 0.8557 -0.5164
vn -0.2729 0.7696 -0.5773
vn -0.1980 0.9638 -0.1785
vn -0.1203 0.9589 0.2568
vn 0.1723 0.9817 0.0815
vn -0.5103 0.7427 -0.4336
vn 0.2768 0.9311 -0.2374
vn -0.5987 0.7982 -0.0670
vn -0.4440 0.8776 0.1809
vn 0.4843 0.6695 -0.5633
vn 0.1833 0.7157 -0.6739
vn 0.2831 0.9161 -0.2838
vn 0.2909 0.9437 0.1575
vn 0.5830 0.8115 0.0389
vn -0.0578 0.8156 -0.5757
vn 0.6954 0.6737 -0.2501
vn -0.1602 0.9581 -0.2374
vn -0.0212 0.9994 0.0286
vn 0.5340 0.8455 0.0058
vn 0.2860 0.9413 -0.1795
vn 0.2122 0.9408 0.2642
vn 0.0635 0.7645 0.6415
vn 0.3957 0.6966 0.5985
vn 0.0131 0.9890 -0.1476
vn 0.6211 0.7037 0.3449
vn -0.2207 0.9634 0.1523
vn -0.1901 0.8771 0.4411
vn 0.2229 0.9361 -0.2720
vn -0.0542 0.9065 -0.4187
vn -0.0794 0.9966 0.0211
vn -0.1177 0.8865 0.4476
vn 0.2040 0.9082 0.3655
vn -0.3227 0.8800 -0.3484
vn 0.3816 0.9214 0.0739
vn -0.5020 0.8648 -0.0124
vn -0.4141 0.8669 0.2775
vn -0.2853 0.6658 0.6895
vn 0.0040 0.7901 0.6129
vn -0.3323 0.8838 0.3294
vn -0.5734 0.8185 -0.0356
vn -0.7141 0.6602 0.2327
vn 0.1224 0.9119 0.3918
vn -0.6194 0.5656 0.5445
vn -0.0071 0.9990 0.0441
vn -0.2683 0.9577 -0.1037
vn -0.0298 0.7252 -0.6879
vn -0.3467 0.6609 -0.6656
vn -0.1752 0.9230 -0.3426
vn -0.0047 0.9983 0.0584
vn 0.2433 0.9545 -0.1727
vn -0.5482 0.6885 -0.4748
vn 0.2725 0.8298 -0.4870
vn -0.5510 0.8260 -0.1193
vn -0.3414 0.9374 0.0689
vn 0.4019 0.6733 -0.6205
vn 0.0885 0.7204 -0.6879
vn 0.2419 0.9181 -0.3141
vn 0.3112 0.9425 0.1221
vn 0.5838 0.8111 -0.0370
vn -0.1364 0.8197 -0.5563
vn 0.6547 0.6752 -0.3398
vn -0.1905 0.9598 -0.2060
vn -0.0158 0.9991 0.0383
vn 0.4417 0.7661 -0.4669
vn 0.2141 0.6950 -0.6864
vn 0.0789 0.9394 -0.3337
vn -0.1034 0.9925 0.0657
vn 0.2367 0.9674 0.0898
vn -0.0639 0.7072 -0.7041
vn 0.4938 0.8631 -0.1056
vn -0.3340 0.8221 -0.4610
vn -0.3360 0.9252 -0.1762
vn 0.3386 0.9361 0.0949
vn 0.3617 0.9065 -0.2179
vn -0.0512 0.9966 -0.0642
vn -0.4571 0.8865 0.0720
vn -0.2528 0.9082 0.3337
vn 0.1894 0.8800 -0.4355
vn 0.0856 0.9214 0.3791
vn -0.1903 0.8648 -0.4646
vn -0.4205 0.8669 -0.2677
vn -0.2075 0.8952 0.3945
vn 0.0903 0.9428 0.3210
vn -0.2102 0.9774 -0.0206
vn -0.3703 0.8344 -0.4083
vn -0.6020 0.7851 -0.1457
vn 0.2400 0.9653 0.1031
vn -0.5645 0.7942 0.2251
vn 0.1822 0.9523 -0.2448
vn -0.0379 0.9047 -0.4244
vn 0.5692 0.8221 -0.0140
vn 0.4230 0.8583 -0.2906
vn 0.1835 0.9805 0.0698
vn -0.1109 0.9130 0.3926
vn 0.1949 0.8421 0.5028
vn 0.1645 0.9095 -0.3818
vn 0.5001 0.7881 0.3589
vn -0.1670 0.9650 -0.2022
vn -0.2570 0.9625 0.0870
vn 0.3431 0.9392 0.0135
vn 0.3529 0.8873 -0.2970
vn -0.0531 0.9897 -0.1329
vn -0.4529 0.8911 0.0278
vn -0.2376 0.9306 0.2784
vn 0.1715 0.8460 -0.5048
vn 0.1024 0.9457 0.3085
vn -0.2091 0.8302 -0.5167
vn -0.4307 0.8472 -0.3109
vn 0.4741 0.8783 0.0615
vn 0.5203 0.8183 -0.2443
vn 0.1149 0.9833 -0.1408
vn -0.3140 0.9486 -0.0396
vn -0.1333 0.9617 0.2395
vn 0.3664 0.7995 -0.4760
vn 0.1974 0.9272 0.3185
vn -0.0067 0.8398 -0.5429
vn -0.2504 0.8941 -0.3714
vt 0.670420 0.149454
vt 0.716882 0.163715
vt 0.685117 0.226597
vt 0.651688 0.295092
vt 0.615812 0.258184
vt 0.742373 0.189939
vt 0.620950 0.197542
vt 0.742071 0.269020
vt 0.720738 0.289830
s 1
usemtl Leaves
f 5/1/1 6/2/2 9/3/3
f 4/4/4 8/5/5 9/3/3
f 6/2/2 2/6/6 9/3/3
f 8/5/5 7/7/7 9/3/3
f 2/6/6 1/8/8 9/3/3
f 7/7/7 5/1/1 9/3/3
f 3/9/9 4/4/4 9/3/3
f 1/8/8 3/9/9 9/3/3
f 14/1/10 15/2/11 18/3/12
f 13/4/13 17/5/14 18/3/12
f 15/2/11 11/6/15 18/3/12
f 17/5/14 16/7/16 18/3/12
f 11/6/15 10/8/17 18/3/12
f 16/7/16 14/1/10 18/3/12
f 12/9/18 13/4/13 18/3/12
f 10/8/17 12/9/18 18/3/12
f 23/1/19 24/2/20 27/3/21
f 22/4/22 26/5/23 27/3/21
f 24/2/20 20/6/24 27/3/21
f 26/5/23 25/7/25 27/3/21
f 20/6/24 19/8/26 27/3/21
f 25/7/25 23/1/19 27/3/21
f 21/9/27 22/4/22 27/3/21
f 19/8/26 21/9/27 27/3/21
f 32/1/28 33/2/29 36/3/30
f 31/4/31 35/5/32 36/3/30
f 33/2/29 29/6/33 36/3/30
f 35/5/32 34/7/34 36/3/30
f 29/6/33 28/8/35 36/3/30
f 34/7/34 32/1/28 36/3/30
f 30/9/36 31/4/31 36/3/30
f 28/8/35 30/9/36 36/3/30
f 41/1/37 42/2/38 45/3/39
f 40/4/40 44/5/41 45/3/39
f 42/2/38 38/6/42 45/3/39
f 44/5/41 43/7/43 45/3/39
f 38/6/42 37/8/44 45/3/39
f 43/7/43 41/1/37 45/3/39
f 39/9/45 40/4/40 45/3/39
f 37/8/44 39/9/45 45/3/39
f 50/1/46 51/2/47 54/3/48
f 49/4/49 53/5/50 54/3/48
f 51/2/47 47/6/51 54/3/48
f 53/5/50 52/7/52 54/3/48
f 47/6/51 46/8/53 54/3/48
f 52/7/52 50/1/46 54/3/48
f 48/9/54 49/4/49 54/3/48
f 46/8/53 48/9/54 54/3/48
f 59/1/55 60/2/56 63/3/57
f 58/4/58 62/5/59 63/3/57
f 60/2/56 56/6/60 63/3/57
f 62/5/59 61/7/61 63/3/57
f 56/6/60 55/8/62 63/3/57
f 61/7/61 59/1/55 63/3/57
f 57/9/63 58/4/58 63/3/57
f 55/8/62 57/9/63 63/3/57
f 68/1/64 69/2/65 72/3/66
f 67/4/67 71/5/68 72/3/66
f 69/2/65 65/6/69 72/3/66
f 71/5/68 70/7/70 72/3/66
f 65/6/69 64/8/71 72/3/66
f 70/7/70 68/1/64 72/3/66
f 66/9/72 67/4/67 72/3/66
f 64/8/71 66/9/72 72/3/66
f 77/1/73 78/2/74 81/3/75
f 76/4/76 80/5/77 81/3/75
f 78/2/74 74/6/78 81/3/75
f 80/5/77 79/7/79 81/3/75
f 74/6/78 73/8/80 81/3/75
f 79/7/79 77/1/73 81/3/75
f 75/9/81 76/4/76 81/3/75
f 73/8/80 75/9/81 81/3/75
f 86/1/82 87/2/83 90/3/84
f 85/4/85 89/5/86 90/3/84
f 87/2/83 83/6/87 90/3/84
f 89/5/86 88/7/88 90/3/84
f 83/6/87 82/8/89 90/3/84
f 88/7/88 86/1/82 90/3/84
f 84/9/90 85/4/85 90/3/84
f 82/8/89 84/9/90 90/3/84
f 95/1/91 96/2/92 99/3/93
f 94/4/94 98/5/95 99/3/93
f 96/2/92 92/6/96 99/3/93
f 98/5/95 97/7/97 99/3/93
f 92/6/96 91/8/98 99/3/93
f 97/7/97 95/1/91 99/3/93
f 93/9/99 94/4/94 99/3/93
f 91/8/98 93/9/99 99/3/93
f 104/1/100 105/2/101 108/3/102
f 103/4/103 107/5/104 108/3/102
f 105/2/101 101/6/105 108/3/102
f 107/5/104 106/7/106 108/3/102
f 101/6/105 100/8/107 108/3/102
f 106/7/106 104/1/100 108/3/102
f 102/9/108 103/4/103 108/3/102
f 100/8/107 102/9/108 108/3/102
f 113/1/109 114/2/110 117/3/111
f 112/4/112 116/5/113 117/3/111
f 114/2/110 110/6/114 117/3/111
f 116/5/113 115/7/115 117/3/111
f 110/6/114 109/8/116 117/3/111
f 115/7/115 113/1/109 117/3/111
f 111/9/117 112/4/112 117/3/111
f 109/8/116 111/9/117 117/3/111
f 122/1/118 123/2/119 126/3/120
f 121/4/121 125/5/122 126/3/120
f 123/2/119 119/6/123 126/3/120
f 125/5/122 124/7/124 126/3/120
f 119/6/123 118/8/125 126/3/120
f 124/7/124 122/1/118 126/3/120
f 120/9/126 121/4/121 126/3/120
f 118/8/125 120/9/126 126/3/120
