# Blender 4.0.2
# www.blender.org
mtllib Plant_7.mtl
o Plant_7
v -0.228366 0.208663 -0.186091
v -0.081801 0.278113 -0.020513
v -0.307299 0.171260 -0.186246
v -0.448151 0.104516 -0.056242
v -0.143713 0.248776 0.211563
v -0.081801 0.278113 0.086677
v -0.326441 0.162189 0.211563
v -0.448151 0.104516 0.094617
v -0.213824 0.100837 0.019416
v 0.189618 0.165201 -0.315023
v 0.102163 0.287001 -0.138282
v 0.155111 0.122334 -0.382855
v -0.025896 0.079105 -0.463866
v -0.137764 0.312665 -0.120139
v 0.003900 0.314370 -0.105346
v -0.217975 0.213521 -0.277058
v -0.164192 0.117624 -0.417511
v -0.016802 0.115091 -0.220413
v 0.599684 0.119857 -0.168047
v 0.519798 0.213791 0.057465
v 0.558537 0.107477 -0.254855
v 0.361928 0.141304 -0.359060
v 0.267974 0.303744 0.079739
v 0.418447 0.259799 0.099179
v 0.172381 0.275238 -0.121081
v 0.219286 0.206055 -0.300352
v 0.355033 0.098422 -0.089446
v 0.451990 0.155634 0.296140
v 0.314849 0.140946 0.456823
v 0.446817 0.179573 0.220189
v 0.321927 0.245748 0.100147
v 0.104651 0.201531 0.424859
v 0.219688 0.160246 0.469568
v 0.092360 0.257013 0.249075
v 0.187997 0.272912 0.118085
v 0.246072 0.113308 0.265463
v 0.242652 0.327382 0.060561
v 0.150673 0.316647 0.217552
v 0.224755 0.328619 -0.005743
v 0.094134 0.324177 -0.097361
v -0.039252 0.305765 0.213134
v 0.069478 0.311175 0.239520
v -0.080953 0.308611 0.059713
v -0.020141 0.316477 -0.066443
v 0.084894 0.236019 0.074823
v -0.196538 0.102744 0.485744
v -0.311417 0.144864 0.346355
v -0.128632 0.113594 0.498255
v 0.001380 0.182035 0.429029
v -0.242405 0.240847 0.192995
v -0.304146 0.185244 0.271029
v -0.085179 0.266100 0.221708
v 0.011612 0.238865 0.323015
v -0.138616 0.112252 0.309167
vn -0.5828 0.7327 -0.3515
vn -0.7751 0.6212 -0.1157
vn -0.4435 0.8962 0.0136
vn -0.0402 0.9842 0.1725
vn -0.0389 0.9848 -0.1693
vn -0.7734 0.6127 0.1629
vn -0.2398 0.8753 -0.4200
vn -0.5255 0.7375 0.4242
vn -0.2549 0.8734 0.4149
vn 0.2811 0.5656 -0.7753
vn -0.0238 0.5018 -0.8647
vn 0.0282 0.8282 -0.5597
vn 0.0377 0.9883 -0.1475
vn 0.3516 0.9018 -0.2514
vn -0.2805 0.5649 -0.7760
vn 0.4902 0.7150 -0.4985
vn -0.4096 0.7732 -0.4841
vn -0.2807 0.9250 -0.2559
vn 0.4843 0.6695 -0.5633
vn 0.1833 0.7157 -0.6739
vn 0.2831 0.9161 -0.2838
vn 0.2909 0.9437 0.1575
vn 0.5830 0.8115 0.0389
vn -0.0578 0.8156 -0.5757
vn 0.6954 0.6737 -0.2501
vn -0.1602 0.9581 -0.2374
vn -0.0212 0.9994 0.0286
vn 0.5340 0.8455 0.0058
vn 0.2860 0.9413 -0.1795
vn 0.2122 0.9408 0.2642
vn 0.0635 0.7645 0.6415
vn 0.3957 0.6966 0.5985
vn 0.0131 0.9890 -0.1476
vn 0.6211 0.7037 0.3449
vn -0.2207 0.9634 0.1523
vn -0.1901 0.8771 0.4411
vn 0.2299 0.9362 -0.2658
vn -0.0542 0.9065 -0.4187
vn -0.0755 0.9969 0.0214
vn -0.1177 0.8865 0.4476
vn 0.2119 0.9086 0.3599
vn -0.3227 0.8800 -0.3484
vn 0.3942 0.9160 0.0737
vn -0.5020 0.8648 -0.0124
vn -0.4141 0.8669 0.2775
vn -0.0241 0.6594 0.7514
vn 0.2153 0.7889 0.5755
vn -0.2029 0.8772 0.4352
vn -0.5595 0.8084 0.1829
vn -0.5900 0.6472 0.4828
vn 0.2428 0.9132 0.3274
vn -0.3864 0.5536 0.7377
vn -0.0062 0.9986 0.0518
vn -0.3026 0.9531 0.0092
vt 0.670420 0.149454
vt 0.716882 0.163715
vt 0.685117 0.226597
vt 0.651688 0.295092
vt 0.615812 0.258184
vt 0.742373 0.189939
vt 0.620950 0.197542
vt 0.742071 0.269020
vt 0.720738 0.289830
s 1
usemtl Leaves
f 5/1/1 6/2/2 9/3/3
f 4/4/4 8/5/5 9/3/3
f 6/2/2 2/6/6 9/3/3
f 8/5/5 7/7/7 9/3/3
f 2/6/6 1/8/8 9/3/3
f 7/7/7 5/1/1 9/3/3
f 3/9/9 4/4/4 9/3/3
f 1/8/8 3/9/9 9/3/3
f 14/1/10 15/2/11 18/3/12
f 13/4/13 17/5/14 18/3/12
f 15/2/11 11/6/15 18/3/12
f 17/5/14 16/7/16 18/3/12
f 11/6/15 10/8/17 18/3/12
f 16/7/16 14/1/10 18/3/12
f 12/9/18 13/4/13 18/3/12
f 10/8/17 12/9/18 18/3/12
f 23/1/19 24/2/20 27/3/21
f 22/4/22 26/5/23 27/3/21
f 24/2/20 20/6/24 27/3/21
f 26/5/23 25/7/25 27/3/21
f 20/6/24 19/8/26 27/3/21
f 25/7/25 23/1/19 27/3/21
f 21/9/27 22/4/22 27/3/21
f 19/8/26 21/9/27 27/3/21
f 32/1/28 33/2/29 36/3/30
f 31/4/31 35/5/32 36/3/30
f 33/2/29 29/6/33 36/3/30
f 35/5/32 34/7/34 36/3/30
f 29/6/33 28/8/35 36/3/30
f 34/7/34 32/1/28 36/3/30
f 30/9/36 31/4/31 36/3/30
f 28/8/35 30/9/36 36/3/30
f 41/1/37 42/2/38 45/3/39
f 40/4/40 44/5/41 45/3/39
f 42/2/38 38/6/42 45/3/39
f 44/5/41 43/7/43 45/3/39
f 38/6/42 37/8/44 45/3/39
f 43/7/43 41/1/37 45/3/39
f 39/9/45 40/4/40 45/3/39
f 37/8/44 39/9/45 45/3/39
f 50/1/46 51/2/47 54/3/48
f 49/4/49 53/5/50 54/3/48
f 51/2/47 47/6/51 54/3/48
f 53/5/50 52/7/52 54/3/48
f 47/6/51 46/8/53 54/3/48
f 52/7/52 50/1/46 54/3/48
f 48/9/54 49/4/49 54/3/48
f 46/8/53 48/9/54 54/3/48
