{
	"asset":{
		"generator":"Khronos glTF Blender I/O v4.0.44",
		"version":"2.0"
	},
	"scene":0,
	"scenes":[
		{
			"name":"Scene",
			"nodes":[
				0
			]
		}
	],
	"nodes":[
		{
			"mesh":0,
			"name":"CommonTree_5"
		}
	],
	"materials":[
		{
			"alphaCutoff":0.20000000298023224,
			"alphaMode":"MASK",
			"doubleSided":true,
			"name":"Bark_NormalTree",
			"normalTexture":{
				"index":0
			},
			"pbrMetallicRoughness":{
				"baseColorTexture":{
					"index":1
				},
				"metallicFactor":0
			}
		},
		{
			"alphaCutoff":0.20000000298023224,
			"alphaMode":"MASK",
			"doubleSided":true,
			"name":"Leaves_NormalTree",
			"pbrMetallicRoughness":{
				"baseColorTexture":{
					"index":2
				},
				"metallicFactor":0
			}
		}
	],
	"meshes":[
		{
			"name":"tree.027",
			"primitives":[
				{
					"attributes":{
						"COLOR_0":0,
						"POSITION":1,
						"NORMAL":2,
						"TEXCOORD_0":3
					},
					"indices":4,
					"material":0
				},
				{
					"attributes":{
						"COLOR_0":5,
						"POSITION":6,
						"NORMAL":7,
						"TEXCOORD_0":8
					},
					"indices":9,
					"material":1
				}
			]
		}
	],
	"textures":[
		{
			"sampler":0,
			"source":0
		},
		{
			"sampler":0,
			"source":1
		},
		{
			"sampler":0,
			"source":2
		}
	],
	"images":[
		{
			"mimeType":"image/png",
			"name":"Bark_NormalTree_Normal",
			"uri":"Bark_NormalTree_Normal.png"
		},
		{
			"mimeType":"image/png",
			"name":"Bark_NormalTree",
			"uri":"Bark_NormalTree.png"
		},
		{
			"mimeType":"image/png",
			"name":"Leaves_NormalTree_C",
			"uri":"Leaves_NormalTree_C.png"
		}
	],
	"accessors":[
		{
			"bufferView":0,
			"componentType":5126,
			"count":2273,
			"type":"VEC4"
		},
		{
			"bufferView":1,
			"componentType":5126,
			"count":2273,
			"max":[
				0.9063012599945068,
				5.4537034034729,
				0.8049076795578003
			],
			"min":[
				-0.8957228064537048,
				-0.24277201294898987,
				-0.920511782169342
			],
			"type":"VEC3"
		},
		{
			"bufferView":2,
			"componentType":5126,
			"count":2273,
			"type":"VEC3"
		},
		{
			"bufferView":3,
			"componentType":5126,
			"count":2273,
			"type":"VEC2"
		},
		{
			"bufferView":4,
			"componentType":5123,
			"count":5646,
			"type":"SCALAR"
		},
		{
			"bufferView":5,
			"componentType":5126,
			"count":2600,
			"type":"VEC4"
		},
		{
			"bufferView":6,
			"componentType":5126,
			"count":2600,
			"max":[
				1.7588107585906982,
				6.763467788696289,
				2.057202100753784
			],
			"min":[
				-1.912354588508606,
				2.356473684310913,
				-2.162447929382324
			],
			"type":"VEC3"
		},
		{
			"bufferView":7,
			"componentType":5126,
			"count":2600,
			"type":"VEC3"
		},
		{
			"bufferView":8,
			"componentType":5126,
			"count":2600,
			"type":"VEC2"
		},
		{
			"bufferView":9,
			"componentType":5123,
			"count":3900,
			"type":"SCALAR"
		}
	],
	"bufferViews":[
		{
			"buffer":0,
			"byteLength":36368,
			"byteOffset":0,
			"target":34962
		},
		{
			"buffer":0,
			"byteLength":27276,
			"byteOffset":36368,
			"target":34962
		},
		{
			"buffer":0,
			"byteLength":27276,
			"byteOffset":63644,
			"target":34962
		},
		{
			"buffer":0,
			"byteLength":18184,
			"byteOffset":90920,
			"target":34962
		},
		{
			"buffer":0,
			"byteLength":11292,
			"byteOffset":109104,
			"target":34963
		},
		{
			"buffer":0,
			"byteLength":41600,
			"byteOffset":120396,
			"target":34962
		},
		{
			"buffer":0,
			"byteLength":31200,
			"byteOffset":161996,
			"target":34962
		},
		{
			"buffer":0,
			"byteLength":31200,
			"byteOffset":193196,
			"target":34962
		},
		{
			"buffer":0,
			"byteLength":20800,
			"byteOffset":224396,
			"target":34962
		},
		{
			"buffer":0,
			"byteLength":7800,
			"byteOffset":245196,
			"target":34963
		}
	],
	"samplers":[
		{
			"magFilter":9729,
			"minFilter":9987
		}
	],
	"buffers":[
		{
			"byteLength":252996,
			"uri":"CommonTree_5.bin"
		}
	]
}
