{
	"asset":{
		"generator":"Khronos glTF Blender I/O v4.0.44",
		"version":"2.0"
	},
	"scene":0,
	"scenes":[
		{
			"name":"Scene",
			"nodes":[
				0
			]
		}
	],
	"nodes":[
		{
			"mesh":0,
			"name":"CommonTree_3"
		}
	],
	"materials":[
		{
			"alphaCutoff":0.20000000298023224,
			"alphaMode":"MASK",
			"doubleSided":true,
			"name":"Bark_NormalTree",
			"normalTexture":{
				"index":0
			},
			"pbrMetallicRoughness":{
				"baseColorTexture":{
					"index":1
				},
				"metallicFactor":0
			}
		},
		{
			"alphaCutoff":0.20000000298023224,
			"alphaMode":"MASK",
			"doubleSided":true,
			"name":"Leaves_NormalTree",
			"pbrMetallicRoughness":{
				"baseColorTexture":{
					"index":2
				},
				"metallicFactor":0
			}
		}
	],
	"meshes":[
		{
			"name":"tree.025",
			"primitives":[
				{
					"attributes":{
						"COLOR_0":0,
						"POSITION":1,
						"NORMAL":2,
						"TEXCOORD_0":3
					},
					"indices":4,
					"material":0
				},
				{
					"attributes":{
						"COLOR_0":5,
						"POSITION":6,
						"NORMAL":7,
						"TEXCOORD_0":8
					},
					"indices":9,
					"material":1
				}
			]
		}
	],
	"textures":[
		{
			"sampler":0,
			"source":0
		},
		{
			"sampler":0,
			"source":1
		},
		{
			"sampler":0,
			"source":2
		}
	],
	"images":[
		{
			"mimeType":"image/png",
			"name":"Bark_NormalTree_Normal",
			"uri":"Bark_NormalTree_Normal.png"
		},
		{
			"mimeType":"image/png",
			"name":"Bark_NormalTree",
			"uri":"Bark_NormalTree.png"
		},
		{
			"mimeType":"image/png",
			"name":"Leaves_NormalTree_C",
			"uri":"Leaves_NormalTree_C.png"
		}
	],
	"accessors":[
		{
			"bufferView":0,
			"componentType":5126,
			"count":2149,
			"type":"VEC4"
		},
		{
			"bufferView":1,
			"componentType":5126,
			"count":2149,
			"max":[
				1.0429332256317139,
				7.97797966003418,
				1.102728247642517
			],
			"min":[
				-0.848488450050354,
				-0.24277201294898987,
				-0.8173294067382812
			],
			"type":"VEC3"
		},
		{
			"bufferView":2,
			"componentType":5126,
			"count":2149,
			"type":"VEC3"
		},
		{
			"bufferView":3,
			"componentType":5126,
			"count":2149,
			"type":"VEC2"
		},
		{
			"bufferView":4,
			"componentType":5123,
			"count":5115,
			"type":"SCALAR"
		},
		{
			"bufferView":5,
			"componentType":5126,
			"count":3600,
			"type":"VEC4"
		},
		{
			"bufferView":6,
			"componentType":5126,
			"count":3600,
			"max":[
				2.076380968093872,
				9.182417869567871,
				2.1801114082336426
			],
			"min":[
				-1.9864652156829834,
				2.5763165950775146,
				-2.0609655380249023
			],
			"type":"VEC3"
		},
		{
			"bufferView":7,
			"componentType":5126,
			"count":3600,
			"type":"VEC3"
		},
		{
			"bufferView":8,
			"componentType":5126,
			"count":3600,
			"type":"VEC2"
		},
		{
			"bufferView":9,
			"componentType":5123,
			"count":5400,
			"type":"SCALAR"
		}
	],
	"bufferViews":[
		{
			"buffer":0,
			"byteLength":34384,
			"byteOffset":0,
			"target":34962
		},
		{
			"buffer":0,
			"byteLength":25788,
			"byteOffset":34384,
			"target":34962
		},
		{
			"buffer":0,
			"byteLength":25788,
			"byteOffset":60172,
			"target":34962
		},
		{
			"buffer":0,
			"byteLength":17192,
			"byteOffset":85960,
			"target":34962
		},
		{
			"buffer":0,
			"byteLength":10230,
			"byteOffset":103152,
			"target":34963
		},
		{
			"buffer":0,
			"byteLength":57600,
			"byteOffset":113384,
			"target":34962
		},
		{
			"buffer":0,
			"byteLength":43200,
			"byteOffset":170984,
			"target":34962
		},
		{
			"buffer":0,
			"byteLength":43200,
			"byteOffset":214184,
			"target":34962
		},
		{
			"buffer":0,
			"byteLength":28800,
			"byteOffset":257384,
			"target":34962
		},
		{
			"buffer":0,
			"byteLength":10800,
			"byteOffset":286184,
			"target":34963
		}
	],
	"samplers":[
		{
			"magFilter":9729,
			"minFilter":9987
		}
	],
	"buffers":[
		{
			"byteLength":296984,
			"uri":"CommonTree_3.bin"
		}
	]
}
