{
	"asset":{
		"generator":"Khronos glTF Blender I/O v4.0.44",
		"version":"2.0"
	},
	"scene":0,
	"scenes":[
		{
			"name":"Scene",
			"nodes":[
				0
			]
		}
	],
	"nodes":[
		{
			"mesh":0,
			"name":"CommonTree_2"
		}
	],
	"materials":[
		{
			"alphaCutoff":0.20000000298023224,
			"alphaMode":"MASK",
			"doubleSided":true,
			"name":"Bark_NormalTree",
			"normalTexture":{
				"index":0
			},
			"pbrMetallicRoughness":{
				"baseColorTexture":{
					"index":1
				},
				"metallicFactor":0
			}
		},
		{
			"alphaCutoff":0.20000000298023224,
			"alphaMode":"MASK",
			"doubleSided":true,
			"name":"Leaves_NormalTree",
			"pbrMetallicRoughness":{
				"baseColorTexture":{
					"index":2
				},
				"metallicFactor":0
			}
		}
	],
	"meshes":[
		{
			"name":"tree.024",
			"primitives":[
				{
					"attributes":{
						"COLOR_0":0,
						"POSITION":1,
						"NORMAL":2,
						"TEXCOORD_0":3
					},
					"indices":4,
					"material":0
				},
				{
					"attributes":{
						"COLOR_0":5,
						"POSITION":6,
						"NORMAL":7,
						"TEXCOORD_0":8
					},
					"indices":9,
					"material":1
				}
			]
		}
	],
	"textures":[
		{
			"sampler":0,
			"source":0
		},
		{
			"sampler":0,
			"source":1
		},
		{
			"sampler":0,
			"source":2
		}
	],
	"images":[
		{
			"mimeType":"image/png",
			"name":"Bark_NormalTree_Normal",
			"uri":"Bark_NormalTree_Normal.png"
		},
		{
			"mimeType":"image/png",
			"name":"Bark_NormalTree",
			"uri":"Bark_NormalTree.png"
		},
		{
			"mimeType":"image/png",
			"name":"Leaves_NormalTree_C",
			"uri":"Leaves_NormalTree_C.png"
		}
	],
	"accessors":[
		{
			"bufferView":0,
			"componentType":5126,
			"count":5431,
			"type":"VEC4"
		},
		{
			"bufferView":1,
			"componentType":5126,
			"count":5431,
			"max":[
				1.3451228141784668,
				6.727368354797363,
				1.5685818195343018
			],
			"min":[
				-1.431023359298706,
				-0.24277201294898987,
				-0.9472540616989136
			],
			"type":"VEC3"
		},
		{
			"bufferView":2,
			"componentType":5126,
			"count":5431,
			"type":"VEC3"
		},
		{
			"bufferView":3,
			"componentType":5126,
			"count":5431,
			"type":"VEC2"
		},
		{
			"bufferView":4,
			"componentType":5123,
			"count":12930,
			"type":"SCALAR"
		},
		{
			"bufferView":5,
			"componentType":5126,
			"count":2676,
			"type":"VEC4"
		},
		{
			"bufferView":6,
			"componentType":5126,
			"count":2676,
			"max":[
				2.24128794670105,
				7.400223731994629,
				2.4243826866149902
			],
			"min":[
				-2.2230136394500732,
				2.886406183242798,
				-1.8514697551727295
			],
			"type":"VEC3"
		},
		{
			"bufferView":7,
			"componentType":5126,
			"count":2676,
			"type":"VEC3"
		},
		{
			"bufferView":8,
			"componentType":5126,
			"count":2676,
			"type":"VEC2"
		},
		{
			"bufferView":9,
			"componentType":5123,
			"count":4014,
			"type":"SCALAR"
		}
	],
	"bufferViews":[
		{
			"buffer":0,
			"byteLength":86896,
			"byteOffset":0,
			"target":34962
		},
		{
			"buffer":0,
			"byteLength":65172,
			"byteOffset":86896,
			"target":34962
		},
		{
			"buffer":0,
			"byteLength":65172,
			"byteOffset":152068,
			"target":34962
		},
		{
			"buffer":0,
			"byteLength":43448,
			"byteOffset":217240,
			"target":34962
		},
		{
			"buffer":0,
			"byteLength":25860,
			"byteOffset":260688,
			"target":34963
		},
		{
			"buffer":0,
			"byteLength":42816,
			"byteOffset":286548,
			"target":34962
		},
		{
			"buffer":0,
			"byteLength":32112,
			"byteOffset":329364,
			"target":34962
		},
		{
			"buffer":0,
			"byteLength":32112,
			"byteOffset":361476,
			"target":34962
		},
		{
			"buffer":0,
			"byteLength":21408,
			"byteOffset":393588,
			"target":34962
		},
		{
			"buffer":0,
			"byteLength":8028,
			"byteOffset":414996,
			"target":34963
		}
	],
	"samplers":[
		{
			"magFilter":9729,
			"minFilter":9987
		}
	],
	"buffers":[
		{
			"byteLength":423024,
			"uri":"CommonTree_2.bin"
		}
	]
}
