{
	"asset":{
		"generator":"Khronos glTF Blender I/O v4.0.44",
		"version":"2.0"
	},
	"scene":0,
	"scenes":[
		{
			"name":"Scene",
			"nodes":[
				0
			]
		}
	],
	"nodes":[
		{
			"mesh":0,
			"name":"DeadTree_5"
		}
	],
	"materials":[
		{
			"doubleSided":true,
			"name":"Bark_DeadTree",
			"normalTexture":{
				"index":0
			},
			"pbrMetallicRoughness":{
				"baseColorTexture":{
					"index":1
				},
				"metallicFactor":0
			}
		}
	],
	"meshes":[
		{
			"name":"tree.021",
			"primitives":[
				{
					"attributes":{
						"COLOR_0":0,
						"POSITION":1,
						"NORMAL":2,
						"TEXCOORD_0":3
					},
					"indices":4,
					"material":0
				}
			]
		}
	],
	"textures":[
		{
			"sampler":0,
			"source":0
		},
		{
			"sampler":0,
			"source":1
		}
	],
	"images":[
		{
			"mimeType":"image/png",
			"name":"Bark_DeadTree_Normal",
			"uri":"Bark_DeadTree_Normal.png"
		},
		{
			"mimeType":"image/png",
			"name":"Bark_DeadTree",
			"uri":"Bark_DeadTree.png"
		}
	],
	"accessors":[
		{
			"bufferView":0,
			"componentType":5126,
			"count":7499,
			"type":"VEC4"
		},
		{
			"bufferView":1,
			"componentType":5126,
			"count":7499,
			"max":[
				4.385861396789551,
				16.10182762145996,
				3.616036891937256
			],
			"min":[
				-3.9705328941345215,
				-0.3355545997619629,
				-4.7972307205200195
			],
			"type":"VEC3"
		},
		{
			"bufferView":2,
			"componentType":5126,
			"count":7499,
			"type":"VEC3"
		},
		{
			"bufferView":3,
			"componentType":5126,
			"count":7499,
			"type":"VEC2"
		},
		{
			"bufferView":4,
			"componentType":5123,
			"count":16944,
			"type":"SCALAR"
		}
	],
	"bufferViews":[
		{
			"buffer":0,
			"byteLength":119984,
			"byteOffset":0,
			"target":34962
		},
		{
			"buffer":0,
			"byteLength":89988,
			"byteOffset":119984,
			"target":34962
		},
		{
			"buffer":0,
			"byteLength":89988,
			"byteOffset":209972,
			"target":34962
		},
		{
			"buffer":0,
			"byteLength":59992,
			"byteOffset":299960,
			"target":34962
		},
		{
			"buffer":0,
			"byteLength":33888,
			"byteOffset":359952,
			"target":34963
		}
	],
	"samplers":[
		{
			"magFilter":9729,
			"minFilter":9987
		}
	],
	"buffers":[
		{
			"byteLength":393840,
			"uri":"DeadTree_5.bin"
		}
	]
}
