{
	"asset":{
		"generator":"Khronos glTF Blender I/O v4.0.44",
		"version":"2.0"
	},
	"scene":0,
	"scenes":[
		{
			"name":"Scene",
			"nodes":[
				0
			]
		}
	],
	"nodes":[
		{
			"mesh":0,
			"name":"DeadTree_4"
		}
	],
	"materials":[
		{
			"doubleSided":true,
			"name":"Bark_DeadTree",
			"normalTexture":{
				"index":0
			},
			"pbrMetallicRoughness":{
				"baseColorTexture":{
					"index":1
				},
				"metallicFactor":0
			}
		}
	],
	"meshes":[
		{
			"name":"tree.018",
			"primitives":[
				{
					"attributes":{
						"COLOR_0":0,
						"POSITION":1,
						"NORMAL":2,
						"TEXCOORD_0":3
					},
					"indices":4,
					"material":0
				}
			]
		}
	],
	"textures":[
		{
			"sampler":0,
			"source":0
		},
		{
			"sampler":0,
			"source":1
		}
	],
	"images":[
		{
			"mimeType":"image/png",
			"name":"Bark_DeadTree_Normal",
			"uri":"Bark_DeadTree_Normal.png"
		},
		{
			"mimeType":"image/png",
			"name":"Bark_DeadTree",
			"uri":"Bark_DeadTree.png"
		}
	],
	"accessors":[
		{
			"bufferView":0,
			"componentType":5126,
			"count":7653,
			"type":"VEC4"
		},
		{
			"bufferView":1,
			"componentType":5126,
			"count":7653,
			"max":[
				4.59817361831665,
				12.435422897338867,
				4.133494853973389
			],
			"min":[
				-3.3627684116363525,
				-0.3355545997619629,
				-3.5989503860473633
			],
			"type":"VEC3"
		},
		{
			"bufferView":2,
			"componentType":5126,
			"count":7653,
			"type":"VEC3"
		},
		{
			"bufferView":3,
			"componentType":5126,
			"count":7653,
			"type":"VEC2"
		},
		{
			"bufferView":4,
			"componentType":5123,
			"count":17106,
			"type":"SCALAR"
		}
	],
	"bufferViews":[
		{
			"buffer":0,
			"byteLength":122448,
			"byteOffset":0,
			"target":34962
		},
		{
			"buffer":0,
			"byteLength":91836,
			"byteOffset":122448,
			"target":34962
		},
		{
			"buffer":0,
			"byteLength":91836,
			"byteOffset":214284,
			"target":34962
		},
		{
			"buffer":0,
			"byteLength":61224,
			"byteOffset":306120,
			"target":34962
		},
		{
			"buffer":0,
			"byteLength":34212,
			"byteOffset":367344,
			"target":34963
		}
	],
	"samplers":[
		{
			"magFilter":9729,
			"minFilter":9987
		}
	],
	"buffers":[
		{
			"byteLength":401556,
			"uri":"DeadTree_4.bin"
		}
	]
}
