{
	"asset":{
		"generator":"Khronos glTF Blender I/O v4.0.44",
		"version":"2.0"
	},
	"scene":0,
	"scenes":[
		{
			"name":"Scene",
			"nodes":[
				0
			]
		}
	],
	"nodes":[
		{
			"mesh":0,
			"name":"DeadTree_1"
		}
	],
	"materials":[
		{
			"doubleSided":true,
			"name":"Bark_DeadTree",
			"normalTexture":{
				"index":0
			},
			"pbrMetallicRoughness":{
				"baseColorTexture":{
					"index":1
				},
				"metallicFactor":0
			}
		}
	],
	"meshes":[
		{
			"name":"tree",
			"primitives":[
				{
					"attributes":{
						"COLOR_0":0,
						"POSITION":1,
						"NORMAL":2,
						"TEXCOORD_0":3
					},
					"indices":4,
					"material":0
				}
			]
		}
	],
	"textures":[
		{
			"sampler":0,
			"source":0
		},
		{
			"sampler":0,
			"source":1
		}
	],
	"images":[
		{
			"mimeType":"image/png",
			"name":"Bark_DeadTree_Normal",
			"uri":"Bark_DeadTree_Normal.png"
		},
		{
			"mimeType":"image/png",
			"name":"Bark_DeadTree",
			"uri":"Bark_DeadTree.png"
		}
	],
	"accessors":[
		{
			"bufferView":0,
			"componentType":5126,
			"count":8036,
			"type":"VEC4"
		},
		{
			"bufferView":1,
			"componentType":5126,
			"count":8036,
			"max":[
				3.556612253189087,
				9.15992259979248,
				2.845168113708496
			],
			"min":[
				-2.5923237800598145,
				-0.3355545997619629,
				-2.9034998416900635
			],
			"type":"VEC3"
		},
		{
			"bufferView":2,
			"componentType":5126,
			"count":8036,
			"type":"VEC3"
		},
		{
			"bufferView":3,
			"componentType":5126,
			"count":8036,
			"type":"VEC2"
		},
		{
			"bufferView":4,
			"componentType":5123,
			"count":18507,
			"type":"SCALAR"
		}
	],
	"bufferViews":[
		{
			"buffer":0,
			"byteLength":128576,
			"byteOffset":0,
			"target":34962
		},
		{
			"buffer":0,
			"byteLength":96432,
			"byteOffset":128576,
			"target":34962
		},
		{
			"buffer":0,
			"byteLength":96432,
			"byteOffset":225008,
			"target":34962
		},
		{
			"buffer":0,
			"byteLength":64288,
			"byteOffset":321440,
			"target":34962
		},
		{
			"buffer":0,
			"byteLength":37014,
			"byteOffset":385728,
			"target":34963
		}
	],
	"samplers":[
		{
			"magFilter":9729,
			"minFilter":9987
		}
	],
	"buffers":[
		{
			"byteLength":422744,
			"uri":"DeadTree_1.bin"
		}
	]
}
