{
	"asset":{
		"generator":"Khronos glTF Blender I/O v4.0.44",
		"version":"2.0"
	},
	"scene":0,
	"scenes":[
		{
			"name":"Scene",
			"nodes":[
				0
			]
		}
	],
	"nodes":[
		{
			"mesh":0,
			"name":"DeadTree_3"
		}
	],
	"materials":[
		{
			"doubleSided":true,
			"name":"Bark_DeadTree",
			"normalTexture":{
				"index":0
			},
			"pbrMetallicRoughness":{
				"baseColorTexture":{
					"index":1
				},
				"metallicFactor":0
			}
		}
	],
	"meshes":[
		{
			"name":"tree.019",
			"primitives":[
				{
					"attributes":{
						"COLOR_0":0,
						"POSITION":1,
						"NORMAL":2,
						"TEXCOORD_0":3
					},
					"indices":4,
					"material":0
				}
			]
		}
	],
	"textures":[
		{
			"sampler":0,
			"source":0
		},
		{
			"sampler":0,
			"source":1
		}
	],
	"images":[
		{
			"mimeType":"image/png",
			"name":"Bark_DeadTree_Normal",
			"uri":"Bark_DeadTree_Normal.png"
		},
		{
			"mimeType":"image/png",
			"name":"Bark_DeadTree",
			"uri":"Bark_DeadTree.png"
		}
	],
	"accessors":[
		{
			"bufferView":0,
			"componentType":5126,
			"count":7936,
			"type":"VEC4"
		},
		{
			"bufferView":1,
			"componentType":5126,
			"count":7936,
			"max":[
				2.540004014968872,
				12.944830894470215,
				3.043358564376831
			],
			"min":[
				-3.847569704055786,
				-0.3355545997619629,
				-3.3867006301879883
			],
			"type":"VEC3"
		},
		{
			"bufferView":2,
			"componentType":5126,
			"count":7936,
			"type":"VEC3"
		},
		{
			"bufferView":3,
			"componentType":5126,
			"count":7936,
			"type":"VEC2"
		},
		{
			"bufferView":4,
			"componentType":5123,
			"count":17406,
			"type":"SCALAR"
		}
	],
	"bufferViews":[
		{
			"buffer":0,
			"byteLength":126976,
			"byteOffset":0,
			"target":34962
		},
		{
			"buffer":0,
			"byteLength":95232,
			"byteOffset":126976,
			"target":34962
		},
		{
			"buffer":0,
			"byteLength":95232,
			"byteOffset":222208,
			"target":34962
		},
		{
			"buffer":0,
			"byteLength":63488,
			"byteOffset":317440,
			"target":34962
		},
		{
			"buffer":0,
			"byteLength":34812,
			"byteOffset":380928,
			"target":34963
		}
	],
	"samplers":[
		{
			"magFilter":9729,
			"minFilter":9987
		}
	],
	"buffers":[
		{
			"byteLength":415740,
			"uri":"DeadTree_3.bin"
		}
	]
}
