{
	"asset":{
		"generator":"Khronos glTF Blender I/O v4.0.44",
		"version":"2.0"
	},
	"scene":0,
	"scenes":[
		{
			"name":"Scene",
			"nodes":[
				0
			]
		}
	],
	"nodes":[
		{
			"mesh":0,
			"name":"Fern_1"
		}
	],
	"materials":[
		{
			"alphaCutoff":0.20000000298023224,
			"alphaMode":"MASK",
			"doubleSided":true,
			"name":"Leaves",
			"pbrMetallicRoughness":{
				"baseColorTexture":{
					"index":0
				},
				"metallicFactor":0
			}
		}
	],
	"meshes":[
		{
			"name":"Plane.023",
			"primitives":[
				{
					"attributes":{
						"COLOR_0":0,
						"POSITION":1,
						"NORMAL":2,
						"TEXCOORD_0":3
					},
					"indices":4,
					"material":0
				}
			]
		}
	],
	"textures":[
		{
			"sampler":0,
			"source":0
		}
	],
	"images":[
		{
			"mimeType":"image/png",
			"name":"Leaves",
			"uri":"Leaves.png"
		}
	],
	"accessors":[
		{
			"bufferView":0,
			"componentType":5123,
			"count":243,
			"normalized":true,
			"type":"VEC4"
		},
		{
			"bufferView":1,
			"componentType":5126,
			"count":243,
			"max":[
				4.626213073730469,
				2.4413082599639893,
				4.396108150482178
			],
			"min":[
				-4.419975280761719,
				-0.2474701851606369,
				-4.091315746307373
			],
			"type":"VEC3"
		},
		{
			"bufferView":2,
			"componentType":5126,
			"count":243,
			"type":"VEC3"
		},
		{
			"bufferView":3,
			"componentType":5126,
			"count":243,
			"type":"VEC2"
		},
		{
			"bufferView":4,
			"componentType":5123,
			"count":864,
			"type":"SCALAR"
		}
	],
	"bufferViews":[
		{
			"buffer":0,
			"byteLength":1944,
			"byteOffset":0,
			"target":34962
		},
		{
			"buffer":0,
			"byteLength":2916,
			"byteOffset":1944,
			"target":34962
		},
		{
			"buffer":0,
			"byteLength":2916,
			"byteOffset":4860,
			"target":34962
		},
		{
			"buffer":0,
			"byteLength":1944,
			"byteOffset":7776,
			"target":34962
		},
		{
			"buffer":0,
			"byteLength":1728,
			"byteOffset":9720,
			"target":34963
		}
	],
	"samplers":[
		{
			"magFilter":9729,
			"minFilter":9987
		}
	],
	"buffers":[
		{
			"byteLength":11448,
			"uri":"Fern_1.bin"
		}
	]
}
