{
	"asset":{
		"generator":"Khronos glTF Blender I/O v4.0.44",
		"version":"2.0"
	},
	"scene":0,
	"scenes":[
		{
			"name":"Scene",
			"nodes":[
				0
			]
		}
	],
	"nodes":[
		{
			"mesh":0,
			"name":"Flower_3_Single"
		}
	],
	"materials":[
		{
			"alphaCutoff":0.20000000298023224,
			"alphaMode":"MASK",
			"doubleSided":true,
			"name":"Leaves",
			"pbrMetallicRoughness":{
				"baseColorTexture":{
					"index":0
				},
				"metallicFactor":0
			}
		},
		{
			"alphaCutoff":0.20000000298023224,
			"alphaMode":"MASK",
			"doubleSided":true,
			"name":"Flowers",
			"pbrMetallicRoughness":{
				"baseColorTexture":{
					"index":1
				},
				"metallicFactor":0
			}
		}
	],
	"meshes":[
		{
			"name":"Plane.020",
			"primitives":[
				{
					"attributes":{
						"COLOR_0":0,
						"POSITION":1,
						"NORMAL":2,
						"TEXCOORD_0":3
					},
					"indices":4,
					"material":0
				},
				{
					"attributes":{
						"COLOR_0":5,
						"POSITION":6,
						"NORMAL":7,
						"TEXCOORD_0":8
					},
					"indices":9,
					"material":1
				}
			]
		}
	],
	"textures":[
		{
			"sampler":0,
			"source":0
		},
		{
			"sampler":0,
			"source":1
		}
	],
	"images":[
		{
			"mimeType":"image/png",
			"name":"Leaves",
			"uri":"Leaves.png"
		},
		{
			"mimeType":"image/png",
			"name":"Flowers",
			"uri":"Flowers.png"
		}
	],
	"accessors":[
		{
			"bufferView":0,
			"componentType":5123,
			"count":211,
			"normalized":true,
			"type":"VEC4"
		},
		{
			"bufferView":1,
			"componentType":5126,
			"count":211,
			"max":[
				0.42587125301361084,
				1.7716585397720337,
				0.35561174154281616
			],
			"min":[
				-0.48073863983154297,
				-0.018326954916119576,
				-0.520720362663269
			],
			"type":"VEC3"
		},
		{
			"bufferView":2,
			"componentType":5126,
			"count":211,
			"type":"VEC3"
		},
		{
			"bufferView":3,
			"componentType":5126,
			"count":211,
			"type":"VEC2"
		},
		{
			"bufferView":4,
			"componentType":5123,
			"count":810,
			"type":"SCALAR"
		},
		{
			"bufferView":5,
			"componentType":5123,
			"count":16,
			"normalized":true,
			"type":"VEC4"
		},
		{
			"bufferView":6,
			"componentType":5126,
			"count":16,
			"max":[
				0.42078328132629395,
				2.0498666763305664,
				0.3568156957626343
			],
			"min":[
				-0.27247604727745056,
				1.755362868309021,
				-0.3710358142852783
			],
			"type":"VEC3"
		},
		{
			"bufferView":7,
			"componentType":5126,
			"count":16,
			"type":"VEC3"
		},
		{
			"bufferView":8,
			"componentType":5126,
			"count":16,
			"type":"VEC2"
		},
		{
			"bufferView":9,
			"componentType":5123,
			"count":45,
			"type":"SCALAR"
		}
	],
	"bufferViews":[
		{
			"buffer":0,
			"byteLength":1688,
			"byteOffset":0,
			"target":34962
		},
		{
			"buffer":0,
			"byteLength":2532,
			"byteOffset":1688,
			"target":34962
		},
		{
			"buffer":0,
			"byteLength":2532,
			"byteOffset":4220,
			"target":34962
		},
		{
			"buffer":0,
			"byteLength":1688,
			"byteOffset":6752,
			"target":34962
		},
		{
			"buffer":0,
			"byteLength":1620,
			"byteOffset":8440,
			"target":34963
		},
		{
			"buffer":0,
			"byteLength":128,
			"byteOffset":10060,
			"target":34962
		},
		{
			"buffer":0,
			"byteLength":192,
			"byteOffset":10188,
			"target":34962
		},
		{
			"buffer":0,
			"byteLength":192,
			"byteOffset":10380,
			"target":34962
		},
		{
			"buffer":0,
			"byteLength":128,
			"byteOffset":10572,
			"target":34962
		},
		{
			"buffer":0,
			"byteLength":90,
			"byteOffset":10700,
			"target":34963
		}
	],
	"samplers":[
		{
			"magFilter":9729,
			"minFilter":9987
		}
	],
	"buffers":[
		{
			"byteLength":10792,
			"uri":"Flower_3_Single.bin"
		}
	]
}
