{
	"asset":{
		"generator":"Khronos glTF Blender I/O v4.0.44",
		"version":"2.0"
	},
	"scene":0,
	"scenes":[
		{
			"name":"Scene",
			"nodes":[
				0
			]
		}
	],
	"nodes":[
		{
			"mesh":0,
			"name":"Flower_4_Single"
		}
	],
	"materials":[
		{
			"alphaCutoff":0.20000000298023224,
			"alphaMode":"MASK",
			"doubleSided":true,
			"name":"Leaves",
			"pbrMetallicRoughness":{
				"baseColorTexture":{
					"index":0
				},
				"metallicFactor":0
			}
		},
		{
			"alphaCutoff":0.20000000298023224,
			"alphaMode":"MASK",
			"doubleSided":true,
			"name":"Flowers",
			"pbrMetallicRoughness":{
				"baseColorTexture":{
					"index":1
				},
				"metallicFactor":0
			}
		}
	],
	"meshes":[
		{
			"name":"Plane.001",
			"primitives":[
				{
					"attributes":{
						"COLOR_0":0,
						"POSITION":1,
						"NORMAL":2,
						"TEXCOORD_0":3
					},
					"indices":4,
					"material":0
				},
				{
					"attributes":{
						"COLOR_0":5,
						"POSITION":6,
						"NORMAL":7,
						"TEXCOORD_0":8
					},
					"indices":9,
					"material":1
				}
			]
		}
	],
	"textures":[
		{
			"sampler":0,
			"source":0
		},
		{
			"sampler":0,
			"source":1
		}
	],
	"images":[
		{
			"mimeType":"image/png",
			"name":"Leaves",
			"uri":"Leaves.png"
		},
		{
			"mimeType":"image/png",
			"name":"Flowers",
			"uri":"Flowers.png"
		}
	],
	"accessors":[
		{
			"bufferView":0,
			"componentType":5123,
			"count":99,
			"normalized":true,
			"type":"VEC4"
		},
		{
			"bufferView":1,
			"componentType":5126,
			"count":99,
			"max":[
				0.56728196144104,
				2.2943310737609863,
				0.21159152686595917
			],
			"min":[
				-0.5050064325332642,
				-0.03043048270046711,
				-0.3631875216960907
			],
			"type":"VEC3"
		},
		{
			"bufferView":2,
			"componentType":5126,
			"count":99,
			"type":"VEC3"
		},
		{
			"bufferView":3,
			"componentType":5126,
			"count":99,
			"type":"VEC2"
		},
		{
			"bufferView":4,
			"componentType":5123,
			"count":486,
			"type":"SCALAR"
		},
		{
			"bufferView":5,
			"componentType":5123,
			"count":400,
			"normalized":true,
			"type":"VEC4"
		},
		{
			"bufferView":6,
			"componentType":5126,
			"count":400,
			"max":[
				0.3805691599845886,
				2.388728618621826,
				0.37106218934059143
			],
			"min":[
				-0.39627349376678467,
				1.1264549493789673,
				-0.40180256962776184
			],
			"type":"VEC3"
		},
		{
			"bufferView":7,
			"componentType":5126,
			"count":400,
			"type":"VEC3"
		},
		{
			"bufferView":8,
			"componentType":5126,
			"count":400,
			"type":"VEC2"
		},
		{
			"bufferView":9,
			"componentType":5123,
			"count":1440,
			"type":"SCALAR"
		}
	],
	"bufferViews":[
		{
			"buffer":0,
			"byteLength":792,
			"byteOffset":0,
			"target":34962
		},
		{
			"buffer":0,
			"byteLength":1188,
			"byteOffset":792,
			"target":34962
		},
		{
			"buffer":0,
			"byteLength":1188,
			"byteOffset":1980,
			"target":34962
		},
		{
			"buffer":0,
			"byteLength":792,
			"byteOffset":3168,
			"target":34962
		},
		{
			"buffer":0,
			"byteLength":972,
			"byteOffset":3960,
			"target":34963
		},
		{
			"buffer":0,
			"byteLength":3200,
			"byteOffset":4932,
			"target":34962
		},
		{
			"buffer":0,
			"byteLength":4800,
			"byteOffset":8132,
			"target":34962
		},
		{
			"buffer":0,
			"byteLength":4800,
			"byteOffset":12932,
			"target":34962
		},
		{
			"buffer":0,
			"byteLength":3200,
			"byteOffset":17732,
			"target":34962
		},
		{
			"buffer":0,
			"byteLength":2880,
			"byteOffset":20932,
			"target":34963
		}
	],
	"samplers":[
		{
			"magFilter":9729,
			"minFilter":9987
		}
	],
	"buffers":[
		{
			"byteLength":23812,
			"uri":"Flower_4_Single.bin"
		}
	]
}
