{
	"asset":{
		"generator":"Khronos glTF Blender I/O v4.0.44",
		"version":"2.0"
	},
	"scene":0,
	"scenes":[
		{
			"name":"Scene",
			"nodes":[
				0
			]
		}
	],
	"nodes":[
		{
			"mesh":0,
			"name":"Flower_4_Group"
		}
	],
	"materials":[
		{
			"alphaCutoff":0.20000000298023224,
			"alphaMode":"MASK",
			"doubleSided":true,
			"name":"Leaves",
			"pbrMetallicRoughness":{
				"baseColorTexture":{
					"index":0
				},
				"metallicFactor":0
			}
		},
		{
			"alphaCutoff":0.20000000298023224,
			"alphaMode":"MASK",
			"doubleSided":true,
			"name":"Flowers",
			"pbrMetallicRoughness":{
				"baseColorTexture":{
					"index":1
				},
				"metallicFactor":0
			}
		}
	],
	"meshes":[
		{
			"name":"Plane.003",
			"primitives":[
				{
					"attributes":{
						"COLOR_0":0,
						"POSITION":1,
						"NORMAL":2,
						"TEXCOORD_0":3
					},
					"indices":4,
					"material":0
				},
				{
					"attributes":{
						"COLOR_0":5,
						"POSITION":6,
						"NORMAL":7,
						"TEXCOORD_0":8
					},
					"indices":9,
					"material":1
				}
			]
		}
	],
	"textures":[
		{
			"sampler":0,
			"source":0
		},
		{
			"sampler":0,
			"source":1
		}
	],
	"images":[
		{
			"mimeType":"image/png",
			"name":"Leaves",
			"uri":"Leaves.png"
		},
		{
			"mimeType":"image/png",
			"name":"Flowers",
			"uri":"Flowers.png"
		}
	],
	"accessors":[
		{
			"bufferView":0,
			"componentType":5123,
			"count":302,
			"normalized":true,
			"type":"VEC4"
		},
		{
			"bufferView":1,
			"componentType":5126,
			"count":302,
			"max":[
				0.6255365610122681,
				2.2943496704101562,
				0.5279141068458557
			],
			"min":[
				-0.7901612520217896,
				-0.05699761211872101,
				-0.6181322932243347
			],
			"type":"VEC3"
		},
		{
			"bufferView":2,
			"componentType":5126,
			"count":302,
			"type":"VEC3"
		},
		{
			"bufferView":3,
			"componentType":5126,
			"count":302,
			"type":"VEC2"
		},
		{
			"bufferView":4,
			"componentType":5123,
			"count":1470,
			"type":"SCALAR"
		},
		{
			"bufferView":5,
			"componentType":5123,
			"count":1000,
			"normalized":true,
			"type":"VEC4"
		},
		{
			"bufferView":6,
			"componentType":5126,
			"count":1000,
			"max":[
				0.8491399884223938,
				2.4297707080841064,
				0.7313783168792725
			],
			"min":[
				-0.9313857555389404,
				1.122023582458496,
				-0.6361504197120667
			],
			"type":"VEC3"
		},
		{
			"bufferView":7,
			"componentType":5126,
			"count":1000,
			"type":"VEC3"
		},
		{
			"bufferView":8,
			"componentType":5126,
			"count":1000,
			"type":"VEC2"
		},
		{
			"bufferView":9,
			"componentType":5123,
			"count":3600,
			"type":"SCALAR"
		}
	],
	"bufferViews":[
		{
			"buffer":0,
			"byteLength":2416,
			"byteOffset":0,
			"target":34962
		},
		{
			"buffer":0,
			"byteLength":3624,
			"byteOffset":2416,
			"target":34962
		},
		{
			"buffer":0,
			"byteLength":3624,
			"byteOffset":6040,
			"target":34962
		},
		{
			"buffer":0,
			"byteLength":2416,
			"byteOffset":9664,
			"target":34962
		},
		{
			"buffer":0,
			"byteLength":2940,
			"byteOffset":12080,
			"target":34963
		},
		{
			"buffer":0,
			"byteLength":8000,
			"byteOffset":15020,
			"target":34962
		},
		{
			"buffer":0,
			"byteLength":12000,
			"byteOffset":23020,
			"target":34962
		},
		{
			"buffer":0,
			"byteLength":12000,
			"byteOffset":35020,
			"target":34962
		},
		{
			"buffer":0,
			"byteLength":8000,
			"byteOffset":47020,
			"target":34962
		},
		{
			"buffer":0,
			"byteLength":7200,
			"byteOffset":55020,
			"target":34963
		}
	],
	"samplers":[
		{
			"magFilter":9729,
			"minFilter":9987
		}
	],
	"buffers":[
		{
			"byteLength":62220,
			"uri":"Flower_4_Group.bin"
		}
	]
}
