{
	"asset":{
		"generator":"Khronos glTF Blender I/O v4.0.44",
		"version":"2.0"
	},
	"scene":0,
	"scenes":[
		{
			"name":"Scene",
			"nodes":[
				0
			]
		}
	],
	"nodes":[
		{
			"mesh":0,
			"name":"Grass_Common_Tall"
		}
	],
	"materials":[
		{
			"doubleSided":true,
			"name":"Grass",
			"pbrMetallicRoughness":{
				"baseColorTexture":{
					"index":0
				},
				"metallicFactor":0
			}
		}
	],
	"meshes":[
		{
			"name":"Plane.013",
			"primitives":[
				{
					"attributes":{
						"COLOR_0":0,
						"POSITION":1,
						"NORMAL":2,
						"TEXCOORD_0":3
					},
					"indices":4,
					"material":0
				}
			]
		}
	],
	"textures":[
		{
			"sampler":0,
			"source":0
		}
	],
	"images":[
		{
			"mimeType":"image/png",
			"name":"Grass",
			"uri":"Grass.png"
		}
	],
	"accessors":[
		{
			"bufferView":0,
			"componentType":5123,
			"count":303,
			"normalized":true,
			"type":"VEC4"
		},
		{
			"bufferView":1,
			"componentType":5126,
			"count":303,
			"max":[
				0.49152159690856934,
				1.841333031654358,
				0.5140784978866577
			],
			"min":[
				-0.40356767177581787,
				-0.031362250447273254,
				-0.47903335094451904
			],
			"type":"VEC3"
		},
		{
			"bufferView":2,
			"componentType":5126,
			"count":303,
			"type":"VEC3"
		},
		{
			"bufferView":3,
			"componentType":5126,
			"count":303,
			"type":"VEC2"
		},
		{
			"bufferView":4,
			"componentType":5123,
			"count":978,
			"type":"SCALAR"
		}
	],
	"bufferViews":[
		{
			"buffer":0,
			"byteLength":2424,
			"byteOffset":0,
			"target":34962
		},
		{
			"buffer":0,
			"byteLength":3636,
			"byteOffset":2424,
			"target":34962
		},
		{
			"buffer":0,
			"byteLength":3636,
			"byteOffset":6060,
			"target":34962
		},
		{
			"buffer":0,
			"byteLength":2424,
			"byteOffset":9696,
			"target":34962
		},
		{
			"buffer":0,
			"byteLength":1956,
			"byteOffset":12120,
			"target":34963
		}
	],
	"samplers":[
		{
			"magFilter":9729,
			"minFilter":9987
		}
	],
	"buffers":[
		{
			"byteLength":14076,
			"uri":"Grass_Common_Tall.bin"
		}
	]
}
