{
	"asset":{
		"generator":"Khronos glTF Blender I/O v4.0.44",
		"version":"2.0"
	},
	"scene":0,
	"scenes":[
		{
			"name":"Scene",
			"nodes":[
				0
			]
		}
	],
	"nodes":[
		{
			"mesh":0,
			"name":"Mushroom_Laetiporus"
		}
	],
	"materials":[
		{
			"doubleSided":true,
			"name":"Mushrooms",
			"pbrMetallicRoughness":{
				"baseColorTexture":{
					"index":0
				},
				"metallicFactor":0
			}
		}
	],
	"meshes":[
		{
			"name":"Cube.020",
			"primitives":[
				{
					"attributes":{
						"POSITION":0,
						"NORMAL":1,
						"TEXCOORD_0":2
					},
					"indices":3,
					"material":0
				}
			]
		}
	],
	"textures":[
		{
			"sampler":0,
			"source":0
		}
	],
	"images":[
		{
			"mimeType":"image/png",
			"name":"Mushrooms",
			"uri":"Mushrooms.png"
		}
	],
	"accessors":[
		{
			"bufferView":0,
			"componentType":5126,
			"count":1806,
			"max":[
				0.716213583946228,
				0.606732964515686,
				0.7748813629150391
			],
			"min":[
				-0.6498190760612488,
				-0.16022536158561707,
				-0.32830116152763367
			],
			"type":"VEC3"
		},
		{
			"bufferView":1,
			"componentType":5126,
			"count":1806,
			"type":"VEC3"
		},
		{
			"bufferView":2,
			"componentType":5126,
			"count":1806,
			"type":"VEC2"
		},
		{
			"bufferView":3,
			"componentType":5123,
			"count":9648,
			"type":"SCALAR"
		}
	],
	"bufferViews":[
		{
			"buffer":0,
			"byteLength":21672,
			"byteOffset":0,
			"target":34962
		},
		{
			"buffer":0,
			"byteLength":21672,
			"byteOffset":21672,
			"target":34962
		},
		{
			"buffer":0,
			"byteLength":14448,
			"byteOffset":43344,
			"target":34962
		},
		{
			"buffer":0,
			"byteLength":19296,
			"byteOffset":57792,
			"target":34963
		}
	],
	"samplers":[
		{
			"magFilter":9729,
			"minFilter":9987
		}
	],
	"buffers":[
		{
			"byteLength":77088,
			"uri":"Mushroom_Laetiporus.bin"
		}
	]
}
