{
	"asset":{
		"generator":"Khronos glTF Blender I/O v4.0.44",
		"version":"2.0"
	},
	"scene":0,
	"scenes":[
		{
			"name":"Scene",
			"nodes":[
				0
			]
		}
	],
	"nodes":[
		{
			"mesh":0,
			"name":"Pebble_Round_4"
		}
	],
	"materials":[
		{
			"doubleSided":true,
			"name":"PathRocks",
			"pbrMetallicRoughness":{
				"baseColorTexture":{
					"index":0
				},
				"metallicFactor":0
			}
		}
	],
	"meshes":[
		{
			"name":"Cube.017_Retopology",
			"primitives":[
				{
					"attributes":{
						"POSITION":0,
						"NORMAL":1,
						"TEXCOORD_0":2
					},
					"indices":3,
					"material":0
				}
			]
		}
	],
	"textures":[
		{
			"sampler":0,
			"source":0
		}
	],
	"images":[
		{
			"mimeType":"image/png",
			"name":"PathRocks_Diffuse",
			"uri":"PathRocks_Diffuse.png"
		}
	],
	"accessors":[
		{
			"bufferView":0,
			"componentType":5126,
			"count":266,
			"max":[
				0.19573403894901276,
				0.0937667116522789,
				0.22166091203689575
			],
			"min":[
				-0.2105470895767212,
				-0.00563192879781127,
				-0.23073677718639374
			],
			"type":"VEC3"
		},
		{
			"bufferView":1,
			"componentType":5126,
			"count":266,
			"type":"VEC3"
		},
		{
			"bufferView":2,
			"componentType":5126,
			"count":266,
			"type":"VEC2"
		},
		{
			"bufferView":3,
			"componentType":5123,
			"count":378,
			"type":"SCALAR"
		}
	],
	"bufferViews":[
		{
			"buffer":0,
			"byteLength":3192,
			"byteOffset":0,
			"target":34962
		},
		{
			"buffer":0,
			"byteLength":3192,
			"byteOffset":3192,
			"target":34962
		},
		{
			"buffer":0,
			"byteLength":2128,
			"byteOffset":6384,
			"target":34962
		},
		{
			"buffer":0,
			"byteLength":756,
			"byteOffset":8512,
			"target":34963
		}
	],
	"samplers":[
		{
			"magFilter":9729,
			"minFilter":9987
		}
	],
	"buffers":[
		{
			"byteLength":9268,
			"uri":"Pebble_Round_4.bin"
		}
	]
}
