{
	"asset":{
		"generator":"Khronos glTF Blender I/O v4.0.44",
		"version":"2.0"
	},
	"scene":0,
	"scenes":[
		{
			"name":"Scene",
			"nodes":[
				0
			]
		}
	],
	"nodes":[
		{
			"mesh":0,
			"name":"Pine_3"
		}
	],
	"materials":[
		{
			"alphaCutoff":0.20000000298023224,
			"alphaMode":"MASK",
			"doubleSided":true,
			"name":"Bark_NormalTree",
			"normalTexture":{
				"index":0
			},
			"pbrMetallicRoughness":{
				"baseColorTexture":{
					"index":1
				},
				"metallicFactor":0
			}
		},
		{
			"alphaCutoff":0.20000000298023224,
			"alphaMode":"MASK",
			"doubleSided":true,
			"name":"Leaves_Pine",
			"pbrMetallicRoughness":{
				"baseColorTexture":{
					"index":2
				},
				"metallicFactor":0
			}
		}
	],
	"meshes":[
		{
			"name":"tree.030",
			"primitives":[
				{
					"attributes":{
						"COLOR_0":0,
						"POSITION":1,
						"NORMAL":2,
						"TEXCOORD_0":3
					},
					"indices":4,
					"material":0
				},
				{
					"attributes":{
						"COLOR_0":5,
						"POSITION":6,
						"NORMAL":7,
						"TEXCOORD_0":8
					},
					"indices":9,
					"material":1
				}
			]
		}
	],
	"textures":[
		{
			"sampler":0,
			"source":0
		},
		{
			"sampler":0,
			"source":1
		},
		{
			"sampler":0,
			"source":2
		}
	],
	"images":[
		{
			"mimeType":"image/png",
			"name":"Bark_NormalTree_Normal",
			"uri":"Bark_NormalTree_Normal.png"
		},
		{
			"mimeType":"image/png",
			"name":"Bark_NormalTree",
			"uri":"Bark_NormalTree.png"
		},
		{
			"mimeType":"image/png",
			"name":"Leaf_Pine_C",
			"uri":"Leaf_Pine_C.png"
		}
	],
	"accessors":[
		{
			"bufferView":0,
			"componentType":5126,
			"count":5772,
			"type":"VEC4"
		},
		{
			"bufferView":1,
			"componentType":5126,
			"count":5772,
			"max":[
				1.0800867080688477,
				6.998227119445801,
				1.1170551776885986
			],
			"min":[
				-0.9482465982437134,
				-0.23508860170841217,
				-1.2420871257781982
			],
			"type":"VEC3"
		},
		{
			"bufferView":2,
			"componentType":5126,
			"count":5772,
			"type":"VEC3"
		},
		{
			"bufferView":3,
			"componentType":5126,
			"count":5772,
			"type":"VEC2"
		},
		{
			"bufferView":4,
			"componentType":5123,
			"count":13506,
			"type":"SCALAR"
		},
		{
			"bufferView":5,
			"componentType":5126,
			"count":801,
			"type":"VEC4"
		},
		{
			"bufferView":6,
			"componentType":5126,
			"count":801,
			"max":[
				1.4976577758789062,
				7.157110214233398,
				1.7034649848937988
			],
			"min":[
				-2.113736867904663,
				3.187588691711426,
				-2.2923386096954346
			],
			"type":"VEC3"
		},
		{
			"bufferView":7,
			"componentType":5126,
			"count":801,
			"type":"VEC3"
		},
		{
			"bufferView":8,
			"componentType":5126,
			"count":801,
			"type":"VEC2"
		},
		{
			"bufferView":9,
			"componentType":5123,
			"count":1386,
			"type":"SCALAR"
		}
	],
	"bufferViews":[
		{
			"buffer":0,
			"byteLength":92352,
			"byteOffset":0,
			"target":34962
		},
		{
			"buffer":0,
			"byteLength":69264,
			"byteOffset":92352,
			"target":34962
		},
		{
			"buffer":0,
			"byteLength":69264,
			"byteOffset":161616,
			"target":34962
		},
		{
			"buffer":0,
			"byteLength":46176,
			"byteOffset":230880,
			"target":34962
		},
		{
			"buffer":0,
			"byteLength":27012,
			"byteOffset":277056,
			"target":34963
		},
		{
			"buffer":0,
			"byteLength":12816,
			"byteOffset":304068,
			"target":34962
		},
		{
			"buffer":0,
			"byteLength":9612,
			"byteOffset":316884,
			"target":34962
		},
		{
			"buffer":0,
			"byteLength":9612,
			"byteOffset":326496,
			"target":34962
		},
		{
			"buffer":0,
			"byteLength":6408,
			"byteOffset":336108,
			"target":34962
		},
		{
			"buffer":0,
			"byteLength":2772,
			"byteOffset":342516,
			"target":34963
		}
	],
	"samplers":[
		{
			"magFilter":9729,
			"minFilter":9987
		}
	],
	"buffers":[
		{
			"byteLength":345288,
			"uri":"Pine_3.bin"
		}
	]
}
