{
	"asset":{
		"generator":"Khronos glTF Blender I/O v4.0.44",
		"version":"2.0"
	},
	"scene":0,
	"scenes":[
		{
			"name":"Scene",
			"nodes":[
				0
			]
		}
	],
	"nodes":[
		{
			"mesh":0,
			"name":"Pine_1"
		}
	],
	"materials":[
		{
			"alphaCutoff":0.20000000298023224,
			"alphaMode":"MASK",
			"doubleSided":true,
			"name":"Bark_NormalTree",
			"normalTexture":{
				"index":0
			},
			"pbrMetallicRoughness":{
				"baseColorTexture":{
					"index":1
				},
				"metallicFactor":0
			}
		},
		{
			"alphaCutoff":0.20000000298023224,
			"alphaMode":"MASK",
			"doubleSided":true,
			"name":"Leaves_Pine",
			"pbrMetallicRoughness":{
				"baseColorTexture":{
					"index":2
				},
				"metallicFactor":0
			}
		}
	],
	"meshes":[
		{
			"name":"tree.028",
			"primitives":[
				{
					"attributes":{
						"COLOR_0":0,
						"POSITION":1,
						"NORMAL":2,
						"TEXCOORD_0":3
					},
					"indices":4,
					"material":0
				},
				{
					"attributes":{
						"COLOR_0":5,
						"POSITION":6,
						"NORMAL":7,
						"TEXCOORD_0":8
					},
					"indices":9,
					"material":1
				}
			]
		}
	],
	"textures":[
		{
			"sampler":0,
			"source":0
		},
		{
			"sampler":0,
			"source":1
		},
		{
			"sampler":0,
			"source":2
		}
	],
	"images":[
		{
			"mimeType":"image/png",
			"name":"Bark_NormalTree_Normal",
			"uri":"Bark_NormalTree_Normal.png"
		},
		{
			"mimeType":"image/png",
			"name":"Bark_NormalTree",
			"uri":"Bark_NormalTree.png"
		},
		{
			"mimeType":"image/png",
			"name":"Leaf_Pine_C",
			"uri":"Leaf_Pine_C.png"
		}
	],
	"accessors":[
		{
			"bufferView":0,
			"componentType":5126,
			"count":4076,
			"type":"VEC4"
		},
		{
			"bufferView":1,
			"componentType":5126,
			"count":4076,
			"max":[
				1.3389160633087158,
				6.822727203369141,
				1.3303884267807007
			],
			"min":[
				-1.0975136756896973,
				-0.23508860170841217,
				-1.8778250217437744
			],
			"type":"VEC3"
		},
		{
			"bufferView":2,
			"componentType":5126,
			"count":4076,
			"type":"VEC3"
		},
		{
			"bufferView":3,
			"componentType":5126,
			"count":4076,
			"type":"VEC2"
		},
		{
			"bufferView":4,
			"componentType":5123,
			"count":9531,
			"type":"SCALAR"
		},
		{
			"bufferView":5,
			"componentType":5126,
			"count":1170,
			"type":"VEC4"
		},
		{
			"bufferView":6,
			"componentType":5126,
			"count":1170,
			"max":[
				2.4958789348602295,
				7.081829071044922,
				2.0614705085754395
			],
			"min":[
				-2.448819160461426,
				2.158754587173462,
				-2.4769327640533447
			],
			"type":"VEC3"
		},
		{
			"bufferView":7,
			"componentType":5126,
			"count":1170,
			"type":"VEC3"
		},
		{
			"bufferView":8,
			"componentType":5126,
			"count":1170,
			"type":"VEC2"
		},
		{
			"bufferView":9,
			"componentType":5123,
			"count":2310,
			"type":"SCALAR"
		}
	],
	"bufferViews":[
		{
			"buffer":0,
			"byteLength":65216,
			"byteOffset":0,
			"target":34962
		},
		{
			"buffer":0,
			"byteLength":48912,
			"byteOffset":65216,
			"target":34962
		},
		{
			"buffer":0,
			"byteLength":48912,
			"byteOffset":114128,
			"target":34962
		},
		{
			"buffer":0,
			"byteLength":32608,
			"byteOffset":163040,
			"target":34962
		},
		{
			"buffer":0,
			"byteLength":19062,
			"byteOffset":195648,
			"target":34963
		},
		{
			"buffer":0,
			"byteLength":18720,
			"byteOffset":214712,
			"target":34962
		},
		{
			"buffer":0,
			"byteLength":14040,
			"byteOffset":233432,
			"target":34962
		},
		{
			"buffer":0,
			"byteLength":14040,
			"byteOffset":247472,
			"target":34962
		},
		{
			"buffer":0,
			"byteLength":9360,
			"byteOffset":261512,
			"target":34962
		},
		{
			"buffer":0,
			"byteLength":4620,
			"byteOffset":270872,
			"target":34963
		}
	],
	"samplers":[
		{
			"magFilter":9729,
			"minFilter":9987
		}
	],
	"buffers":[
		{
			"byteLength":275492,
			"uri":"Pine_1.bin"
		}
	]
}
