{
	"asset":{
		"generator":"Khronos glTF Blender I/O v4.0.44",
		"version":"2.0"
	},
	"scene":0,
	"scenes":[
		{
			"name":"Scene",
			"nodes":[
				0
			]
		}
	],
	"nodes":[
		{
			"mesh":0,
			"name":"Pine_4"
		}
	],
	"materials":[
		{
			"alphaCutoff":0.20000000298023224,
			"alphaMode":"MASK",
			"doubleSided":true,
			"name":"Bark_NormalTree",
			"normalTexture":{
				"index":0
			},
			"pbrMetallicRoughness":{
				"baseColorTexture":{
					"index":1
				},
				"metallicFactor":0
			}
		},
		{
			"alphaCutoff":0.20000000298023224,
			"alphaMode":"MASK",
			"doubleSided":true,
			"name":"Leaves_Pine",
			"pbrMetallicRoughness":{
				"baseColorTexture":{
					"index":2
				},
				"metallicFactor":0
			}
		}
	],
	"meshes":[
		{
			"name":"tree.031",
			"primitives":[
				{
					"attributes":{
						"COLOR_0":0,
						"POSITION":1,
						"NORMAL":2,
						"TEXCOORD_0":3
					},
					"indices":4,
					"material":0
				},
				{
					"attributes":{
						"COLOR_0":5,
						"POSITION":6,
						"NORMAL":7,
						"TEXCOORD_0":8
					},
					"indices":9,
					"material":1
				}
			]
		}
	],
	"textures":[
		{
			"sampler":0,
			"source":0
		},
		{
			"sampler":0,
			"source":1
		},
		{
			"sampler":0,
			"source":2
		}
	],
	"images":[
		{
			"mimeType":"image/png",
			"name":"Bark_NormalTree_Normal",
			"uri":"Bark_NormalTree_Normal.png"
		},
		{
			"mimeType":"image/png",
			"name":"Bark_NormalTree",
			"uri":"Bark_NormalTree.png"
		},
		{
			"mimeType":"image/png",
			"name":"Leaf_Pine_C",
			"uri":"Leaf_Pine_C.png"
		}
	],
	"accessors":[
		{
			"bufferView":0,
			"componentType":5126,
			"count":2978,
			"type":"VEC4"
		},
		{
			"bufferView":1,
			"componentType":5126,
			"count":2978,
			"max":[
				1.9782183170318604,
				9.700387001037598,
				0.8374438285827637
			],
			"min":[
				-1.9725096225738525,
				-0.23508861660957336,
				-1.9964979887008667
			],
			"type":"VEC3"
		},
		{
			"bufferView":2,
			"componentType":5126,
			"count":2978,
			"type":"VEC3"
		},
		{
			"bufferView":3,
			"componentType":5126,
			"count":2978,
			"type":"VEC2"
		},
		{
			"bufferView":4,
			"componentType":5123,
			"count":6480,
			"type":"SCALAR"
		},
		{
			"bufferView":5,
			"componentType":5126,
			"count":1910,
			"type":"VEC4"
		},
		{
			"bufferView":6,
			"componentType":5126,
			"count":1910,
			"max":[
				2.930187225341797,
				10.0013427734375,
				2.424938201904297
			],
			"min":[
				-2.8718371391296387,
				2.4392924308776855,
				-2.9459073543548584
			],
			"type":"VEC3"
		},
		{
			"bufferView":7,
			"componentType":5126,
			"count":1910,
			"type":"VEC3"
		},
		{
			"bufferView":8,
			"componentType":5126,
			"count":1910,
			"type":"VEC2"
		},
		{
			"bufferView":9,
			"componentType":5123,
			"count":3630,
			"type":"SCALAR"
		}
	],
	"bufferViews":[
		{
			"buffer":0,
			"byteLength":47648,
			"byteOffset":0,
			"target":34962
		},
		{
			"buffer":0,
			"byteLength":35736,
			"byteOffset":47648,
			"target":34962
		},
		{
			"buffer":0,
			"byteLength":35736,
			"byteOffset":83384,
			"target":34962
		},
		{
			"buffer":0,
			"byteLength":23824,
			"byteOffset":119120,
			"target":34962
		},
		{
			"buffer":0,
			"byteLength":12960,
			"byteOffset":142944,
			"target":34963
		},
		{
			"buffer":0,
			"byteLength":30560,
			"byteOffset":155904,
			"target":34962
		},
		{
			"buffer":0,
			"byteLength":22920,
			"byteOffset":186464,
			"target":34962
		},
		{
			"buffer":0,
			"byteLength":22920,
			"byteOffset":209384,
			"target":34962
		},
		{
			"buffer":0,
			"byteLength":15280,
			"byteOffset":232304,
			"target":34962
		},
		{
			"buffer":0,
			"byteLength":7260,
			"byteOffset":247584,
			"target":34963
		}
	],
	"samplers":[
		{
			"magFilter":9729,
			"minFilter":9987
		}
	],
	"buffers":[
		{
			"byteLength":254844,
			"uri":"Pine_4.bin"
		}
	]
}
