{
	"asset":{
		"generator":"Khronos glTF Blender I/O v4.0.44",
		"version":"2.0"
	},
	"scene":0,
	"scenes":[
		{
			"name":"Scene",
			"nodes":[
				0
			]
		}
	],
	"nodes":[
		{
			"mesh":0,
			"name":"Pine_5"
		}
	],
	"materials":[
		{
			"alphaCutoff":0.20000000298023224,
			"alphaMode":"MASK",
			"doubleSided":true,
			"name":"Bark_NormalTree",
			"normalTexture":{
				"index":0
			},
			"pbrMetallicRoughness":{
				"baseColorTexture":{
					"index":1
				},
				"metallicFactor":0
			}
		},
		{
			"alphaCutoff":0.20000000298023224,
			"alphaMode":"MASK",
			"doubleSided":true,
			"name":"Leaves_Pine",
			"pbrMetallicRoughness":{
				"baseColorTexture":{
					"index":2
				},
				"metallicFactor":0
			}
		}
	],
	"meshes":[
		{
			"name":"tree.032",
			"primitives":[
				{
					"attributes":{
						"COLOR_0":0,
						"POSITION":1,
						"NORMAL":2,
						"TEXCOORD_0":3
					},
					"indices":4,
					"material":0
				},
				{
					"attributes":{
						"COLOR_0":5,
						"POSITION":6,
						"NORMAL":7,
						"TEXCOORD_0":8
					},
					"indices":9,
					"material":1
				}
			]
		}
	],
	"textures":[
		{
			"sampler":0,
			"source":0
		},
		{
			"sampler":0,
			"source":1
		},
		{
			"sampler":0,
			"source":2
		}
	],
	"images":[
		{
			"mimeType":"image/png",
			"name":"Bark_NormalTree_Normal",
			"uri":"Bark_NormalTree_Normal.png"
		},
		{
			"mimeType":"image/png",
			"name":"Bark_NormalTree",
			"uri":"Bark_NormalTree.png"
		},
		{
			"mimeType":"image/png",
			"name":"Leaf_Pine_C",
			"uri":"Leaf_Pine_C.png"
		}
	],
	"accessors":[
		{
			"bufferView":0,
			"componentType":5126,
			"count":542,
			"type":"VEC4"
		},
		{
			"bufferView":1,
			"componentType":5126,
			"count":542,
			"max":[
				0.6472557783126831,
				8.332257270812988,
				0.4739142060279846
			],
			"min":[
				-0.47391438484191895,
				-0.23508861660957336,
				-1.5000479221343994
			],
			"type":"VEC3"
		},
		{
			"bufferView":2,
			"componentType":5126,
			"count":542,
			"type":"VEC3"
		},
		{
			"bufferView":3,
			"componentType":5126,
			"count":542,
			"type":"VEC2"
		},
		{
			"bufferView":4,
			"componentType":5123,
			"count":1464,
			"type":"SCALAR"
		},
		{
			"bufferView":5,
			"componentType":5126,
			"count":1773,
			"type":"VEC4"
		},
		{
			"bufferView":6,
			"componentType":5126,
			"count":1773,
			"max":[
				3.432434320449829,
				8.48871898651123,
				2.4435970783233643
			],
			"min":[
				-2.987706422805786,
				1.453586220741272,
				-3.7784042358398438
			],
			"type":"VEC3"
		},
		{
			"bufferView":7,
			"componentType":5126,
			"count":1773,
			"type":"VEC3"
		},
		{
			"bufferView":8,
			"componentType":5126,
			"count":1773,
			"type":"VEC2"
		},
		{
			"bufferView":9,
			"componentType":5123,
			"count":3474,
			"type":"SCALAR"
		}
	],
	"bufferViews":[
		{
			"buffer":0,
			"byteLength":8672,
			"byteOffset":0,
			"target":34962
		},
		{
			"buffer":0,
			"byteLength":6504,
			"byteOffset":8672,
			"target":34962
		},
		{
			"buffer":0,
			"byteLength":6504,
			"byteOffset":15176,
			"target":34962
		},
		{
			"buffer":0,
			"byteLength":4336,
			"byteOffset":21680,
			"target":34962
		},
		{
			"buffer":0,
			"byteLength":2928,
			"byteOffset":26016,
			"target":34963
		},
		{
			"buffer":0,
			"byteLength":28368,
			"byteOffset":28944,
			"target":34962
		},
		{
			"buffer":0,
			"byteLength":21276,
			"byteOffset":57312,
			"target":34962
		},
		{
			"buffer":0,
			"byteLength":21276,
			"byteOffset":78588,
			"target":34962
		},
		{
			"buffer":0,
			"byteLength":14184,
			"byteOffset":99864,
			"target":34962
		},
		{
			"buffer":0,
			"byteLength":6948,
			"byteOffset":114048,
			"target":34963
		}
	],
	"samplers":[
		{
			"magFilter":9729,
			"minFilter":9987
		}
	],
	"buffers":[
		{
			"byteLength":120996,
			"uri":"Pine_5.bin"
		}
	]
}
