{
	"asset":{
		"generator":"Khronos glTF Blender I/O v4.0.44",
		"version":"2.0"
	},
	"scene":0,
	"scenes":[
		{
			"name":"Scene",
			"nodes":[
				0
			]
		}
	],
	"nodes":[
		{
			"mesh":0,
			"name":"RockPath_Square_Thin"
		}
	],
	"materials":[
		{
			"doubleSided":true,
			"name":"PathRocks",
			"pbrMetallicRoughness":{
				"baseColorTexture":{
					"index":0
				},
				"metallicFactor":0
			}
		}
	],
	"meshes":[
		{
			"name":"Cube.017_Retopology.073",
			"primitives":[
				{
					"attributes":{
						"POSITION":0,
						"NORMAL":1,
						"TEXCOORD_0":2
					},
					"indices":3,
					"material":0
				}
			]
		}
	],
	"textures":[
		{
			"sampler":0,
			"source":0
		}
	],
	"images":[
		{
			"mimeType":"image/png",
			"name":"PathRocks_Diffuse",
			"uri":"PathRocks_Diffuse.png"
		}
	],
	"accessors":[
		{
			"bufferView":0,
			"componentType":5126,
			"count":3727,
			"max":[
				0.7916909456253052,
				0.16620168089866638,
				0.9846768975257874
			],
			"min":[
				-0.7681896090507507,
				-0.010146241635084152,
				-1.0022598505020142
			],
			"type":"VEC3"
		},
		{
			"bufferView":1,
			"componentType":5126,
			"count":3727,
			"type":"VEC3"
		},
		{
			"bufferView":2,
			"componentType":5126,
			"count":3727,
			"type":"VEC2"
		},
		{
			"bufferView":3,
			"componentType":5123,
			"count":5379,
			"type":"SCALAR"
		}
	],
	"bufferViews":[
		{
			"buffer":0,
			"byteLength":44724,
			"byteOffset":0,
			"target":34962
		},
		{
			"buffer":0,
			"byteLength":44724,
			"byteOffset":44724,
			"target":34962
		},
		{
			"buffer":0,
			"byteLength":29816,
			"byteOffset":89448,
			"target":34962
		},
		{
			"buffer":0,
			"byteLength":10758,
			"byteOffset":119264,
			"target":34963
		}
	],
	"samplers":[
		{
			"magFilter":9729,
			"minFilter":9987
		}
	],
	"buffers":[
		{
			"byteLength":130024,
			"uri":"RockPath_Square_Thin.bin"
		}
	]
}
