{
	"asset":{
		"generator":"Khronos glTF Blender I/O v4.0.44",
		"version":"2.0"
	},
	"scene":0,
	"scenes":[
		{
			"name":"Scene",
			"nodes":[
				0
			]
		}
	],
	"nodes":[
		{
			"mesh":0,
			"name":"RockPath_Square_Wide"
		}
	],
	"materials":[
		{
			"doubleSided":true,
			"name":"PathRocks",
			"pbrMetallicRoughness":{
				"baseColorTexture":{
					"index":0
				},
				"metallicFactor":0
			}
		}
	],
	"meshes":[
		{
			"name":"Cube.017_Retopology.038",
			"primitives":[
				{
					"attributes":{
						"POSITION":0,
						"NORMAL":1,
						"TEXCOORD_0":2
					},
					"indices":3,
					"material":0
				}
			]
		}
	],
	"textures":[
		{
			"sampler":0,
			"source":0
		}
	],
	"images":[
		{
			"mimeType":"image/png",
			"name":"PathRocks_Diffuse",
			"uri":"PathRocks_Diffuse.png"
		}
	],
	"accessors":[
		{
			"bufferView":0,
			"componentType":5126,
			"count":4712,
			"max":[
				1.0278809070587158,
				0.16620168089866638,
				0.9870055913925171
			],
			"min":[
				-1.0236998796463013,
				-0.010146240703761578,
				-0.9999311566352844
			],
			"type":"VEC3"
		},
		{
			"bufferView":1,
			"componentType":5126,
			"count":4712,
			"type":"VEC3"
		},
		{
			"bufferView":2,
			"componentType":5126,
			"count":4712,
			"type":"VEC2"
		},
		{
			"bufferView":3,
			"componentType":5123,
			"count":6768,
			"type":"SCALAR"
		}
	],
	"bufferViews":[
		{
			"buffer":0,
			"byteLength":56544,
			"byteOffset":0,
			"target":34962
		},
		{
			"buffer":0,
			"byteLength":56544,
			"byteOffset":56544,
			"target":34962
		},
		{
			"buffer":0,
			"byteLength":37696,
			"byteOffset":113088,
			"target":34962
		},
		{
			"buffer":0,
			"byteLength":13536,
			"byteOffset":150784,
			"target":34963
		}
	],
	"samplers":[
		{
			"magFilter":9729,
			"minFilter":9987
		}
	],
	"buffers":[
		{
			"byteLength":164320,
			"uri":"RockPath_Square_Wide.bin"
		}
	]
}
