{
	"asset":{
		"generator":"Khronos glTF Blender I/O v4.0.44",
		"version":"2.0"
	},
	"scene":0,
	"scenes":[
		{
			"name":"Scene",
			"nodes":[
				0
			]
		}
	],
	"nodes":[
		{
			"mesh":0,
			"name":"RockPath_Round_Small_1"
		}
	],
	"materials":[
		{
			"doubleSided":true,
			"name":"PathRocks",
			"pbrMetallicRoughness":{
				"baseColorTexture":{
					"index":0
				},
				"metallicFactor":0
			}
		}
	],
	"meshes":[
		{
			"name":"Cube.017_Retopology.012",
			"primitives":[
				{
					"attributes":{
						"POSITION":0,
						"NORMAL":1,
						"TEXCOORD_0":2
					},
					"indices":3,
					"material":0
				}
			]
		}
	],
	"textures":[
		{
			"sampler":0,
			"source":0
		}
	],
	"images":[
		{
			"mimeType":"image/png",
			"name":"PathRocks_Diffuse",
			"uri":"PathRocks_Diffuse.png"
		}
	],
	"accessors":[
		{
			"bufferView":0,
			"componentType":5126,
			"count":2036,
			"max":[
				0.5184587240219116,
				0.10394920408725739,
				0.7730143070220947
			],
			"min":[
				-0.5380551815032959,
				-0.008882608264684677,
				-0.703344464302063
			],
			"type":"VEC3"
		},
		{
			"bufferView":1,
			"componentType":5126,
			"count":2036,
			"type":"VEC3"
		},
		{
			"bufferView":2,
			"componentType":5126,
			"count":2036,
			"type":"VEC2"
		},
		{
			"bufferView":3,
			"componentType":5123,
			"count":2994,
			"type":"SCALAR"
		}
	],
	"bufferViews":[
		{
			"buffer":0,
			"byteLength":24432,
			"byteOffset":0,
			"target":34962
		},
		{
			"buffer":0,
			"byteLength":24432,
			"byteOffset":24432,
			"target":34962
		},
		{
			"buffer":0,
			"byteLength":16288,
			"byteOffset":48864,
			"target":34962
		},
		{
			"buffer":0,
			"byteLength":5988,
			"byteOffset":65152,
			"target":34963
		}
	],
	"samplers":[
		{
			"magFilter":9729,
			"minFilter":9987
		}
	],
	"buffers":[
		{
			"byteLength":71140,
			"uri":"RockPath_Round_Small_1.bin"
		}
	]
}
