{
	"asset":{
		"generator":"Khronos glTF Blender I/O v4.0.44",
		"version":"2.0"
	},
	"scene":0,
	"scenes":[
		{
			"name":"Scene",
			"nodes":[
				0
			]
		}
	],
	"nodes":[
		{
			"mesh":0,
			"name":"RockPath_Square_Small_3"
		}
	],
	"materials":[
		{
			"doubleSided":true,
			"name":"PathRocks",
			"pbrMetallicRoughness":{
				"baseColorTexture":{
					"index":0
				},
				"metallicFactor":0
			}
		}
	],
	"meshes":[
		{
			"name":"Cube.017_Retopology.015",
			"primitives":[
				{
					"attributes":{
						"POSITION":0,
						"NORMAL":1,
						"TEXCOORD_0":2
					},
					"indices":3,
					"material":0
				}
			]
		}
	],
	"textures":[
		{
			"sampler":0,
			"source":0
		}
	],
	"images":[
		{
			"mimeType":"image/png",
			"name":"PathRocks_Diffuse",
			"uri":"PathRocks_Diffuse.png"
		}
	],
	"accessors":[
		{
			"bufferView":0,
			"componentType":5126,
			"count":1176,
			"max":[
				0.43974483013153076,
				0.16551485657691956,
				0.5275344848632812
			],
			"min":[
				-0.3961157500743866,
				-0.00811817031353712,
				-0.5487543344497681
			],
			"type":"VEC3"
		},
		{
			"bufferView":1,
			"componentType":5126,
			"count":1176,
			"type":"VEC3"
		},
		{
			"bufferView":2,
			"componentType":5126,
			"count":1176,
			"type":"VEC2"
		},
		{
			"bufferView":3,
			"componentType":5123,
			"count":1704,
			"type":"SCALAR"
		}
	],
	"bufferViews":[
		{
			"buffer":0,
			"byteLength":14112,
			"byteOffset":0,
			"target":34962
		},
		{
			"buffer":0,
			"byteLength":14112,
			"byteOffset":14112,
			"target":34962
		},
		{
			"buffer":0,
			"byteLength":9408,
			"byteOffset":28224,
			"target":34962
		},
		{
			"buffer":0,
			"byteLength":3408,
			"byteOffset":37632,
			"target":34963
		}
	],
	"samplers":[
		{
			"magFilter":9729,
			"minFilter":9987
		}
	],
	"buffers":[
		{
			"byteLength":41040,
			"uri":"RockPath_Square_Small_3.bin"
		}
	]
}
