{
	"asset":{
		"generator":"Khronos glTF Blender I/O v4.0.44",
		"version":"2.0"
	},
	"scene":0,
	"scenes":[
		{
			"name":"Scene",
			"nodes":[
				0
			]
		}
	],
	"nodes":[
		{
			"mesh":0,
			"name":"RockPath_Round_Small_2"
		}
	],
	"materials":[
		{
			"doubleSided":true,
			"name":"PathRocks",
			"pbrMetallicRoughness":{
				"baseColorTexture":{
					"index":0
				},
				"metallicFactor":0
			}
		}
	],
	"meshes":[
		{
			"name":"Cube.017_Retopology.013",
			"primitives":[
				{
					"attributes":{
						"POSITION":0,
						"NORMAL":1,
						"TEXCOORD_0":2
					},
					"indices":3,
					"material":0
				}
			]
		}
	],
	"textures":[
		{
			"sampler":0,
			"source":0
		}
	],
	"images":[
		{
			"mimeType":"image/png",
			"name":"PathRocks_Diffuse",
			"uri":"PathRocks_Diffuse.png"
		}
	],
	"accessors":[
		{
			"bufferView":0,
			"componentType":5126,
			"count":2264,
			"max":[
				0.5792431235313416,
				0.09686935693025589,
				0.5954861640930176
			],
			"min":[
				-0.5602763891220093,
				-0.0077979713678359985,
				-0.7587976455688477
			],
			"type":"VEC3"
		},
		{
			"bufferView":1,
			"componentType":5126,
			"count":2264,
			"type":"VEC3"
		},
		{
			"bufferView":2,
			"componentType":5126,
			"count":2264,
			"type":"VEC2"
		},
		{
			"bufferView":3,
			"componentType":5123,
			"count":3378,
			"type":"SCALAR"
		}
	],
	"bufferViews":[
		{
			"buffer":0,
			"byteLength":27168,
			"byteOffset":0,
			"target":34962
		},
		{
			"buffer":0,
			"byteLength":27168,
			"byteOffset":27168,
			"target":34962
		},
		{
			"buffer":0,
			"byteLength":18112,
			"byteOffset":54336,
			"target":34962
		},
		{
			"buffer":0,
			"byteLength":6756,
			"byteOffset":72448,
			"target":34963
		}
	],
	"samplers":[
		{
			"magFilter":9729,
			"minFilter":9987
		}
	],
	"buffers":[
		{
			"byteLength":79204,
			"uri":"RockPath_Round_Small_2.bin"
		}
	]
}
