{
	"asset":{
		"generator":"Khronos glTF Blender I/O v4.0.44",
		"version":"2.0"
	},
	"scene":0,
	"scenes":[
		{
			"name":"Scene",
			"nodes":[
				0
			]
		}
	],
	"nodes":[
		{
			"mesh":0,
			"name":"RockPath_Square_Small_2"
		}
	],
	"materials":[
		{
			"doubleSided":true,
			"name":"PathRocks",
			"pbrMetallicRoughness":{
				"baseColorTexture":{
					"index":0
				},
				"metallicFactor":0
			}
		}
	],
	"meshes":[
		{
			"name":"Cube.017_Retopology.011",
			"primitives":[
				{
					"attributes":{
						"POSITION":0,
						"NORMAL":1,
						"TEXCOORD_0":2
					},
					"indices":3,
					"material":0
				}
			]
		}
	],
	"textures":[
		{
			"sampler":0,
			"source":0
		}
	],
	"images":[
		{
			"mimeType":"image/png",
			"name":"PathRocks_Diffuse",
			"uri":"PathRocks_Diffuse.png"
		}
	],
	"accessors":[
		{
			"bufferView":0,
			"componentType":5126,
			"count":1165,
			"max":[
				0.4951825737953186,
				0.13612976670265198,
				0.4721206724643707
			],
			"min":[
				-0.4975392818450928,
				-0.013205458410084248,
				-0.4939475357532501
			],
			"type":"VEC3"
		},
		{
			"bufferView":1,
			"componentType":5126,
			"count":1165,
			"type":"VEC3"
		},
		{
			"bufferView":2,
			"componentType":5126,
			"count":1165,
			"type":"VEC2"
		},
		{
			"bufferView":3,
			"componentType":5123,
			"count":1677,
			"type":"SCALAR"
		}
	],
	"bufferViews":[
		{
			"buffer":0,
			"byteLength":13980,
			"byteOffset":0,
			"target":34962
		},
		{
			"buffer":0,
			"byteLength":13980,
			"byteOffset":13980,
			"target":34962
		},
		{
			"buffer":0,
			"byteLength":9320,
			"byteOffset":27960,
			"target":34962
		},
		{
			"buffer":0,
			"byteLength":3354,
			"byteOffset":37280,
			"target":34963
		}
	],
	"samplers":[
		{
			"magFilter":9729,
			"minFilter":9987
		}
	],
	"buffers":[
		{
			"byteLength":40636,
			"uri":"RockPath_Square_Small_2.bin"
		}
	]
}
