{
	"asset":{
		"generator":"Khronos glTF Blender I/O v4.0.44",
		"version":"2.0"
	},
	"scene":0,
	"scenes":[
		{
			"name":"Scene",
			"nodes":[
				0
			]
		}
	],
	"nodes":[
		{
			"mesh":0,
			"name":"TwistedTree_4"
		}
	],
	"materials":[
		{
			"doubleSided":true,
			"name":"Bark_TwistedTree",
			"normalTexture":{
				"index":0
			},
			"pbrMetallicRoughness":{
				"baseColorTexture":{
					"index":1
				},
				"metallicFactor":0
			}
		},
		{
			"alphaCutoff":0.20000000298023224,
			"alphaMode":"MASK",
			"doubleSided":true,
			"name":"Leaves_TwistedTree",
			"pbrMetallicRoughness":{
				"baseColorTexture":{
					"index":2
				},
				"metallicFactor":0
			}
		}
	],
	"meshes":[
		{
			"name":"tree.041",
			"primitives":[
				{
					"attributes":{
						"COLOR_0":0,
						"POSITION":1,
						"NORMAL":2,
						"TEXCOORD_0":3
					},
					"indices":4,
					"material":0
				},
				{
					"attributes":{
						"COLOR_0":5,
						"POSITION":6,
						"NORMAL":7,
						"TEXCOORD_0":8
					},
					"indices":9,
					"material":1
				}
			]
		}
	],
	"textures":[
		{
			"sampler":0,
			"source":0
		},
		{
			"sampler":0,
			"source":1
		},
		{
			"sampler":0,
			"source":2
		}
	],
	"images":[
		{
			"mimeType":"image/png",
			"name":"Bark_TwistedTree_Normal",
			"uri":"Bark_TwistedTree_Normal.png"
		},
		{
			"mimeType":"image/png",
			"name":"Bark_TwistedTree",
			"uri":"Bark_TwistedTree.png"
		},
		{
			"mimeType":"image/png",
			"name":"Leaves_TwistedTree_C",
			"uri":"Leaves_TwistedTree_C.png"
		}
	],
	"accessors":[
		{
			"bufferView":0,
			"componentType":5126,
			"count":9176,
			"type":"VEC4"
		},
		{
			"bufferView":1,
			"componentType":5126,
			"count":9176,
			"max":[
				4.80446195602417,
				17.352516174316406,
				2.777181386947632
			],
			"min":[
				-2.732177972793579,
				-0.20147468149662018,
				-6.009294033050537
			],
			"type":"VEC3"
		},
		{
			"bufferView":2,
			"componentType":5126,
			"count":9176,
			"type":"VEC3"
		},
		{
			"bufferView":3,
			"componentType":5126,
			"count":9176,
			"type":"VEC2"
		},
		{
			"bufferView":4,
			"componentType":5123,
			"count":20700,
			"type":"SCALAR"
		},
		{
			"bufferView":5,
			"componentType":5126,
			"count":5400,
			"type":"VEC4"
		},
		{
			"bufferView":6,
			"componentType":5126,
			"count":5400,
			"max":[
				6.053491592407227,
				18.536760330200195,
				4.150291442871094
			],
			"min":[
				-4.327320098876953,
				2.1321682929992676,
				-7.142794609069824
			],
			"type":"VEC3"
		},
		{
			"bufferView":7,
			"componentType":5126,
			"count":5400,
			"type":"VEC3"
		},
		{
			"bufferView":8,
			"componentType":5126,
			"count":5400,
			"type":"VEC2"
		},
		{
			"bufferView":9,
			"componentType":5123,
			"count":8100,
			"type":"SCALAR"
		}
	],
	"bufferViews":[
		{
			"buffer":0,
			"byteLength":146816,
			"byteOffset":0,
			"target":34962
		},
		{
			"buffer":0,
			"byteLength":110112,
			"byteOffset":146816,
			"target":34962
		},
		{
			"buffer":0,
			"byteLength":110112,
			"byteOffset":256928,
			"target":34962
		},
		{
			"buffer":0,
			"byteLength":73408,
			"byteOffset":367040,
			"target":34962
		},
		{
			"buffer":0,
			"byteLength":41400,
			"byteOffset":440448,
			"target":34963
		},
		{
			"buffer":0,
			"byteLength":86400,
			"byteOffset":481848,
			"target":34962
		},
		{
			"buffer":0,
			"byteLength":64800,
			"byteOffset":568248,
			"target":34962
		},
		{
			"buffer":0,
			"byteLength":64800,
			"byteOffset":633048,
			"target":34962
		},
		{
			"buffer":0,
			"byteLength":43200,
			"byteOffset":697848,
			"target":34962
		},
		{
			"buffer":0,
			"byteLength":16200,
			"byteOffset":741048,
			"target":34963
		}
	],
	"samplers":[
		{
			"magFilter":9729,
			"minFilter":9987
		}
	],
	"buffers":[
		{
			"byteLength":757248,
			"uri":"TwistedTree_4.bin"
		}
	]
}
