{
	"asset":{
		"generator":"Khronos glTF Blender I/O v4.0.44",
		"version":"2.0"
	},
	"scene":0,
	"scenes":[
		{
			"name":"Scene",
			"nodes":[
				0
			]
		}
	],
	"nodes":[
		{
			"mesh":0,
			"name":"TwistedTree_3"
		}
	],
	"materials":[
		{
			"doubleSided":true,
			"name":"Bark_TwistedTree",
			"normalTexture":{
				"index":0
			},
			"pbrMetallicRoughness":{
				"baseColorTexture":{
					"index":1
				},
				"metallicFactor":0
			}
		},
		{
			"alphaCutoff":0.20000000298023224,
			"alphaMode":"MASK",
			"doubleSided":true,
			"name":"Leaves_TwistedTree",
			"pbrMetallicRoughness":{
				"baseColorTexture":{
					"index":2
				},
				"metallicFactor":0
			}
		}
	],
	"meshes":[
		{
			"name":"tree.040",
			"primitives":[
				{
					"attributes":{
						"COLOR_0":0,
						"POSITION":1,
						"NORMAL":2,
						"TEXCOORD_0":3
					},
					"indices":4,
					"material":0
				},
				{
					"attributes":{
						"COLOR_0":5,
						"POSITION":6,
						"NORMAL":7,
						"TEXCOORD_0":8
					},
					"indices":9,
					"material":1
				}
			]
		}
	],
	"textures":[
		{
			"sampler":0,
			"source":0
		},
		{
			"sampler":0,
			"source":1
		},
		{
			"sampler":0,
			"source":2
		}
	],
	"images":[
		{
			"mimeType":"image/png",
			"name":"Bark_TwistedTree_Normal",
			"uri":"Bark_TwistedTree_Normal.png"
		},
		{
			"mimeType":"image/png",
			"name":"Bark_TwistedTree",
			"uri":"Bark_TwistedTree.png"
		},
		{
			"mimeType":"image/png",
			"name":"Leaves_TwistedTree_C",
			"uri":"Leaves_TwistedTree_C.png"
		}
	],
	"accessors":[
		{
			"bufferView":0,
			"componentType":5126,
			"count":9405,
			"type":"VEC4"
		},
		{
			"bufferView":1,
			"componentType":5126,
			"count":9405,
			"max":[
				5.440822124481201,
				14.757431983947754,
				3.588460922241211
			],
			"min":[
				-3.039580821990967,
				-0.20147468149662018,
				-5.2718305587768555
			],
			"type":"VEC3"
		},
		{
			"bufferView":2,
			"componentType":5126,
			"count":9405,
			"type":"VEC3"
		},
		{
			"bufferView":3,
			"componentType":5126,
			"count":9405,
			"type":"VEC2"
		},
		{
			"bufferView":4,
			"componentType":5123,
			"count":22167,
			"type":"SCALAR"
		},
		{
			"bufferView":5,
			"componentType":5126,
			"count":5400,
			"type":"VEC4"
		},
		{
			"bufferView":6,
			"componentType":5126,
			"count":5400,
			"max":[
				6.867476463317871,
				15.871066093444824,
				4.985528945922852
			],
			"min":[
				-4.49001932144165,
				1.901405930519104,
				-6.520090103149414
			],
			"type":"VEC3"
		},
		{
			"bufferView":7,
			"componentType":5126,
			"count":5400,
			"type":"VEC3"
		},
		{
			"bufferView":8,
			"componentType":5126,
			"count":5400,
			"type":"VEC2"
		},
		{
			"bufferView":9,
			"componentType":5123,
			"count":8100,
			"type":"SCALAR"
		}
	],
	"bufferViews":[
		{
			"buffer":0,
			"byteLength":150480,
			"byteOffset":0,
			"target":34962
		},
		{
			"buffer":0,
			"byteLength":112860,
			"byteOffset":150480,
			"target":34962
		},
		{
			"buffer":0,
			"byteLength":112860,
			"byteOffset":263340,
			"target":34962
		},
		{
			"buffer":0,
			"byteLength":75240,
			"byteOffset":376200,
			"target":34962
		},
		{
			"buffer":0,
			"byteLength":44334,
			"byteOffset":451440,
			"target":34963
		},
		{
			"buffer":0,
			"byteLength":86400,
			"byteOffset":495776,
			"target":34962
		},
		{
			"buffer":0,
			"byteLength":64800,
			"byteOffset":582176,
			"target":34962
		},
		{
			"buffer":0,
			"byteLength":64800,
			"byteOffset":646976,
			"target":34962
		},
		{
			"buffer":0,
			"byteLength":43200,
			"byteOffset":711776,
			"target":34962
		},
		{
			"buffer":0,
			"byteLength":16200,
			"byteOffset":754976,
			"target":34963
		}
	],
	"samplers":[
		{
			"magFilter":9729,
			"minFilter":9987
		}
	],
	"buffers":[
		{
			"byteLength":771176,
			"uri":"TwistedTree_3.bin"
		}
	]
}
