{
	"asset":{
		"generator":"Khronos glTF Blender I/O v4.0.44",
		"version":"2.0"
	},
	"scene":0,
	"scenes":[
		{
			"name":"Scene",
			"nodes":[
				0
			]
		}
	],
	"nodes":[
		{
			"mesh":0,
			"name":"TwistedTree_1"
		}
	],
	"materials":[
		{
			"doubleSided":true,
			"name":"Bark_TwistedTree",
			"normalTexture":{
				"index":0
			},
			"pbrMetallicRoughness":{
				"baseColorTexture":{
					"index":1
				},
				"metallicFactor":0
			}
		},
		{
			"alphaCutoff":0.20000000298023224,
			"alphaMode":"MASK",
			"doubleSided":true,
			"name":"Leaves_TwistedTree",
			"pbrMetallicRoughness":{
				"baseColorTexture":{
					"index":2
				},
				"metallicFactor":0
			}
		}
	],
	"meshes":[
		{
			"name":"tree.038",
			"primitives":[
				{
					"attributes":{
						"COLOR_0":0,
						"POSITION":1,
						"NORMAL":2,
						"TEXCOORD_0":3
					},
					"indices":4,
					"material":0
				},
				{
					"attributes":{
						"COLOR_0":5,
						"POSITION":6,
						"NORMAL":7,
						"TEXCOORD_0":8
					},
					"indices":9,
					"material":1
				}
			]
		}
	],
	"textures":[
		{
			"sampler":0,
			"source":0
		},
		{
			"sampler":0,
			"source":1
		},
		{
			"sampler":0,
			"source":2
		}
	],
	"images":[
		{
			"mimeType":"image/png",
			"name":"Bark_TwistedTree_Normal",
			"uri":"Bark_TwistedTree_Normal.png"
		},
		{
			"mimeType":"image/png",
			"name":"Bark_TwistedTree",
			"uri":"Bark_TwistedTree.png"
		},
		{
			"mimeType":"image/png",
			"name":"Leaves_TwistedTree_C",
			"uri":"Leaves_TwistedTree_C.png"
		}
	],
	"accessors":[
		{
			"bufferView":0,
			"componentType":5126,
			"count":9360,
			"type":"VEC4"
		},
		{
			"bufferView":1,
			"componentType":5126,
			"count":9360,
			"max":[
				9.911966323852539,
				15.281858444213867,
				3.4427638053894043
			],
			"min":[
				-1.498000979423523,
				-0.20147469639778137,
				-5.117466926574707
			],
			"type":"VEC3"
		},
		{
			"bufferView":2,
			"componentType":5126,
			"count":9360,
			"type":"VEC3"
		},
		{
			"bufferView":3,
			"componentType":5126,
			"count":9360,
			"type":"VEC2"
		},
		{
			"bufferView":4,
			"componentType":5123,
			"count":21636,
			"type":"SCALAR"
		},
		{
			"bufferView":5,
			"componentType":5126,
			"count":4704,
			"type":"VEC4"
		},
		{
			"bufferView":6,
			"componentType":5126,
			"count":4704,
			"max":[
				11.341513633728027,
				16.52402114868164,
				4.822585105895996
			],
			"min":[
				-2.174241065979004,
				2.4449024200439453,
				-6.726779460906982
			],
			"type":"VEC3"
		},
		{
			"bufferView":7,
			"componentType":5126,
			"count":4704,
			"type":"VEC3"
		},
		{
			"bufferView":8,
			"componentType":5126,
			"count":4704,
			"type":"VEC2"
		},
		{
			"bufferView":9,
			"componentType":5123,
			"count":7056,
			"type":"SCALAR"
		}
	],
	"bufferViews":[
		{
			"buffer":0,
			"byteLength":149760,
			"byteOffset":0,
			"target":34962
		},
		{
			"buffer":0,
			"byteLength":112320,
			"byteOffset":149760,
			"target":34962
		},
		{
			"buffer":0,
			"byteLength":112320,
			"byteOffset":262080,
			"target":34962
		},
		{
			"buffer":0,
			"byteLength":74880,
			"byteOffset":374400,
			"target":34962
		},
		{
			"buffer":0,
			"byteLength":43272,
			"byteOffset":449280,
			"target":34963
		},
		{
			"buffer":0,
			"byteLength":75264,
			"byteOffset":492552,
			"target":34962
		},
		{
			"buffer":0,
			"byteLength":56448,
			"byteOffset":567816,
			"target":34962
		},
		{
			"buffer":0,
			"byteLength":56448,
			"byteOffset":624264,
			"target":34962
		},
		{
			"buffer":0,
			"byteLength":37632,
			"byteOffset":680712,
			"target":34962
		},
		{
			"buffer":0,
			"byteLength":14112,
			"byteOffset":718344,
			"target":34963
		}
	],
	"samplers":[
		{
			"magFilter":9729,
			"minFilter":9987
		}
	],
	"buffers":[
		{
			"byteLength":732456,
			"uri":"TwistedTree_1.bin"
		}
	]
}
