{
	"asset":{
		"generator":"Khronos glTF Blender I/O v4.0.44",
		"version":"2.0"
	},
	"scene":0,
	"scenes":[
		{
			"name":"Scene",
			"nodes":[
				0
			]
		}
	],
	"nodes":[
		{
			"mesh":0,
			"name":"TwistedTree_2"
		}
	],
	"materials":[
		{
			"doubleSided":true,
			"name":"Bark_TwistedTree",
			"normalTexture":{
				"index":0
			},
			"pbrMetallicRoughness":{
				"baseColorTexture":{
					"index":1
				},
				"metallicFactor":0
			}
		},
		{
			"alphaCutoff":0.20000000298023224,
			"alphaMode":"MASK",
			"doubleSided":true,
			"name":"Leaves_TwistedTree",
			"pbrMetallicRoughness":{
				"baseColorTexture":{
					"index":2
				},
				"metallicFactor":0
			}
		}
	],
	"meshes":[
		{
			"name":"tree.039",
			"primitives":[
				{
					"attributes":{
						"COLOR_0":0,
						"POSITION":1,
						"NORMAL":2,
						"TEXCOORD_0":3
					},
					"indices":4,
					"material":0
				},
				{
					"attributes":{
						"COLOR_0":5,
						"POSITION":6,
						"NORMAL":7,
						"TEXCOORD_0":8
					},
					"indices":9,
					"material":1
				}
			]
		}
	],
	"textures":[
		{
			"sampler":0,
			"source":0
		},
		{
			"sampler":0,
			"source":1
		},
		{
			"sampler":0,
			"source":2
		}
	],
	"images":[
		{
			"mimeType":"image/png",
			"name":"Bark_TwistedTree_Normal",
			"uri":"Bark_TwistedTree_Normal.png"
		},
		{
			"mimeType":"image/png",
			"name":"Bark_TwistedTree",
			"uri":"Bark_TwistedTree.png"
		},
		{
			"mimeType":"image/png",
			"name":"Leaves_TwistedTree_C",
			"uri":"Leaves_TwistedTree_C.png"
		}
	],
	"accessors":[
		{
			"bufferView":0,
			"componentType":5126,
			"count":8719,
			"type":"VEC4"
		},
		{
			"bufferView":1,
			"componentType":5126,
			"count":8719,
			"max":[
				3.0595297813415527,
				17.562589645385742,
				2.152212142944336
			],
			"min":[
				-5.446475505828857,
				-0.20147468149662018,
				-4.334892272949219
			],
			"type":"VEC3"
		},
		{
			"bufferView":2,
			"componentType":5126,
			"count":8719,
			"type":"VEC3"
		},
		{
			"bufferView":3,
			"componentType":5126,
			"count":8719,
			"type":"VEC2"
		},
		{
			"bufferView":4,
			"componentType":5123,
			"count":20370,
			"type":"SCALAR"
		},
		{
			"bufferView":5,
			"componentType":5126,
			"count":4688,
			"type":"VEC4"
		},
		{
			"bufferView":6,
			"componentType":5126,
			"count":4688,
			"max":[
				3.942902088165283,
				18.74772834777832,
				3.661869764328003
			],
			"min":[
				-6.619970321655273,
				4.4927978515625,
				-5.540718078613281
			],
			"type":"VEC3"
		},
		{
			"bufferView":7,
			"componentType":5126,
			"count":4688,
			"type":"VEC3"
		},
		{
			"bufferView":8,
			"componentType":5126,
			"count":4688,
			"type":"VEC2"
		},
		{
			"bufferView":9,
			"componentType":5123,
			"count":7032,
			"type":"SCALAR"
		}
	],
	"bufferViews":[
		{
			"buffer":0,
			"byteLength":139504,
			"byteOffset":0,
			"target":34962
		},
		{
			"buffer":0,
			"byteLength":104628,
			"byteOffset":139504,
			"target":34962
		},
		{
			"buffer":0,
			"byteLength":104628,
			"byteOffset":244132,
			"target":34962
		},
		{
			"buffer":0,
			"byteLength":69752,
			"byteOffset":348760,
			"target":34962
		},
		{
			"buffer":0,
			"byteLength":40740,
			"byteOffset":418512,
			"target":34963
		},
		{
			"buffer":0,
			"byteLength":75008,
			"byteOffset":459252,
			"target":34962
		},
		{
			"buffer":0,
			"byteLength":56256,
			"byteOffset":534260,
			"target":34962
		},
		{
			"buffer":0,
			"byteLength":56256,
			"byteOffset":590516,
			"target":34962
		},
		{
			"buffer":0,
			"byteLength":37504,
			"byteOffset":646772,
			"target":34962
		},
		{
			"buffer":0,
			"byteLength":14064,
			"byteOffset":684276,
			"target":34963
		}
	],
	"samplers":[
		{
			"magFilter":9729,
			"minFilter":9987
		}
	],
	"buffers":[
		{
			"byteLength":698340,
			"uri":"TwistedTree_2.bin"
		}
	]
}
