{
	"asset":{
		"generator":"Khronos glTF Blender I/O v4.0.44",
		"version":"2.0"
	},
	"scene":0,
	"scenes":[
		{
			"name":"Scene",
			"nodes":[
				0
			]
		}
	],
	"nodes":[
		{
			"mesh":0,
			"name":"TwistedTree_5"
		}
	],
	"materials":[
		{
			"doubleSided":true,
			"name":"Bark_TwistedTree",
			"normalTexture":{
				"index":0
			},
			"pbrMetallicRoughness":{
				"baseColorTexture":{
					"index":1
				},
				"metallicFactor":0
			}
		},
		{
			"alphaCutoff":0.20000000298023224,
			"alphaMode":"MASK",
			"doubleSided":true,
			"name":"Leaves_TwistedTree",
			"pbrMetallicRoughness":{
				"baseColorTexture":{
					"index":2
				},
				"metallicFactor":0
			}
		}
	],
	"meshes":[
		{
			"name":"tree.042",
			"primitives":[
				{
					"attributes":{
						"COLOR_0":0,
						"POSITION":1,
						"NORMAL":2,
						"TEXCOORD_0":3
					},
					"indices":4,
					"material":0
				},
				{
					"attributes":{
						"COLOR_0":5,
						"POSITION":6,
						"NORMAL":7,
						"TEXCOORD_0":8
					},
					"indices":9,
					"material":1
				}
			]
		}
	],
	"textures":[
		{
			"sampler":0,
			"source":0
		},
		{
			"sampler":0,
			"source":1
		},
		{
			"sampler":0,
			"source":2
		}
	],
	"images":[
		{
			"mimeType":"image/png",
			"name":"Bark_TwistedTree_Normal",
			"uri":"Bark_TwistedTree_Normal.png"
		},
		{
			"mimeType":"image/png",
			"name":"Bark_TwistedTree",
			"uri":"Bark_TwistedTree.png"
		},
		{
			"mimeType":"image/png",
			"name":"Leaves_TwistedTree_C",
			"uri":"Leaves_TwistedTree_C.png"
		}
	],
	"accessors":[
		{
			"bufferView":0,
			"componentType":5126,
			"count":9603,
			"type":"VEC4"
		},
		{
			"bufferView":1,
			"componentType":5126,
			"count":9603,
			"max":[
				4.437458515167236,
				14.353582382202148,
				1.6412839889526367
			],
			"min":[
				-2.2728946208953857,
				-0.20147468149662018,
				-5.161355018615723
			],
			"type":"VEC3"
		},
		{
			"bufferView":2,
			"componentType":5126,
			"count":9603,
			"type":"VEC3"
		},
		{
			"bufferView":3,
			"componentType":5126,
			"count":9603,
			"type":"VEC2"
		},
		{
			"bufferView":4,
			"componentType":5123,
			"count":21246,
			"type":"SCALAR"
		},
		{
			"bufferView":5,
			"componentType":5126,
			"count":6044,
			"type":"VEC4"
		},
		{
			"bufferView":6,
			"componentType":5126,
			"count":6044,
			"max":[
				5.748274803161621,
				15.460700988769531,
				3.0480315685272217
			],
			"min":[
				-3.7464373111724854,
				5.0873823165893555,
				-6.338996887207031
			],
			"type":"VEC3"
		},
		{
			"bufferView":7,
			"componentType":5126,
			"count":6044,
			"type":"VEC3"
		},
		{
			"bufferView":8,
			"componentType":5126,
			"count":6044,
			"type":"VEC2"
		},
		{
			"bufferView":9,
			"componentType":5123,
			"count":9066,
			"type":"SCALAR"
		}
	],
	"bufferViews":[
		{
			"buffer":0,
			"byteLength":153648,
			"byteOffset":0,
			"target":34962
		},
		{
			"buffer":0,
			"byteLength":115236,
			"byteOffset":153648,
			"target":34962
		},
		{
			"buffer":0,
			"byteLength":115236,
			"byteOffset":268884,
			"target":34962
		},
		{
			"buffer":0,
			"byteLength":76824,
			"byteOffset":384120,
			"target":34962
		},
		{
			"buffer":0,
			"byteLength":42492,
			"byteOffset":460944,
			"target":34963
		},
		{
			"buffer":0,
			"byteLength":96704,
			"byteOffset":503436,
			"target":34962
		},
		{
			"buffer":0,
			"byteLength":72528,
			"byteOffset":600140,
			"target":34962
		},
		{
			"buffer":0,
			"byteLength":72528,
			"byteOffset":672668,
			"target":34962
		},
		{
			"buffer":0,
			"byteLength":48352,
			"byteOffset":745196,
			"target":34962
		},
		{
			"buffer":0,
			"byteLength":18132,
			"byteOffset":793548,
			"target":34963
		}
	],
	"samplers":[
		{
			"magFilter":9729,
			"minFilter":9987
		}
	],
	"buffers":[
		{
			"byteLength":811680,
			"uri":"TwistedTree_5.bin"
		}
	]
}
